# https://github.com/mikedh/trimesh
v 4.59628792 11.22028902 -0.27132199
v 5.61983352 11.76451788 -0.27132199
v 5.41274820 9.68475056 0.43132199
v 6.43629381 10.22897941 0.43132199
v 5.61150936 10.54555426 1.12527411
v 5.10690916 11.49456923 0.69101625
v 5.92567257 9.95469921 -0.53101625
v 5.42107236 10.90371417 -0.96527411
v 6.44143842 10.98234035 -0.43182187
v 6.24727488 11.34750886 0.59182187
v 4.78530684 10.10175957 -0.43182187
v 4.59114330 10.46692808 0.59182187
v 5.03638755 11.62720108 -0.33300377
v 5.99619418 9.82206735 0.49300377
v 5.51139804 10.00814538 0.90089859
v 6.11302306 10.32803508 0.90089859
v 4.73489817 11.46852925 0.23264446
v 5.33652318 11.78841894 0.23264446
v 5.33163036 11.07193011 1.05354305
v 5.69605854 9.66084949 -0.07264446
v 6.29768356 9.98073919 -0.07264446
v 4.91955867 11.12123336 -0.74089859
v 5.52118368 11.44112305 -0.74089859
v 5.70095136 10.37733833 -0.89354305
v 6.12093981 11.48733836 -0.42734323
v 6.60084312 10.58477150 -0.01433946
v 6.30070749 10.42355364 -0.57998769
v 6.00411093 10.98137064 -0.83523805
v 6.00681334 11.70197903 0.17433946
v 6.48671665 10.79941216 0.58734323
v 6.00192052 10.98549019 0.99523805
v 5.70532396 11.54330719 0.73998769
v 6.48974058 11.24222661 0.08000000
v 4.54586507 10.64985627 -0.42734323
v 5.02576839 9.74728941 -0.01433946
v 5.32725776 9.90596124 -0.57998769
v 5.03066120 10.46377824 -0.83523805
v 4.43173861 10.86449693 0.17433946
v 4.91164192 9.96193007 0.58734323
v 5.02847080 10.46789779 0.99523805
v 4.73187424 11.02571479 0.73998769
v 4.54284114 10.20704182 0.08000000
v 4.78864223 11.45140723 -0.31728417
v 5.32066468 11.73428858 -0.31728417
v 5.71191704 9.71497985 0.47728417
v 6.24393950 9.99786121 0.47728417
v 5.45992785 9.81170020 0.68930130
v 5.56324069 10.25913205 1.05000639
v 5.76601866 9.87344626 0.72870086
v 6.30466526 10.26085505 0.68930130
v 5.87595564 10.42540553 1.05000639
v 6.08231165 10.04162223 0.72870086
v 5.82743924 10.13944924 0.94314386
v 4.63193293 11.36893217 -0.02326937
v 4.89734559 11.51149859 0.47693848
v 4.85318831 11.59023046 -0.05687899
v 5.47667033 11.81808702 -0.02326937
v 5.21006054 11.67777208 0.47693848
v 5.16948130 11.75840642 -0.05687899
v 5.01097895 11.67498770 0.24049988
v 5.46980036 10.81207014 1.12934851
v 5.20751733 11.30535277 0.90362829
v 5.55591139 9.63118141 0.18326937
v 5.82252119 9.77149636 -0.31693848
v 5.86310043 9.69086201 0.21687899
v 6.40064880 10.08033626 0.18326937
v 6.13523614 9.93776985 -0.31693848
v 6.17939342 9.85903797 0.21687899
v 6.02160278 9.77428073 -0.08049988
v 4.72791647 11.18841339 -0.52930130
v 5.15662608 11.02386290 -0.89000639
v 4.95027008 11.40764620 -0.56870086
v 5.57265387 11.63756823 -0.52930130
v 5.46934104 11.19013639 -0.89000639
v 5.26656307 11.57582217 -0.56870086
v 5.20514249 11.30981919 -0.78314386
v 5.82506439 10.14391566 -0.74362829
v 5.56278137 10.63719829 -0.96934851
v 5.88439740 11.66159020 -0.36632029
v 6.31145434 11.25502698 -0.44974553
v 5.83674593 11.50229199 -0.61829805
v 6.55822624 10.39430249 0.21357536
v 6.56090032 10.78588732 -0.23507286
v 6.49727618 10.26001527 -0.04984713
v 6.13680793 10.16793764 -0.58064729
v 6.40489468 10.70208888 -0.52908765
v 6.33948554 10.17525803 -0.34722600
v 6.02576486 10.38376254 -0.77879793
v 6.49886595 10.49281661 -0.31657325
v 5.72035881 10.95116452 -0.93904251
v 6.25072858 10.99203314 -0.66176267
v 5.77532535 11.23628901 -0.83274105
v 5.86983482 10.67702429 -0.91299099
v 6.09063581 11.26058584 -0.66789524
v 6.18514527 10.70132111 -0.74814518
v 5.82507631 11.77315695 -0.05357536
v 6.15121018 11.55640241 0.39507286
v 5.67966433 11.79771952 0.20984713
v 6.09205655 11.63943209 -0.13712893
v 6.49890515 10.50586923 0.52632029
v 6.40065617 11.08726275 0.60974553
v 6.34019457 10.55544280 0.77829805
v 6.59665676 10.69041713 0.29712893
v 5.81820634 10.76714007 1.09904251
v 6.14866698 11.18398310 0.82176267
v 6.08532216 10.65326981 0.99274105
v 5.67451971 11.04435857 1.07299099
v 6.28178451 10.90108741 0.82789524
v 5.40175722 11.55036695 0.74064729
v 5.99450088 11.47392735 0.68908765
v 5.52116198 11.71430080 0.50722600
v 5.51858967 11.33762032 0.93879793
v 5.87355437 11.66885664 0.47657325
v 5.87098206 11.29217617 0.90814518
v 6.50315102 11.12762186 -0.18603673
v 6.40222796 11.31743054 0.34603673
v 6.34594643 11.39772594 -0.18672612
v 6.59824653 10.92321846 0.03040281
v 6.28594659 11.51056922 0.12959719
v 6.53824670 11.03606174 0.34672612
v 4.53367658 10.94339920 -0.36632029
v 4.63192556 10.36200568 -0.44974553
v 4.69238715 10.89382563 -0.61829805
v 5.20750541 9.67611148 0.21357536
v 4.88137154 9.89286602 -0.23507286
v 5.35291740 9.65154892 -0.04984713
v 5.63082451 9.89890148 -0.58064729
v 5.03808084 9.97534108 -0.52908765
v 5.51141974 9.73496764 -0.34722600
v 5.51399205 10.11164811 -0.77879793
v 5.15902735 9.78041179 -0.31657325
v 5.21437539 10.68212836 -0.93904251
v 4.88391475 10.26528533 -0.66176267
v 4.94725956 10.79599862 -0.83274105
v 5.35806201 10.40490986 -0.91299099
v 4.75079721 10.54818102 -0.66789524
v 5.16159966 10.15709226 -0.74814518
v 4.47435549 11.05496595 -0.05357536
v 4.47168140 10.66338111 0.39507286
v 4.53530555 11.18925316 0.20984713
v 4.43592497 10.75885131 -0.13712893
v 5.14818432 9.78767823 0.52632029
v 4.72112738 10.19424145 0.60974553
v 5.19583579 9.94697645 0.77829805
v 4.94052517 9.80983634 0.29712893
v 5.31222292 10.49810391 1.09904251
v 4.78185314 10.45723529 0.82176267
v 5.25725637 10.21297942 0.99274105
v 5.16274691 10.77224415 1.07299099
v 4.94194592 10.18868259 0.82789524
v 4.89577380 11.28133080 0.74064729
v 4.62768705 10.74717955 0.68908765
v 4.69309619 11.27401040 0.50722600
v 5.00681687 11.06550590 0.93879793
v 4.53371577 10.95645183 0.47657325
v 4.84743645 10.74794732 0.90814518
v 4.63035377 10.13183789 -0.18603673
v 4.52943070 10.32164658 0.34603673
v 4.49433503 10.41320670 -0.18672612
v 4.74663513 9.93869922 0.03040281
v 4.43433519 10.52604997 0.12959719
v 4.68663530 10.05154249 0.34672612
v 4.68451234 11.34174843 -0.29791638
v 4.90668639 11.54716850 -0.32905499
v 5.46980464 11.75929575 -0.29791638
v 5.17526553 11.68997456 -0.32905499
v 5.56277708 9.68997268 0.45791638
v 5.85731619 9.75929387 0.48905499
v 6.34806939 10.10752001 0.45791638
v 6.12589534 9.90209993 0.48905499
v 5.43556621 9.73879970 0.56494829
v 5.48536728 9.90205804 0.80200310
v 5.58683844 9.75069438 0.58991346
v 5.58806123 10.39923195 1.09736742
v 5.53752236 10.12793359 0.98409666
v 5.88565389 9.83682642 0.61746946
v 5.64023430 9.93102518 0.82395910
v 5.74127149 9.78458766 0.60840298
v 5.61397345 9.83344813 0.71550822
v 6.37872537 10.24028632 0.56494829
v 6.21552966 10.29029227 0.80200310
v 6.28427388 10.12152738 0.58991346
v 5.74592809 10.48317124 1.09736742
v 5.99910560 10.37336175 0.98409666
v 5.72227264 10.33723884 1.06276664
v 6.04577170 9.92196257 0.61746946
v 6.10491428 10.17809991 0.82395910
v 6.16981721 10.01244946 0.60840298
v 5.92965665 9.94720624 0.73743478
v 6.20049420 10.14530674 0.71550822
v 5.67132740 10.06568455 0.93251713
v 5.97588957 10.22762313 0.93251713
v 5.69719226 10.19385586 1.00605728
v 5.80050468 9.99677830 0.84609988
v 5.85516729 10.27785267 1.00605728
v 5.96078042 10.08199842 0.84609988
v 4.60540130 11.30011282 -0.14948986
v 4.67537546 11.42543111 0.10492586
v 4.69968476 11.41918779 -0.17356911
v 4.99716394 11.51054812 0.58884247
v 4.80936286 11.49740244 0.35744415
v 4.93766407 11.61973596 -0.19836856
v 4.78504033 11.53941111 0.08798099
v 4.81372147 11.52905553 -0.18984459
v 4.73455622 11.48739140 -0.04131637
v 5.54856046 11.80159944 -0.14948986
v 5.40553783 11.81366533 0.10492586
v 5.39712019 11.79002079 -0.17356911
v 5.15503080 11.59448742 0.58884247
v 5.27094609 11.74283060 0.35744415
v 5.04761781 11.60608003 0.48216013
v 5.09778188 11.70487211 -0.19836856
v 5.24972031 11.78648584 0.08798099
v 5.24226719 11.75691733 -0.18984459
v 5.00453622 11.68710471 -0.05872189
v 5.32107697 11.79925001 -0.04131637
v 4.86491909 11.58231798 0.23852386
v 5.16948126 11.74425656 0.23852386
v 4.94834693 11.60222908 0.36160259
v 4.92421803 11.64483379 0.09196946
v 5.10632196 11.68622589 0.36160259
v 5.08449377 11.73005391 0.09196946
v 5.54089006 10.67836986 1.13742144
v 5.39959966 10.94409845 1.10120968
v 5.15374692 11.40648021 0.80424688
v 5.26719219 11.19312069 0.98726009
v 5.48402126 9.64766899 0.30948986
v 5.62704389 9.63560310 0.05507414
v 5.63546153 9.65924764 0.33356911
v 5.87755093 9.85478101 -0.42884247
v 5.76163563 9.70643783 -0.19744415
v 5.93479984 9.74439632 0.35836856
v 5.78286141 9.66278259 0.07201901
v 5.79031454 9.69235110 0.34984459
v 5.71150476 9.65001842 0.20131637
v 6.42718043 10.14915562 0.30948986
v 6.35720627 10.02383732 0.05507414
v 6.33289697 10.03008064 0.33356911
v 6.03541779 9.93872031 -0.42884247
v 6.22321887 9.95186599 -0.19744415
v 5.98496392 9.84318840 -0.32216013
v 6.09491765 9.82953247 0.35836856
v 6.24754139 9.90985732 0.07201901
v 6.21886026 9.92021290 0.34984459
v 6.02804550 9.76216372 0.21872189
v 6.29802550 9.96187704 0.20131637
v 5.86310046 9.70501187 -0.07852386
v 6.16766263 9.86695045 -0.07852386
v 5.92625976 9.76304254 -0.20160259
v 5.94808796 9.71921452 0.06803054
v 6.08423479 9.84703935 -0.20160259
v 6.10836369 9.80443464 0.06803054
v 4.65385635 11.20898211 -0.40494829
v 4.81705206 11.15897617 -0.64200310
v 4.74830785 11.32774105 -0.42991346
v 5.28665363 10.96609719 -0.93736742
v 5.03347613 11.07590668 -0.82409666
v 4.98681003 11.52730586 -0.45746946
v 4.92766744 11.27116852 -0.66395910
v 4.86276452 11.43681897 -0.44840298
v 4.83208753 11.30396169 -0.55550822
v 5.59701552 11.71046873 -0.40494829
v 5.54721444 11.54721039 -0.64200310
v 5.44574329 11.69857405 -0.42991346
v 5.44452049 11.05003649 -0.93736742
v 5.49505936 11.32133484 -0.82409666
v 5.31030909 11.11202959 -0.90276664
v 5.14692784 11.61244201 -0.45746946
v 5.39234743 11.51824325 -0.66395910
v 5.29131024 11.66468077 -0.44840298
v 5.10292507 11.50206220 -0.57743478
v 5.41860827 11.61582030 -0.55550822
v 5.05669216 11.22164531 -0.77251713
v 5.36125433 11.38358389 -0.77251713
v 5.17741444 11.17141577 -0.84605728
v 5.07180131 11.36727002 -0.68609988
v 5.33538946 11.25541258 -0.84605728
v 5.23207704 11.45249013 -0.68609988
v 5.87883481 10.04278822 -0.64424688
v 5.76538954 10.25614774 -0.82726009
v 5.49169167 10.77089857 -0.97742144
v 5.63298206 10.50516999 -0.94120968
v 5.75439198 11.72259567 -0.32267113
v 6.00736381 11.58266805 -0.40143482
v 5.73131755 11.66174670 -0.45475405
v 6.38474982 11.12248759 -0.44581104
v 6.22295356 11.37742407 -0.44355011
v 5.68099256 11.48101988 -0.68906681
v 5.98460864 11.50441558 -0.53033488
v 5.70664903 11.57867487 -0.58056337
v 5.86413332 11.59081011 -0.49822983
v 6.50672973 10.30765415 0.32478913
v 6.58979861 10.48726750 0.09980733
v 6.49210753 10.23090884 0.19998019
v 6.51067682 10.88565336 -0.33743854
v 6.59114856 10.68494998 -0.12668227
v 6.40846400 10.11284509 -0.06300644
v 6.56193324 10.41862592 -0.03349055
v 6.45861117 10.16443978 0.06657364
v 6.53821497 10.32304692 0.08188340
v 6.03621127 10.05491516 -0.56196972
v 6.22553891 10.29160540 -0.58669181
v 6.14417448 10.04401659 -0.45574906
v 5.98704848 10.14844541 -0.67190048
v 6.43192100 10.84334967 -0.48586506
v 6.36087626 10.56125921 -0.56066313
v 6.49561303 10.74424270 -0.38815883
v 6.32858524 10.06993821 -0.21354931
v 6.33011605 10.29410531 -0.47038297
v 6.24482045 10.04960210 -0.33634532
v 6.43052633 10.21081058 -0.20228670
v 6.24561448 10.16587656 -0.46956378
v 5.86768435 10.37626138 -0.84759067
v 6.17130043 10.39965708 -0.68885873
v 5.92964709 10.25907208 -0.76991563
v 6.08713138 10.27120732 -0.68758209
v 6.56273804 10.53647753 -0.16851600
v 6.41079961 10.45486380 -0.45486555
v 6.54036896 10.63846970 -0.27950411
v 6.51128947 10.37172763 -0.18675398
v 6.46155918 10.59613703 -0.42803234
v 6.43133192 10.32877843 -0.33744532
v 5.57124097 10.92939711 -0.96212217
v 5.86557441 10.96860017 -0.89647649
v 5.59588335 11.07520223 -0.92760723
v 5.64321811 10.79509629 -0.96780016
v 6.35409384 10.98972127 -0.55284295
v 6.13331923 10.98923174 -0.75649822
v 6.29115227 11.12877746 -0.56411733
v 6.33848703 10.84867151 -0.60431025
v 5.64989946 11.34636051 -0.79762484
v 5.89437296 11.11361887 -0.84538255
v 5.62343022 11.21826714 -0.87111242
v 5.80993668 11.37796996 -0.73636483
v 5.75023752 11.09754510 -0.89588413
v 5.78874748 10.52472003 -0.91552357
v 5.94221673 10.83050086 -0.88600768
v 5.71837731 10.65641275 -0.95173396
v 5.95360955 10.52777821 -0.85836043
v 5.79798112 10.81501989 -0.93642420
v 6.11313596 11.38205606 -0.55544259
v 6.05399338 11.12591872 -0.76193223
v 6.20812900 11.26332218 -0.56542911
v 5.96971453 11.39028194 -0.65283221
v 6.17745201 11.13046490 -0.67253436
v 5.93859077 11.25548976 -0.76149731
v 6.25198398 10.56041557 -0.67334132
v 6.10183714 10.84280070 -0.80255736
v 6.30307608 10.70146779 -0.64605065
v 6.11338740 10.54009019 -0.77482781
v 6.22519560 10.84793968 -0.71307443
v 6.03437268 10.68869526 -0.84282771
v 5.72444511 11.77891754 -0.16478913
v 5.91980285 11.74734626 0.06019267
v 5.65264373 11.80971063 -0.03998019
v 5.85918905 11.73043288 -0.21376204
v 6.20583535 11.45897677 0.49743854
v 6.08444394 11.63792278 0.28668227
v 5.50799158 11.80638740 0.22300644
v 5.84731428 11.76262871 0.19349055
v 5.57880745 11.81910991 0.09342636
v 5.75481261 11.79641247 0.07811660
v 6.11385519 11.57384036 -0.28675140
v 6.05608065 11.68249846 0.01783997
v 5.99310925 11.66008953 -0.25515637
v 5.96314186 11.71644999 -0.09716620
v 6.47678285 10.36397603 0.48267113
v 6.50223765 10.65194571 0.56143482
v 6.41343371 10.37887277 0.61475405
v 6.54188198 10.44647423 0.37376204
v 6.33176234 11.22214254 0.60581104
v 6.45263894 10.94544869 0.60355011
v 6.23546302 10.43821261 0.84906681
v 6.42463889 10.67683904 0.69033488
v 6.33076959 10.40487482 0.74056337
v 6.42889426 10.52864927 0.65822983
v 6.61224293 10.63650935 0.14216003
v 6.55446839 10.74516744 0.44675140
v 6.58841932 10.54047414 0.25716620
v 6.55845193 10.59683460 0.41515637
v 5.71677470 10.65568796 1.12212217
v 5.91386468 10.87777937 1.05647649
v 5.85143247 10.59458423 1.08760723
v 5.64568338 10.79045978 1.12780016
v 6.20455147 11.27096956 0.71284295
v 6.08069004 11.08821286 0.91649822
v 6.28463780 11.14102940 0.72411733
v 6.10643830 10.48773583 0.95762484
v 6.05019458 10.82056102 1.00538255
v 5.98544268 10.53742074 1.03111242
v 6.22213540 10.60273692 0.89636483
v 5.95626931 10.71005567 1.05588413
v 5.50291030 11.06230158 1.07552357
v 5.84223301 11.01854289 1.04600768
v 5.57273801 10.93032043 1.11173396
v 5.74874317 10.90762299 1.09642420
v 6.39506981 10.85181560 0.71544259
v 6.14965022 10.94601436 0.92193223
v 6.34975440 10.99696354 0.72542911
v 6.32168913 10.72831399 0.81283221
v 6.22245637 11.04582401 0.83253436
v 6.19253717 10.77788605 0.92149731
v 5.25180440 11.53016991 0.72196972
v 5.55390018 11.55477414 0.74669181
v 5.30314134 11.62576987 0.61574906
v 5.30185301 11.43711066 0.83190048
v 6.12672431 11.41734116 0.64586506
v 5.85313301 11.51618539 0.72066313
v 6.08017704 11.52556416 0.54815883
v 6.07888871 11.33690496 0.76431025
v 5.42775253 11.76415813 0.37354931
v 5.61445149 11.64007458 0.63038297
v 5.36405245 11.70608579 0.49634532
v 5.60154575 11.76989630 0.36228670
v 5.46089236 11.64172421 0.62956378
v 5.42397344 11.21076023 1.00759067
v 5.61314931 11.44938666 0.84885873
v 5.36146823 11.32766110 0.92991563
v 5.59763534 11.19726832 1.01836043
v 5.45959290 11.45143556 0.84758209
v 5.94546774 11.69739412 0.32851600
v 5.79284399 11.61706927 0.61486555
v 6.01751444 11.62181602 0.43950411
v 5.78011420 11.74686830 0.34675398
v 5.93834920 11.58015188 0.58803234
v 5.69979601 11.70459738 0.49744532
v 5.94168864 11.14399622 0.96255736
v 5.79154181 11.42638135 0.83334132
v 6.01493023 11.24339133 0.87307443
v 5.77620379 11.17424032 1.00282771
v 5.93704974 11.38986323 0.80605065
v 5.69718907 11.32284539 0.93482781
v 6.48152343 11.05817008 -0.31268380
v 6.50590765 11.18936761 -0.05430245
v 6.41902378 11.19746364 -0.32312532
v 6.54538748 10.95980809 -0.21437699
v 6.33255583 11.33833739 0.47268380
v 6.45495899 11.28518810 0.21430245
v 6.28672236 11.44628641 0.37437699
v 6.41308606 11.20863086 0.48312532
v 6.24238251 11.45148084 -0.31185911
v 6.42908147 11.32739729 -0.05502545
v 6.33710493 11.33260161 -0.32235566
v 6.22846258 11.52926846 -0.16518477
v 6.43394484 11.26824003 -0.18913720
v 6.61304772 10.75436096 0.00713458
v 6.55680400 11.08718615 0.05489229
v 6.59057330 10.85589693 -0.10422132
v 6.61200808 10.80792429 0.16489367
v 6.56139994 11.02853185 -0.07944961
v 6.15423411 11.61726387 0.15286542
v 6.39870760 11.38452223 0.10510771
v 6.22584370 11.54185355 0.26422132
v 6.19805875 11.58644974 -0.00489367
v 6.35265100 11.42113151 0.23944961
v 6.32671284 11.46396953 -0.03002615
v 6.52489932 10.92014400 0.47185911
v 6.52643013 11.14431109 0.21502545
v 6.47931207 11.06514887 0.48235566
v 6.58160425 10.86510557 0.32518477
v 6.48010610 11.18142333 0.34913720
v 6.58240984 10.98307342 0.19002615
v 4.55579887 11.08529241 -0.32267113
v 4.53034407 10.79732272 -0.40143482
v 4.61914801 11.07039566 -0.45475405
v 4.70081938 10.22712589 -0.44581104
v 4.57994278 10.50381974 -0.44355011
v 4.79711871 11.01105582 -0.68906681
v 4.60794284 10.77242939 -0.53033488
v 4.70181214 11.04439361 -0.58056337
v 4.60368747 10.92061916 -0.49822983
v 5.30813662 9.67035089 0.32478913
v 5.11277887 9.70192217 0.09980733
v 5.37993800 9.63955780 0.19998019
v 4.82674637 9.99029166 -0.33743854
v 4.94813778 9.81134566 -0.12668227
v 5.52459015 9.64288103 -0.06300644
v 5.18526744 9.68663973 -0.03349055
v 5.45377427 9.63015853 0.06657364
v 5.27776911 9.65285597 0.08188340
v 5.78077732 9.91909852 -0.56196972
v 5.47868155 9.89449429 -0.58669181
v 5.72944038 9.82349856 -0.45574906
v 5.73072871 10.01215777 -0.67190048
v 4.90585742 10.03192727 -0.48586506
v 5.17944872 9.93308305 -0.56066313
v 4.95240469 9.92370427 -0.38815883
v 5.60482920 9.68511030 -0.21354931
v 5.41813023 9.80919385 -0.47038297
v 5.66852928 9.74318264 -0.33634532
v 5.43103597 9.67937213 -0.20228670
v 5.57168937 9.80754422 -0.46956378
v 5.60860829 10.23850820 -0.84759067
v 5.41943242 9.99988177 -0.68885873
v 5.67111349 10.12160733 -0.76991563
v 5.57298882 9.99783287 -0.68758209
v 5.08711399 9.75187431 -0.16851600
v 5.23973773 9.83219916 -0.45486555
v 5.01506728 9.82745241 -0.27950411
v 5.25246752 9.70240013 -0.18675398
v 5.09423253 9.86911655 -0.42803234
v 5.33278571 9.74467105 -0.33744532
v 5.31580702 10.79358047 -0.96212217
v 5.11871704 10.57148906 -0.89647649
v 5.18114925 10.85468420 -0.92760723
v 5.38689834 10.65880865 -0.96780016
v 4.82803025 10.17829887 -0.55284295
v 4.95189169 10.36105557 -0.75649822
v 4.74794393 10.30823903 -0.56411733
v 4.95369302 10.11236347 -0.60431025
v 4.92614342 10.96153260 -0.79762484
v 4.98238714 10.62870741 -0.84538255
v 5.04713905 10.91184769 -0.87111242
v 4.81044632 10.84653151 -0.73636483
v 5.07631241 10.73921277 -0.89588413
v 5.52967142 10.38696685 -0.91552357
v 5.19034872 10.43072555 -0.88600768
v 5.45984371 10.51894800 -0.95173396
v 5.43494638 10.25200011 -0.85836043
v 5.28383856 10.54164544 -0.93642420
v 4.63751191 10.59745283 -0.55544259
v 4.88293150 10.50325407 -0.76193223
v 4.68282732 10.45230490 -0.56542911
v 4.71089259 10.72095444 -0.65283221
v 4.81012536 10.40344443 -0.67253436
v 4.84004456 10.67138238 -0.76149731
v 5.24103992 10.02288708 -0.67334132
v 5.09089308 10.30527221 -0.80255736
v 5.09553199 10.05940521 -0.64605065
v 5.33539265 10.12642304 -0.77482781
v 5.01765150 10.20587710 -0.71307443
v 5.25637793 10.27502811 -0.84282771
v 4.52585200 11.14161428 -0.16478913
v 4.44278311 10.96200093 0.06019267
v 4.54047419 11.21835960 -0.03998019
v 4.49069975 11.00279421 -0.21376204
v 4.52190491 10.56361507 0.49743854
v 4.44143316 10.76431845 0.28668227
v 4.62411773 11.33642334 0.22300644
v 4.47064848 11.03064252 0.19349055
v 4.57397056 11.28482865 0.09342636
v 4.49436676 11.12622152 0.07811660
v 4.47811333 10.70410099 -0.28675140
v 4.42033880 10.81275908 0.01783997
v 4.47412980 10.85243383 -0.25515637
v 4.44416241 10.90879429 -0.09716620
v 5.27818975 9.72667277 0.48267113
v 5.02521791 9.86660039 0.56143482
v 5.30126418 9.78752174 0.61475405
v 5.17339267 9.71883556 0.37376204
v 4.64783190 10.32678084 0.60581104
v 4.80962817 10.07184436 0.60355011
v 5.35158917 9.96824855 0.84906681
v 5.04797309 9.94485285 0.69033488
v 5.32593269 9.87059357 0.74056337
v 5.16844840 9.85845832 0.65822983
v 4.97650107 9.76676998 0.14216003
v 4.91872654 9.87542807 0.44675140
v 5.06943986 9.73281844 0.25716620
v 5.03947247 9.78917890 0.41515637
v 5.46134076 10.51987133 1.12212217
v 5.16700732 10.48066827 1.05647649
v 5.43669838 10.37406620 1.08760723
v 5.38936361 10.65417215 1.12780016
v 4.67848789 10.45954716 0.71284295
v 4.89926249 10.46003670 0.91649822
v 4.74142945 10.32049097 0.72411733
v 5.38268226 10.10290792 0.95762484
v 5.13820877 10.33564956 1.00538255
v 5.40915150 10.23100129 1.03111242
v 5.22264504 10.07129847 0.89636483
v 5.28234420 10.35172333 1.05588413
v 5.24383424 10.92454840 1.07552357
v 5.09036500 10.61876758 1.04600768
v 5.31420441 10.79285568 1.11173396
v 5.23460061 10.63424855 1.09642420
v 4.91944576 10.06721238 0.71544259
v 4.97858835 10.32334971 0.92193223
v 4.82445273 10.18594625 0.72542911
v 5.06286719 10.05898649 0.81283221
v 4.85512972 10.31880353 0.83253436
v 5.09399096 10.19377867 0.92149731
v 4.99637046 11.39435327 0.72196972
v 4.80704282 11.15766303 0.74669181
v 4.88840725 11.40525184 0.61574906
v 5.04553324 11.30082302 0.83190048
v 4.60066073 10.60591876 0.64586506
v 4.67170546 10.88800922 0.72066313
v 4.53696870 10.70502573 0.54815883
v 4.69409469 10.60059692 0.76431025
v 4.70399649 11.37933022 0.37354931
v 4.70246568 11.15516312 0.63038297
v 4.78776127 11.39966634 0.49634532
v 4.60205539 11.23845785 0.36228670
v 4.78696725 11.28339187 0.62956378
v 5.16489738 11.07300705 1.00759067
v 4.86128130 11.04961135 0.84885873
v 5.10293463 11.19019635 0.92991563
v 5.07897218 10.92149022 1.01836043
v 4.94545034 11.17806111 0.84758209
v 4.46984369 10.91279090 0.32851600
v 4.62178212 10.99440463 0.61486555
v 4.49221277 10.81079873 0.43950411
v 4.52129226 11.07754080 0.34675398
v 4.57102255 10.85313140 0.58803234
v 4.60124980 11.12049000 0.49744532
v 4.93074458 10.60646773 0.96255736
v 4.78059774 10.88885286 0.83334132
v 4.80738613 10.60132875 0.87307443
v 4.99820905 10.76057318 1.00282771
v 4.72950564 10.74780064 0.80605065
v 4.91919433 10.90917825 0.93482781
v 4.70002590 10.11093104 -0.31268380
v 4.57762274 10.16408033 -0.05430245
v 4.61949567 10.24063757 -0.32312532
v 4.74585936 10.00298202 -0.21437699
v 4.55105830 10.39109835 0.47268380
v 4.52667408 10.25990083 0.21430245
v 4.48719425 10.48946034 0.37437699
v 4.61355795 10.25180479 0.48312532
v 4.50768241 10.52912443 -0.31185911
v 4.50615159 10.30495734 -0.05502545
v 4.55326965 10.38411957 -0.32235566
v 4.45097747 10.58416286 -0.16518477
v 4.55247563 10.26784510 -0.18913720
v 4.87834762 9.83200456 0.00713458
v 4.63387412 10.06474620 0.05489229
v 4.80673803 9.90741489 -0.10422132
v 4.83452297 9.86281869 0.16489367
v 4.67993073 10.02813693 -0.07944961
v 4.41953400 10.69490747 0.15286542
v 4.47577772 10.36208228 0.10510771
v 4.44200842 10.59337151 0.26422132
v 4.42057365 10.64134414 -0.00489367
v 4.47118179 10.42073658 0.23944961
v 4.45017189 10.46619501 -0.03002615
v 4.79019922 9.99778759 0.47185911
v 4.60350025 10.12187114 0.21502545
v 4.69547680 10.11666683 0.48235566
v 4.80411914 9.91999998 0.32518477
v 4.59863689 10.18102840 0.34913720
v 4.70586888 9.98529890 0.19002615
v 5.90889236 10.60501417 -0.06035944
v 5.79677706 10.81587239 0.53072026
v 5.24090310 10.78195591 -0.25018399
v 5.12878780 10.99281413 0.34089571
v 6.77198710 13.08853338 -0.78260434
v 6.65987179 13.29939160 -0.19152465
v 6.07889056 12.72000746 -0.78260436
v 5.97943614 12.90705403 -0.86819463
v 5.96677526 12.93086568 -0.19152467
v 5.86732084 13.11791225 -0.27711493
v 5.93631572 13.02569827 -0.46706167
v 6.06212709 13.38771524 -0.57234167
v 6.53576252 12.86691255 -0.29671505
v 6.66157388 13.22892952 -0.40199505
v 6.43032750 13.17953584 -0.09795287
v 6.05984901 13.27767082 -0.20323287
v 6.53804060 12.97695697 -0.66582385
v 6.16756211 13.07509194 -0.77110385
v 6.43401351 13.35759146 -0.69518346
v 6.36744316 13.48279209 -0.34421989
v 6.23044645 12.77183570 -0.52483683
v 6.16387609 12.89703633 -0.17387326
v 5.94659882 13.22064580 -0.53465559
v 6.65129079 13.03398199 -0.33440113
v 6.51536757 13.00494912 -0.15568962
v 6.58931764 13.21773735 -0.21757165
v 5.94525980 13.15596331 -0.31769888
v 6.01920986 13.36875155 -0.37958092
v 6.23563263 13.24638677 -0.10074217
v 6.57867974 12.88587624 -0.48947580
v 6.65262981 13.09866448 -0.55135784
v 6.00857197 13.03689043 -0.65148507
v 6.08252203 13.24967867 -0.71336710
v 6.36225697 13.00824102 -0.76831455
v 6.23913824 13.41572772 -0.66874222
v 6.59148422 13.32239581 -0.56861498
v 6.51887318 13.17429007 -0.72368966
v 6.30111139 13.23197236 -0.78557169
v 6.20000916 13.48931880 -0.46245101
v 6.55235515 13.39598690 -0.36232377
v 6.41643194 13.36695403 -0.18361226
v 6.19867014 13.42463632 -0.24549430
v 6.41859852 13.47161249 -0.53465559
v 6.04553446 12.85864089 -0.50673295
v 6.39788044 12.76530898 -0.40660571
v 6.39921946 12.82999147 -0.62356242
v 6.18145767 12.88767376 -0.68544446
v 6.00640538 12.93223197 -0.30044174
v 6.35875137 12.83890007 -0.20031450
v 6.29677822 13.02265543 -0.08348503
v 6.07901642 13.08033772 -0.14536706
v 6.17929108 12.78301529 -0.33440113
v 5.92731233 13.12300815 -0.50348317
v 5.99270704 13.31117871 -0.55820601
v 6.60518256 12.94344907 -0.31085071
v 6.67057728 13.13161964 -0.36557355
v 6.53453188 12.92835825 -0.21795936
v 6.47972846 13.09085479 -0.11464599
v 6.59796423 13.01391544 -0.23529415
v 6.63836464 13.22713270 -0.30484748
v 6.51816651 13.20145867 -0.14681127
v 6.63684208 13.12578483 -0.26782746
v 6.56538302 13.11052135 -0.17387326
v 5.92661633 13.08938724 -0.39071258
v 5.99082693 13.22035849 -0.25357863
v 5.92776234 13.19144327 -0.42574747
v 6.03044909 13.38816169 -0.47760070
v 6.02926498 13.33096238 -0.28574391
v 5.96664019 13.30331266 -0.45828078
v 5.96593623 13.26930707 -0.34421989
v 6.33432676 13.21635017 -0.08608520
v 6.14175803 13.26735915 -0.14080804
v 6.56744052 12.86646610 -0.39145602
v 6.56862463 12.92366541 -0.58331281
v 6.63124941 12.95131512 -0.41077594
v 6.67127328 13.16524055 -0.47834414
v 6.60706268 13.03426929 -0.61547809
v 6.67012726 13.06318452 -0.44330925
v 6.63195338 12.98532072 -0.52483683
v 5.95952497 13.02749508 -0.56420924
v 6.07972310 13.05316911 -0.72224545
v 5.96104752 13.12884295 -0.60122925
v 6.06335773 13.32626953 -0.65109736
v 6.11816115 13.16377300 -0.75441073
v 5.99992537 13.24071235 -0.63376257
v 6.03250658 13.14410644 -0.69518346
v 6.45613157 12.98726864 -0.72824868
v 6.26356284 13.03827761 -0.78297152
v 6.14476430 13.41257914 -0.62790207
v 6.33806485 13.39692129 -0.69175324
v 6.15372245 13.34327298 -0.70425607
v 6.63949079 13.28153248 -0.48731413
v 6.52120859 13.34840887 -0.63970872
v 6.63868509 13.21481264 -0.56644276
v 6.53753814 13.07357825 -0.70505338
v 6.48346655 13.27142590 -0.72031403
v 6.60051121 13.13694884 -0.64797034
v 6.44785317 13.08941041 -0.76203123
v 6.56836507 13.25457136 -0.65704296
v 6.23178036 13.15456954 -0.79194150
v 6.37027749 13.30140822 -0.75247931
v 6.18630366 13.24666707 -0.76567696
v 6.33336902 13.11973579 -0.79456454
v 6.26864167 13.33396423 -0.74221627
v 6.41570703 13.20703294 -0.77110385
v 6.12442564 13.45083060 -0.52067523
v 6.28312399 13.50025001 -0.40210122
v 6.09986590 13.44456242 -0.42032058
v 6.21548909 13.46925926 -0.57234167
v 6.61915213 13.31978393 -0.38008729
v 6.46626774 13.45173759 -0.35005670
v 6.58482854 13.31610208 -0.28250727
v 6.58596758 13.37112429 -0.46706167
v 6.42830331 13.27901908 -0.12915973
v 6.39561705 13.43664678 -0.25716535
v 6.51336948 13.30083859 -0.18855307
v 6.32742627 13.31590048 -0.12713218
v 6.49393715 13.39454993 -0.26465376
v 6.12254553 13.36001038 -0.21604786
v 6.28242799 13.46662910 -0.28933063
v 6.09916193 13.41055683 -0.30625969
v 6.21294212 13.34622586 -0.15966549
v 6.19421375 13.47394279 -0.34982707
v 6.30799393 13.40961182 -0.20323287
v 6.43134540 13.42596929 -0.62205718
v 6.39674321 13.49104655 -0.43963199
v 6.33040831 13.45995050 -0.61030187
v 6.51564756 13.41088301 -0.55766187
v 6.30983694 13.49863962 -0.50184817
v 6.49507619 13.44957214 -0.44920816
v 5.97873747 12.93484385 -0.48896943
v 6.13162187 12.80289019 -0.51900002
v 6.01306107 12.93852571 -0.58654945
v 6.47346396 12.80379719 -0.34838149
v 6.31476561 12.75437778 -0.46695550
v 6.49802371 12.81006536 -0.44873614
v 6.47534408 12.89461741 -0.65300886
v 6.31546161 12.78799869 -0.57972609
v 6.49872767 12.84407096 -0.56279703
v 6.38494749 12.90840193 -0.70939123
v 6.40367585 12.78068500 -0.51922964
v 6.16958629 12.97560870 -0.73989699
v 6.20227255 12.81798101 -0.61189137
v 6.08452013 12.95378919 -0.68050365
v 6.27046334 12.93872730 -0.74192454
v 6.10395246 12.86007786 -0.60440296
v 6.28989567 12.84501597 -0.66582385
v 5.95839881 12.97309531 -0.38174259
v 6.07668101 12.90621891 -0.22934800
v 5.95920452 13.03981515 -0.30261396
v 6.01192202 12.88350350 -0.40199505
v 6.45312530 12.84204864 -0.24115465
v 6.25982476 12.85770650 -0.17730348
v 6.44416716 12.91135480 -0.16480065
v 6.38240052 12.78536853 -0.29671505
v 6.36610925 13.10005824 -0.07711522
v 6.22761212 12.95321956 -0.11657741
v 6.41158595 13.00796071 -0.10337976
v 6.26452058 13.13489200 -0.07449217
v 6.32924793 12.92066356 -0.12684045
v 6.06035146 13.18104953 -0.16400334
v 6.11442306 12.98320188 -0.14874269
v 5.99737840 13.11767895 -0.22108638
v 6.15003643 13.16521737 -0.10702549
v 6.02952454 13.00005642 -0.21201376
v 6.18218257 13.04759485 -0.09795287
v 6.20114640 12.76358123 -0.42942473
v 6.16654420 12.82865850 -0.24699954
v 6.10281342 12.80505565 -0.41984856
v 6.28805266 12.75598816 -0.36720855
v 6.08224205 12.84374477 -0.31139485
v 6.26748129 12.79467729 -0.25875485
v 5.62276391 10.98499491 -0.25018399
v 5.51064861 11.19585312 0.34089571
v 5.39592040 10.33226214 -0.06035944
v 5.28380510 10.54312036 0.53072026
v 3.08119672 11.65822326 -0.97242889
v 2.96908142 11.86908147 -0.38134920
v 3.42288800 11.01559534 -0.67837008
v 3.22115177 10.90833029 -0.67837008
v 3.31077270 11.22645356 -0.08729038
v 3.10903647 11.11918851 -0.08729038
v 3.17018032 11.07740075 -0.29671505
v 2.79970183 11.17553572 -0.40199505
v 3.37374739 11.66315651 -0.46706167
v 3.00326889 11.76129149 -0.57234167
v 3.09577374 11.70164404 -0.20323287
v 2.96996238 11.33962707 -0.09795287
v 3.20348684 11.49906516 -0.77110385
v 3.07767547 11.13704819 -0.66582385
v 2.82028639 11.43613866 -0.69518346
v 2.75371603 11.56133929 -0.34421989
v 3.41973318 11.27735294 -0.52483683
v 3.35316283 11.40255357 -0.17387326
v 2.96707089 11.07504752 -0.33440113
v 3.20637833 11.76364472 -0.53465559
v 3.26075131 11.72858483 -0.31769888
v 3.04298952 11.78626712 -0.37958092
v 3.06714753 11.17149799 -0.15568962
v 2.84938573 11.22918028 -0.21757165
v 3.02341244 11.53841899 -0.10074217
v 3.32406348 11.60951195 -0.65148507
v 3.10630169 11.66719424 -0.71336710
v 3.13045970 11.05242512 -0.48947580
v 2.91269790 11.11010741 -0.55135784
v 3.15003678 11.30027324 -0.76831455
v 2.76140840 11.28590837 -0.56861498
v 2.88106211 11.63020697 -0.66874222
v 2.99874727 11.47607421 -0.78557169
v 2.92479721 11.26328597 -0.72368966
v 2.72227932 11.35949946 -0.36232377
v 2.84193304 11.70379806 -0.46245101
v 2.89630602 11.66873817 -0.24549430
v 2.82235596 11.45594993 -0.18361226
v 2.73437862 11.51267802 -0.53465559
v 3.33151617 11.13489418 -0.40660571
v 3.45116989 11.47919278 -0.50673295
v 3.35109325 11.38274230 -0.68544446
v 3.27714319 11.16995407 -0.62356242
v 3.29238710 11.20848526 -0.20031450
v 3.41204082 11.55278386 -0.30044174
v 3.24865201 11.57540626 -0.14536706
v 3.17470194 11.36261803 -0.08348503
v 3.43907059 11.32601421 -0.33440113
v 3.06790947 11.06264760 -0.31085071
v 2.87534074 11.11365658 -0.36557355
v 3.29810847 11.72503566 -0.50348317
v 3.10553974 11.77604463 -0.55820601
v 3.32637067 11.70681210 -0.39071258
v 3.18188447 11.72681729 -0.25357863
v 3.24112154 11.76293101 -0.42574747
v 3.02061288 11.78780339 -0.47760070
v 3.06869541 11.75679961 -0.28574391
v 3.12663739 11.79325639 -0.45828078
v 3.15522296 11.77482431 -0.34421989
v 3.11992769 11.11278100 -0.21795936
v 3.01585764 11.24908200 -0.11464599
v 3.01352664 11.10803616 -0.23529415
v 2.81416990 11.19377229 -0.30484748
v 2.90266858 11.27906432 -0.14681127
v 2.89904249 11.13836154 -0.26782746
v 2.95165590 11.18906855 -0.17387326
v 3.05851956 11.62797217 -0.14080804
v 2.99312484 11.43980160 -0.08608520
v 3.35927931 11.64491994 -0.56420924
v 3.27078063 11.55962791 -0.72224545
v 3.27440672 11.70033070 -0.60122925
v 3.05352153 11.72591124 -0.65109736
v 3.15759158 11.58961024 -0.75441073
v 3.15992257 11.73065607 -0.63376257
v 3.22179332 11.64962368 -0.69518346
v 3.15283633 11.05088885 -0.39145602
v 3.10475381 11.08189262 -0.58331281
v 3.04681182 11.04543585 -0.41077594
v 2.84707854 11.13188014 -0.47834414
v 2.99156475 11.11187494 -0.61547809
v 2.93232767 11.07576122 -0.44330925
v 3.01822625 11.06386792 -0.52483683
v 3.18032437 11.39889063 -0.78297152
v 3.11492966 11.21072007 -0.72824868
v 2.76844070 11.22325864 -0.48731413
v 2.77914023 11.35871583 -0.63970872
v 2.82420450 11.18661733 -0.56644276
v 2.93644564 11.70668585 -0.62790207
v 2.84133429 11.53767667 -0.69175324
v 2.98889372 11.66050370 -0.70425607
v 3.10168653 11.49026913 -0.79194150
v 2.90250513 11.45756095 -0.75247931
v 3.05076446 11.57947131 -0.76567696
v 3.07375736 11.38656952 -0.79456454
v 2.93234901 11.56002595 -0.74221627
v 2.99785377 11.19149468 -0.70505338
v 2.86406709 11.34695707 -0.72031403
v 2.91010308 11.17472403 -0.64797034
v 3.03487951 11.27470013 -0.76203123
v 2.83056548 11.26714807 -0.65704296
v 2.95534191 11.36712417 -0.77110385
v 2.74810204 11.26151009 -0.38008729
v 2.72419937 11.46204455 -0.35005670
v 2.77034795 11.28790677 -0.28250727
v 2.72409553 11.31773049 -0.46706167
v 2.91610698 11.74493731 -0.52067523
v 2.78639344 11.64100539 -0.40210122
v 2.93503717 11.76179314 -0.42032058
v 2.84990689 11.67974746 -0.57234167
v 2.99245170 11.69570997 -0.21604786
v 2.81465564 11.62278183 -0.28933063
v 2.96362274 11.74336106 -0.30625969
v 2.95333046 11.61305959 -0.15966549
v 2.85792109 11.70000451 -0.34982707
v 2.88861894 11.39693552 -0.12915973
v 2.77621759 11.51217795 -0.25716535
v 2.82296135 11.33861379 -0.18855307
v 2.91445261 11.50119020 -0.12713218
v 2.75613756 11.40712663 -0.26465376
v 2.84762881 11.56970304 -0.20323287
v 2.76509059 11.47658703 -0.62205718
v 2.73048839 11.54166429 -0.43963199
v 2.73045651 11.39826123 -0.55766187
v 2.79336219 11.57926972 -0.61030187
v 2.70988514 11.43695035 -0.44920816
v 2.77279082 11.61795884 -0.50184817
v 3.25734223 11.09375493 -0.34838149
v 3.38705578 11.19768684 -0.46695550
v 3.23841205 11.07689910 -0.44873614
v 3.42534717 11.57718214 -0.48896943
v 3.44924984 11.37664769 -0.51900002
v 3.40310126 11.55078546 -0.58654945
v 3.28483027 11.44175672 -0.73989699
v 3.39723163 11.32651429 -0.61189137
v 3.35048786 11.50007845 -0.68050365
v 3.25899661 11.33750204 -0.74192454
v 3.41731166 11.43156560 -0.60440296
v 3.18099751 11.14298227 -0.65300886
v 3.35879358 11.21591041 -0.57972609
v 3.20982648 11.09533117 -0.56279703
v 3.22011876 11.22563264 -0.70939123
v 3.31552812 11.13868772 -0.51922964
v 3.32582040 11.26898919 -0.66582385
v 3.23700358 11.13200639 -0.24115465
v 3.33211492 11.30101556 -0.17730348
v 3.18455550 11.17818854 -0.16480065
v 3.32354232 11.15894477 -0.29671505
v 3.40500851 11.61543360 -0.38174259
v 3.39430899 11.47997641 -0.22934800
v 3.34924471 11.65207490 -0.30261396
v 3.44935369 11.52096174 -0.40199505
v 3.17559544 11.64719755 -0.16400334
v 3.30938213 11.49173516 -0.14874269
v 3.26334613 11.66396820 -0.22108638
v 3.13856970 11.56399211 -0.10702549
v 3.34288373 11.57154417 -0.21201376
v 3.07176268 11.34842310 -0.07711522
v 3.27094408 11.38113128 -0.11657741
v 3.12268475 11.25922093 -0.10337976
v 3.09969185 11.45212271 -0.07449217
v 3.24110020 11.27866629 -0.12684045
v 3.21810730 11.47156807 -0.09795287
v 3.44296082 11.29702795 -0.42942473
v 3.40835863 11.36210521 -0.24699954
v 3.40065840 11.22073340 -0.36720855
v 3.46356408 11.40174188 -0.41984856
v 3.38008702 11.25942252 -0.25875485
v 3.44299271 11.44043101 -0.31139485
v 5.20766592 10.68631732 -0.22237084
v 5.09555062 10.89717554 0.36870886
v 5.87565519 10.50937558 -0.03254629
v 5.76353989 10.72023380 0.55853340
v 4.34457119 8.20279811 0.49987407
v 4.23245589 8.41365633 1.09095376
v 5.03766772 8.57132403 0.49987408
v 5.13712214 8.38427746 0.58546435
v 4.92555242 8.78218225 1.09095378
v 5.02500684 8.59513568 1.17654404
v 5.03295383 8.54264304 0.96084786
v 4.90714247 8.18062607 1.06612786
v 4.43350704 8.70142876 0.79050123
v 4.30769567 8.33941179 0.89578124
v 4.43122896 8.59138434 1.15961004
v 4.80170745 8.49324937 1.26489004
v 4.53894206 8.38880546 0.59173906
v 4.90942055 8.29067049 0.69701906
v 4.60182640 8.08554922 0.83800608
v 4.53525604 8.21074985 1.18896964
v 4.80539346 8.67130498 0.66765945
v 4.73882311 8.79650561 1.01862302
v 5.02267074 8.34769551 1.02844178
v 4.31797877 8.53435932 0.82818731
v 4.39058981 8.68246507 0.98326199
v 4.31663974 8.46967683 1.04514402
v 4.96069759 8.53145088 1.14527126
v 4.88674752 8.31866264 1.20715329
v 4.60701258 8.56010029 1.26210074
v 4.45390198 8.56339219 0.64947580
v 4.37995192 8.35060396 0.71135784
v 5.02400976 8.41237800 0.81148507
v 4.95005969 8.19958976 0.87336710
v 4.73363692 8.32195454 0.59452836
v 4.76926039 8.07902250 0.95623719
v 4.41691441 8.17235441 0.85610996
v 4.55283762 8.20138728 0.67739845
v 4.77059941 8.14370499 0.73928048
v 4.73013132 8.15261359 1.16252840
v 4.37778533 8.24594549 1.06240117
v 4.45039637 8.39405124 1.21747585
v 4.66815817 8.33636895 1.27935788
v 4.55067103 8.09672882 1.02844178
v 4.96286417 8.63610934 0.79422793
v 4.61051819 8.72944124 0.69410069
v 4.67249134 8.54568588 0.57727122
v 4.89025313 8.48800359 0.63915325
v 4.92373510 8.70970042 1.00051914
v 4.57138911 8.80303233 0.90039190
v 4.57005009 8.73834984 1.11734861
v 4.78781189 8.68066755 1.17923065
v 4.78997847 8.78532601 0.82818731
v 5.04195723 8.44533316 0.99726935
v 4.97656251 8.25716259 1.05199220
v 4.36408699 8.62489224 0.80463690
v 4.29869228 8.43672167 0.85935974
v 4.40182904 8.70187521 0.88524221
v 4.40064493 8.64467590 1.07709899
v 4.33802014 8.61702619 0.90456213
v 4.29799628 8.40310076 0.97213033
v 4.36220688 8.53407202 1.10926427
v 4.29914229 8.50515679 0.93709544
v 4.33731618 8.58302059 1.01862302
v 5.00974459 8.54084623 1.05799543
v 4.88954646 8.51517219 1.21603163
v 5.00822203 8.43949836 1.09501544
v 4.90591183 8.24207178 1.14488355
v 4.85110841 8.40456831 1.24819691
v 4.96934418 8.32762896 1.12754875
v 4.93676297 8.42423487 1.18896964
v 4.51313798 8.58107267 1.22203486
v 4.70570671 8.53006370 1.27675771
v 4.43473768 8.63998306 0.71174555
v 4.48954110 8.47748652 0.60843218
v 4.37130532 8.55442587 0.72908034
v 4.33090492 8.34120861 0.79863367
v 4.45110305 8.36688264 0.64059746
v 4.33242747 8.44255648 0.76161365
v 4.40388653 8.45781996 0.66765945
v 5.04265323 8.47895407 0.88449876
v 4.97844263 8.34798281 0.74736482
v 5.04150721 8.37689804 0.91953366
v 4.93882047 8.18017962 0.97138689
v 4.94000458 8.23737893 0.77953010
v 5.00262936 8.26502864 0.95206697
v 5.00333333 8.29903424 0.83800608
v 4.63494279 8.35199113 0.57987139
v 4.82751152 8.30098216 0.63459423
v 4.84484391 8.11751071 1.01446142
v 4.68614556 8.06809130 0.89588740
v 4.86940366 8.12377889 0.91410677
v 4.35011742 8.24855737 0.87387348
v 4.50300182 8.11660372 0.84384289
v 4.38444101 8.25223923 0.77629346
v 4.54096624 8.28932222 0.62294592
v 4.57365250 8.13169453 0.75095154
v 4.45590008 8.26750272 0.68233926
v 4.64184329 8.25244083 0.62091836
v 4.47533241 8.17379138 0.75843995
v 4.84672403 8.20833093 0.70983404
v 4.68684156 8.10171221 0.78311682
v 4.87010762 8.15778448 0.80004588
v 4.75632744 8.22211545 0.65345168
v 4.77505580 8.09439852 0.84361326
v 4.66127562 8.15872949 0.69701906
v 4.82450525 8.15576217 1.12168825
v 4.63120471 8.17142002 1.18553942
v 4.81554711 8.22506832 1.19804226
v 4.75378047 8.09908205 1.06612786
v 4.32977876 8.28680883 0.98110032
v 4.44806096 8.21993243 1.13349491
v 4.33058446 8.35352867 1.06022895
v 4.38330197 8.19721702 0.96084786
v 4.43173141 8.49476306 1.19883957
v 4.48580301 8.29691541 1.21410022
v 4.36875835 8.43139247 1.14175653
v 4.52141638 8.47893090 1.25581742
v 4.40090449 8.31376994 1.15082915
v 4.73748920 8.41377177 1.28572769
v 4.59899207 8.26693309 1.24626550
v 4.78296589 8.32167424 1.25946315
v 4.63590053 8.44860552 1.28835073
v 4.70062788 8.23437708 1.23600246
v 4.55356252 8.36130837 1.26489004
v 4.57252635 8.07729476 0.93341818
v 4.53792415 8.14237202 1.11584337
v 4.65943261 8.06970169 0.99563435
v 4.47419337 8.11876917 0.94299435
v 4.63886124 8.10839081 1.10408806
v 4.45362199 8.15745830 1.05144806
v 5.01087074 8.59524600 0.87552878
v 4.89258854 8.66212240 0.72313419
v 5.01006504 8.52852616 0.79640015
v 4.51614425 8.72629267 0.73494084
v 4.70944480 8.71063481 0.67108967
v 4.52510240 8.65698651 0.65858683
v 4.60316031 8.46828307 0.57090140
v 4.74165744 8.61512175 0.61036360
v 4.55768361 8.56038060 0.59716594
v 4.70474897 8.43344931 0.56827836
v 4.64002162 8.64767775 0.62062664
v 4.90891809 8.38729177 0.65778953
v 4.85484650 8.58513943 0.64252888
v 4.97189115 8.45066236 0.71487257
v 4.81923312 8.40312394 0.60081167
v 4.93974502 8.56828489 0.70579995
v 4.78708698 8.52074646 0.59173906
v 4.99053208 8.63349746 0.98275561
v 4.83764769 8.76545112 1.01278621
v 4.95620849 8.62981560 1.08033564
v 4.95734753 8.68483781 0.89578124
v 4.49580559 8.76454412 0.84216768
v 4.65450394 8.81396353 0.96074169
v 4.47124585 8.75827595 0.94252232
v 4.58686904 8.78297278 0.79050123
v 4.49392548 8.67372390 1.14679505
v 4.65380794 8.78034262 1.07351228
v 4.47054188 8.72427035 1.05658322
v 4.58432206 8.65993938 1.20317742
v 4.56559370 8.78765631 1.01301583
v 4.79968326 8.59273261 1.23368317
v 4.76699700 8.75036030 1.10567756
v 4.88474943 8.61455212 1.17428984
v 4.69880621 8.62961401 1.23571073
v 4.86531710 8.70826345 1.09818915
v 4.67937388 8.72332534 1.15961004
v 4.80272535 8.73968281 0.74078573
v 4.76812316 8.80476008 0.92321091
v 4.88702751 8.72459654 0.80518104
v 4.70178826 8.77366402 0.75254103
v 4.86645614 8.76328566 0.91363474
v 4.68121689 8.81235315 0.86099474
v 5.49379438 10.30633659 -0.03254629
v 5.38167908 10.51719480 0.55853340
v 5.72063789 10.95906935 -0.22237084
v 5.60852258 11.16992757 0.36870886
v 8.03536156 9.63310824 0.68969861
v 7.92324626 9.84396645 1.28077831
v 7.69367029 10.27573615 0.39563980
v 7.89540651 10.38300121 0.39563980
v 7.58155499 10.48659437 0.98671950
v 7.78329121 10.59385942 0.98671950
v 7.79908923 10.49094056 0.79050123
v 8.16956772 10.39280559 0.89578124
v 7.59552217 9.90518480 0.96084786
v 7.96600066 9.80704982 1.06612786
v 7.76578271 10.06927614 1.26489004
v 7.89159408 10.43129311 1.15961004
v 7.87349581 9.86669727 0.69701906
v 7.99930718 10.22871424 0.59173906
v 8.21555352 10.00700201 0.83800608
v 8.14898316 10.13220265 1.18896964
v 7.61610673 10.16578773 0.66765945
v 7.54953637 10.29098837 1.01862302
v 8.00219866 10.49329379 0.82818731
v 7.76289123 9.80469659 1.02844178
v 7.64520607 9.95882936 1.14527126
v 7.86296787 9.90114707 1.20715329
v 7.83880986 10.51591619 0.98326199
v 8.05657165 10.45823390 1.04514402
v 7.81923278 10.26806807 1.26210074
v 7.70851824 9.83975648 0.81148507
v 7.92628004 9.78207419 0.87336710
v 7.90212203 10.39684331 0.64947580
v 8.11988382 10.33916102 0.71135784
v 7.94585712 10.02992231 0.59452836
v 8.24699023 10.20884185 0.85610996
v 8.12733651 9.86454325 0.95623719
v 8.07296353 9.89960314 0.73928048
v 8.14691359 10.11239138 0.67739845
v 8.20786116 10.28243293 1.06240117
v 8.08820744 9.93813434 1.16252840
v 7.97052228 10.09226710 1.27935788
v 8.04447235 10.30505534 1.21747585
v 8.23489093 10.05566329 1.02844178
v 7.67688245 10.35985604 0.69410069
v 7.55722874 10.01555745 0.79422793
v 7.72061755 9.99293504 0.63915325
v 7.79456761 10.20572328 0.57727122
v 7.63775338 10.43344713 0.90039190
v 7.51809966 10.08914853 1.00051914
v 7.61817630 10.18559901 1.17923065
v 7.69212636 10.39838724 1.11734861
v 7.53019896 10.24232710 0.82818731
v 7.90136008 10.50569370 0.80463690
v 8.09392881 10.45468473 0.85935974
v 7.67116108 9.84330565 0.99726935
v 7.86372981 9.79229668 1.05199220
v 7.60999024 9.92342137 1.05799543
v 7.69848892 10.00871339 1.21603163
v 7.69486283 9.86801061 1.09501544
v 7.91574803 9.84243007 1.14488355
v 7.81167798 9.97873107 1.24819691
v 7.80934698 9.83768524 1.12754875
v 7.74747624 9.91871763 1.18896964
v 7.81643322 10.51745246 0.88524221
v 7.86451575 10.48644869 1.07709899
v 7.92245773 10.52290546 0.90456213
v 8.12219101 10.43646117 0.97213033
v 7.97770480 10.45646637 1.10926427
v 8.03694188 10.49258009 0.93709544
v 7.95104330 10.50447339 1.01862302
v 7.78894518 10.16945067 1.27675771
v 7.85433990 10.35762124 1.22203486
v 7.64289888 9.86152921 0.88449876
v 7.78738509 9.84152402 0.74736482
v 7.72814801 9.80541029 0.91953366
v 7.94865667 9.78053792 0.97138689
v 7.90057415 9.81154169 0.77953010
v 7.84263216 9.77508492 0.95206697
v 7.81404659 9.79351699 0.83800608
v 7.84934187 10.45556031 0.71174555
v 7.95341192 10.31925931 0.60843218
v 7.95574291 10.46030515 0.72908034
v 8.15509965 10.37456902 0.79863367
v 8.06660097 10.28927699 0.64059746
v 8.07022706 10.42997977 0.76161365
v 8.01761366 10.37927276 0.66765945
v 7.91075000 9.94036914 0.63459423
v 7.97614471 10.12853971 0.57987139
v 8.22116751 10.30683122 0.87387348
v 8.24507018 10.10629676 0.84384289
v 8.19892160 10.28043454 0.77629346
v 8.05316257 9.82340400 1.01446142
v 8.18287612 9.92733592 0.89588740
v 8.03423239 9.80654817 0.91410677
v 7.97681785 9.87263134 0.70983404
v 8.15461392 9.94555948 0.78311682
v 8.00564682 9.82498024 0.80004588
v 8.01593910 9.95528171 0.65345168
v 8.11134846 9.86833680 0.84361326
v 8.08065061 10.17140579 0.62294592
v 8.19305196 10.05616336 0.75095154
v 8.14630820 10.22972752 0.68233926
v 8.05481695 10.06715111 0.62091836
v 8.21313199 10.16121468 0.75843995
v 8.12164074 9.99863827 0.69701906
v 8.20082885 10.34508267 0.98110032
v 8.19012933 10.20962548 1.13349491
v 8.14506505 10.38172398 1.06022895
v 8.24517403 10.25061081 0.96084786
v 8.03282391 9.86165546 1.12168825
v 8.12793526 10.03066464 1.18553942
v 7.98037584 9.90783761 1.19804226
v 8.11936266 9.88859384 1.06612786
v 7.86758302 10.07807218 1.28572769
v 8.06676442 10.11078035 1.24626550
v 7.91850509 9.98887000 1.25946315
v 7.89551219 10.18177178 1.28835073
v 8.03692054 10.00831536 1.23600246
v 7.97141578 10.37684662 1.19883957
v 8.10520247 10.22138424 1.21410022
v 8.05916647 10.39361728 1.14175653
v 7.93439004 10.29364118 1.25581742
v 8.13870407 10.30119324 1.15082915
v 8.01392764 10.20121714 1.26489004
v 8.23878116 10.02667702 0.93341818
v 8.20417897 10.09175428 1.11584337
v 8.25938442 10.13139096 0.94299435
v 8.19647874 9.95038247 0.99563435
v 8.23881305 10.17008008 1.05144806
v 8.17590736 9.98907159 1.10408806
v 7.73226598 10.43633492 0.73494084
v 7.63715463 10.26732574 0.67108967
v 7.78471406 10.39015277 0.65858683
v 7.56426104 9.95290771 0.87552878
v 7.57496057 10.08836490 0.72313419
v 7.62002484 9.91626641 0.79640015
v 7.79367411 9.92114376 0.65778953
v 7.65988743 10.07660614 0.64252888
v 7.70592342 9.90437310 0.71487257
v 7.83069985 10.00434920 0.60081167
v 7.62638582 9.99679714 0.70579995
v 7.89750687 10.21991820 0.57090140
v 7.69832547 10.18721003 0.61036360
v 7.84658480 10.30912038 0.59716594
v 7.86957770 10.11621860 0.56827836
v 7.72816935 10.28967502 0.62062664
v 7.75116225 10.09677324 0.59173906
v 7.71192732 10.47458638 0.84216768
v 7.58221378 10.37065446 0.96074169
v 7.73085751 10.49144221 0.94252232
v 7.64572723 10.40939654 0.79050123
v 7.54392238 9.99115916 0.98275561
v 7.52001971 10.19169362 1.01278621
v 7.56616829 10.01755584 1.08033564
v 7.51991587 10.04737957 0.89578124
v 7.68443928 10.12658459 1.23368317
v 7.57203793 10.24182702 1.10567756
v 7.61878169 10.06826286 1.17428984
v 7.71027295 10.23083927 1.23571073
v 7.55195790 10.13677570 1.09818915
v 7.78827204 10.42535904 1.14679505
v 7.61047598 10.35243090 1.07351228
v 7.75944308 10.47301014 1.05658322
v 7.74915080 10.34270867 1.20317742
v 7.65374143 10.42965358 1.01301583
v 7.64344915 10.29935212 1.15961004
v 7.56091093 10.20623610 0.74078573
v 7.52630873 10.27131336 0.92321091
v 7.58918253 10.30891879 0.75254103
v 7.52627685 10.12791030 0.80518104
v 7.56861116 10.34760791 0.86099474
v 7.50570548 10.16659943 0.91363474
f 1 533 197
f 533 138 535
f 197 535 54
f 533 535 197
f 138 534 542
f 534 38 540
f 542 540 140
f 534 540 542
f 54 541 198
f 541 140 539
f 198 539 17
f 541 539 198
f 138 542 535
f 542 140 541
f 535 541 54
f 542 541 535
f 38 538 601
f 538 139 603
f 601 603 155
f 538 603 601
f 139 537 589
f 537 12 587
f 589 587 152
f 537 587 589
f 155 605 602
f 605 152 588
f 602 588 41
f 605 588 602
f 139 589 603
f 589 152 605
f 603 605 155
f 589 605 603
f 17 591 201
f 591 153 593
f 201 593 55
f 591 593 201
f 153 592 595
f 592 41 584
f 595 584 151
f 592 584 595
f 55 585 200
f 585 151 583
f 200 583 6
f 585 583 200
f 153 595 593
f 595 151 585
f 593 585 55
f 595 585 593
f 38 601 540
f 601 155 604
f 540 604 140
f 601 604 540
f 155 602 606
f 602 41 592
f 606 592 153
f 602 592 606
f 140 594 539
f 594 153 591
f 539 591 17
f 594 591 539
f 155 606 604
f 606 153 594
f 604 594 140
f 606 594 604
f 1 197 163
f 197 54 199
f 163 199 43
f 197 199 163
f 54 198 205
f 198 17 203
f 205 203 56
f 198 203 205
f 43 204 164
f 204 56 202
f 164 202 13
f 204 202 164
f 54 205 199
f 205 56 204
f 199 204 43
f 205 204 199
f 17 201 217
f 201 55 219
f 217 219 60
f 201 219 217
f 55 200 211
f 200 6 209
f 211 209 58
f 200 209 211
f 60 221 218
f 221 58 210
f 218 210 18
f 221 210 218
f 55 211 219
f 211 58 221
f 219 221 60
f 211 221 219
f 13 212 166
f 212 59 214
f 166 214 44
f 212 214 166
f 59 213 216
f 213 18 207
f 216 207 57
f 213 207 216
f 44 208 165
f 208 57 206
f 165 206 2
f 208 206 165
f 59 216 214
f 216 57 208
f 214 208 44
f 216 208 214
f 17 217 203
f 217 60 220
f 203 220 56
f 217 220 203
f 60 218 222
f 218 18 213
f 222 213 59
f 218 213 222
f 56 215 202
f 215 59 212
f 202 212 13
f 215 212 202
f 60 222 220
f 222 59 215
f 220 215 56
f 222 215 220
f 1 163 253
f 163 43 255
f 253 255 70
f 163 255 253
f 43 164 260
f 164 13 258
f 260 258 72
f 164 258 260
f 70 261 254
f 261 72 259
f 254 259 22
f 261 259 254
f 43 260 255
f 260 72 261
f 255 261 70
f 260 261 255
f 13 166 268
f 166 44 270
f 268 270 75
f 166 270 268
f 44 165 264
f 165 2 262
f 264 262 73
f 165 262 264
f 75 272 269
f 272 73 263
f 269 263 23
f 272 263 269
f 44 264 270
f 264 73 272
f 270 272 75
f 264 272 270
f 22 273 257
f 273 76 275
f 257 275 71
f 273 275 257
f 76 274 277
f 274 23 266
f 277 266 74
f 274 266 277
f 71 267 256
f 267 74 265
f 256 265 8
f 267 265 256
f 76 277 275
f 277 74 267
f 275 267 71
f 277 267 275
f 13 268 258
f 268 75 271
f 258 271 72
f 268 271 258
f 75 269 278
f 269 23 274
f 278 274 76
f 269 274 278
f 72 276 259
f 276 76 273
f 259 273 22
f 276 273 259
f 75 278 271
f 278 76 276
f 271 276 72
f 278 276 271
f 1 253 463
f 253 70 465
f 463 465 121
f 253 465 463
f 70 254 470
f 254 22 468
f 470 468 123
f 254 468 470
f 121 471 464
f 471 123 469
f 464 469 34
f 471 469 464
f 70 470 465
f 470 123 471
f 465 471 121
f 470 471 465
f 22 257 511
f 257 71 513
f 511 513 134
f 257 513 511
f 71 256 505
f 256 8 503
f 505 503 132
f 256 503 505
f 134 515 512
f 515 132 504
f 512 504 37
f 515 504 512
f 71 505 513
f 505 132 515
f 513 515 134
f 505 515 513
f 34 521 467
f 521 136 523
f 467 523 122
f 521 523 467
f 136 522 525
f 522 37 508
f 525 508 133
f 522 508 525
f 122 509 466
f 509 133 507
f 466 507 11
f 509 507 466
f 136 525 523
f 525 133 509
f 523 509 122
f 525 509 523
f 22 511 468
f 511 134 514
f 468 514 123
f 511 514 468
f 134 512 526
f 512 37 522
f 526 522 136
f 512 522 526
f 123 524 469
f 524 136 521
f 469 521 34
f 524 521 469
f 134 526 514
f 526 136 524
f 514 524 123
f 526 524 514
f 1 463 533
f 463 121 536
f 533 536 138
f 463 536 533
f 121 464 545
f 464 34 543
f 545 543 141
f 464 543 545
f 138 546 534
f 546 141 544
f 534 544 38
f 546 544 534
f 121 545 536
f 545 141 546
f 536 546 138
f 545 546 536
f 34 467 621
f 467 122 623
f 621 623 159
f 467 623 621
f 122 466 615
f 466 11 613
f 615 613 157
f 466 613 615
f 159 625 622
f 625 157 614
f 622 614 42
f 625 614 622
f 122 615 623
f 615 157 625
f 623 625 159
f 615 625 623
f 38 631 538
f 631 161 633
f 538 633 139
f 631 633 538
f 161 632 635
f 632 42 618
f 635 618 158
f 632 618 635
f 139 619 537
f 619 158 617
f 537 617 12
f 619 617 537
f 161 635 633
f 635 158 619
f 633 619 139
f 635 619 633
f 34 621 543
f 621 159 624
f 543 624 141
f 621 624 543
f 159 622 636
f 622 42 632
f 636 632 161
f 622 632 636
f 141 634 544
f 634 161 631
f 544 631 38
f 634 631 544
f 159 636 624
f 636 161 634
f 624 634 141
f 636 634 624
f 2 206 353
f 206 57 355
f 353 355 96
f 206 355 353
f 57 207 361
f 207 18 359
f 361 359 98
f 207 359 361
f 96 362 354
f 362 98 360
f 354 360 29
f 362 360 354
f 57 361 355
f 361 98 362
f 355 362 96
f 361 362 355
f 18 210 411
f 210 58 413
f 411 413 111
f 210 413 411
f 58 209 405
f 209 6 403
f 405 403 109
f 209 403 405
f 111 415 412
f 415 109 404
f 412 404 32
f 415 404 412
f 58 405 413
f 405 109 415
f 413 415 111
f 405 415 413
f 29 421 358
f 421 113 423
f 358 423 97
f 421 423 358
f 113 422 425
f 422 32 408
f 425 408 110
f 422 408 425
f 97 409 357
f 409 110 407
f 357 407 10
f 409 407 357
f 113 425 423
f 425 110 409
f 423 409 97
f 425 409 423
f 18 411 359
f 411 111 414
f 359 414 98
f 411 414 359
f 111 412 426
f 412 32 422
f 426 422 113
f 412 422 426
f 98 424 360
f 424 113 421
f 360 421 29
f 424 421 360
f 111 426 414
f 426 113 424
f 414 424 98
f 426 424 414
f 6 583 225
f 583 151 586
f 225 586 62
f 583 586 225
f 151 584 600
f 584 41 597
f 600 597 154
f 584 597 600
f 62 598 226
f 598 154 596
f 226 596 19
f 598 596 226
f 151 600 586
f 600 154 598
f 586 598 62
f 600 598 586
f 41 588 608
f 588 152 611
f 608 611 156
f 588 611 608
f 152 587 590
f 587 12 565
f 590 565 147
f 587 565 590
f 156 609 607
f 609 147 566
f 607 566 40
f 609 566 607
f 152 590 611
f 590 147 609
f 611 609 156
f 590 609 611
f 19 573 224
f 573 149 575
f 224 575 61
f 573 575 224
f 149 574 576
f 574 40 562
f 576 562 146
f 574 562 576
f 61 564 223
f 564 146 561
f 223 561 5
f 564 561 223
f 149 576 575
f 576 146 564
f 575 564 61
f 576 564 575
f 41 608 597
f 608 156 612
f 597 612 154
f 608 612 597
f 156 607 610
f 607 40 574
f 610 574 149
f 607 574 610
f 154 599 596
f 599 149 573
f 596 573 19
f 599 573 596
f 156 610 612
f 610 149 599
f 612 599 154
f 610 599 612
f 12 617 551
f 617 158 620
f 551 620 143
f 617 620 551
f 158 618 641
f 618 42 638
f 641 638 162
f 618 638 641
f 143 639 552
f 639 162 637
f 552 637 39
f 639 637 552
f 158 641 620
f 641 162 639
f 620 639 143
f 641 639 620
f 42 614 627
f 614 157 630
f 627 630 160
f 614 630 627
f 157 613 616
f 613 11 475
f 616 475 125
f 613 475 616
f 160 628 626
f 628 125 476
f 626 476 35
f 628 476 626
f 157 616 630
f 616 125 628
f 630 628 160
f 616 628 630
f 39 558 548
f 558 145 560
f 548 560 142
f 558 560 548
f 145 557 559
f 557 35 473
f 559 473 124
f 557 473 559
f 142 550 547
f 550 124 472
f 547 472 3
f 550 472 547
f 145 559 560
f 559 124 550
f 560 550 142
f 559 550 560
f 42 627 638
f 627 160 642
f 638 642 162
f 627 642 638
f 160 626 629
f 626 35 557
f 629 557 145
f 626 557 629
f 162 640 637
f 640 145 558
f 637 558 39
f 640 558 637
f 160 629 642
f 629 145 640
f 642 640 162
f 629 640 642
f 11 507 485
f 507 133 510
f 485 510 128
f 507 510 485
f 133 508 531
f 508 37 528
f 531 528 137
f 508 528 531
f 128 529 486
f 529 137 527
f 486 527 36
f 529 527 486
f 133 531 510
f 531 137 529
f 510 529 128
f 531 529 510
f 37 504 517
f 504 132 520
f 517 520 135
f 504 520 517
f 132 503 506
f 503 8 281
f 506 281 78
f 503 281 506
f 135 518 516
f 518 78 282
f 516 282 24
f 518 282 516
f 132 506 520
f 506 78 518
f 520 518 135
f 506 518 520
f 36 494 482
f 494 130 496
f 482 496 127
f 494 496 482
f 130 493 495
f 493 24 280
f 495 280 77
f 493 280 495
f 127 484 481
f 484 77 279
f 481 279 7
f 484 279 481
f 130 495 496
f 495 77 484
f 496 484 127
f 495 484 496
f 37 517 528
f 517 135 532
f 528 532 137
f 517 532 528
f 135 516 519
f 516 24 493
f 519 493 130
f 516 493 519
f 137 530 527
f 530 130 494
f 527 494 36
f 530 494 527
f 135 519 532
f 519 130 530
f 532 530 137
f 519 530 532
f 8 265 323
f 265 74 325
f 323 325 90
f 265 325 323
f 74 266 333
f 266 23 331
f 333 331 92
f 266 331 333
f 90 335 324
f 335 92 332
f 324 332 28
f 335 332 324
f 74 333 325
f 333 92 335
f 325 335 90
f 333 335 325
f 23 263 288
f 263 73 290
f 288 290 81
f 263 290 288
f 73 262 285
f 262 2 283
f 285 283 79
f 262 283 285
f 81 291 289
f 291 79 284
f 289 284 25
f 291 284 289
f 73 285 290
f 285 79 291
f 290 291 81
f 285 291 290
f 28 342 328
f 342 94 345
f 328 345 91
f 342 345 328
f 94 341 343
f 341 25 287
f 343 287 80
f 341 287 343
f 91 329 327
f 329 80 286
f 327 286 9
f 329 286 327
f 94 343 345
f 343 80 329
f 345 329 91
f 343 329 345
f 23 288 331
f 288 81 334
f 331 334 92
f 288 334 331
f 81 289 344
f 289 25 341
f 344 341 94
f 289 341 344
f 92 346 332
f 346 94 342
f 332 342 28
f 346 342 332
f 81 344 334
f 344 94 346
f 334 346 92
f 344 346 334
f 4 367 180
f 367 100 369
f 180 369 50
f 367 369 180
f 100 368 376
f 368 30 374
f 376 374 102
f 368 374 376
f 50 375 181
f 375 102 373
f 181 373 16
f 375 373 181
f 100 376 369
f 376 102 375
f 369 375 50
f 376 375 369
f 30 372 397
f 372 101 399
f 397 399 108
f 372 399 397
f 101 371 387
f 371 10 385
f 387 385 105
f 371 385 387
f 108 401 398
f 401 105 386
f 398 386 31
f 401 386 398
f 101 387 399
f 387 105 401
f 399 401 108
f 387 401 399
f 16 388 184
f 388 106 390
f 184 390 51
f 388 390 184
f 106 389 392
f 389 31 382
f 392 382 104
f 389 382 392
f 51 383 183
f 383 104 381
f 183 381 5
f 383 381 183
f 106 392 390
f 392 104 383
f 390 383 51
f 392 383 390
f 30 397 374
f 397 108 400
f 374 400 102
f 397 400 374
f 108 398 402
f 398 31 389
f 402 389 106
f 398 389 402
f 102 391 373
f 391 106 388
f 373 388 16
f 391 388 373
f 108 402 400
f 402 106 391
f 400 391 102
f 402 391 400
f 4 180 169
f 180 50 182
f 169 182 46
f 180 182 169
f 50 181 190
f 181 16 187
f 190 187 52
f 181 187 190
f 46 188 170
f 188 52 186
f 170 186 14
f 188 186 170
f 50 190 182
f 190 52 188
f 182 188 46
f 190 188 182
f 16 184 192
f 184 51 195
f 192 195 53
f 184 195 192
f 51 183 185
f 183 5 174
f 185 174 48
f 183 174 185
f 53 193 191
f 193 48 175
f 191 175 15
f 193 175 191
f 51 185 195
f 185 48 193
f 195 193 53
f 185 193 195
f 14 176 168
f 176 49 178
f 168 178 45
f 176 178 168
f 49 177 179
f 177 15 172
f 179 172 47
f 177 172 179
f 45 173 167
f 173 47 171
f 167 171 3
f 173 171 167
f 49 179 178
f 179 47 173
f 178 173 45
f 179 173 178
f 16 192 187
f 192 53 196
f 187 196 52
f 192 196 187
f 53 191 194
f 191 15 177
f 194 177 49
f 191 177 194
f 52 189 186
f 189 49 176
f 186 176 14
f 189 176 186
f 53 194 196
f 194 49 189
f 196 189 52
f 194 189 196
f 4 169 236
f 169 46 238
f 236 238 66
f 169 238 236
f 46 170 244
f 170 14 242
f 244 242 68
f 170 242 244
f 66 246 237
f 246 68 243
f 237 243 21
f 246 243 237
f 46 244 238
f 244 68 246
f 238 246 66
f 244 246 238
f 14 168 232
f 168 45 234
f 232 234 65
f 168 234 232
f 45 167 229
f 167 3 227
f 229 227 63
f 167 227 229
f 65 235 233
f 235 63 228
f 233 228 20
f 235 228 233
f 45 229 234
f 229 63 235
f 234 235 65
f 229 235 234
f 21 248 240
f 248 69 251
f 240 251 67
f 248 251 240
f 69 247 249
f 247 20 231
f 249 231 64
f 247 231 249
f 67 241 239
f 241 64 230
f 239 230 7
f 241 230 239
f 69 249 251
f 249 64 241
f 251 241 67
f 249 241 251
f 14 232 242
f 232 65 245
f 242 245 68
f 232 245 242
f 65 233 250
f 233 20 247
f 250 247 69
f 233 247 250
f 68 252 243
f 252 69 248
f 243 248 21
f 252 248 243
f 65 250 245
f 250 69 252
f 245 252 68
f 250 252 245
f 4 236 292
f 236 66 294
f 292 294 82
f 236 294 292
f 66 237 299
f 237 21 297
f 299 297 84
f 237 297 299
f 82 300 293
f 300 84 298
f 293 298 26
f 300 298 293
f 66 299 294
f 299 84 300
f 294 300 82
f 299 300 294
f 21 240 308
f 240 67 310
f 308 310 87
f 240 310 308
f 67 239 303
f 239 7 301
f 303 301 85
f 239 301 303
f 87 312 309
f 312 85 302
f 309 302 27
f 312 302 309
f 67 303 310
f 303 85 312
f 310 312 87
f 303 312 310
f 26 317 296
f 317 89 319
f 296 319 83
f 317 319 296
f 89 318 321
f 318 27 306
f 321 306 86
f 318 306 321
f 83 307 295
f 307 86 305
f 295 305 9
f 307 305 295
f 89 321 319
f 321 86 307
f 319 307 83
f 321 307 319
f 21 308 297
f 308 87 311
f 297 311 84
f 308 311 297
f 87 309 322
f 309 27 318
f 322 318 89
f 309 318 322
f 84 320 298
f 320 89 317
f 298 317 26
f 320 317 298
f 87 322 311
f 322 89 320
f 311 320 84
f 322 320 311
f 4 292 367
f 292 82 370
f 367 370 100
f 292 370 367
f 82 293 379
f 293 26 377
f 379 377 103
f 293 377 379
f 100 380 368
f 380 103 378
f 368 378 30
f 380 378 368
f 82 379 370
f 379 103 380
f 370 380 100
f 379 380 370
f 26 296 446
f 296 83 448
f 446 448 118
f 296 448 446
f 83 295 436
f 295 9 433
f 436 433 115
f 295 433 436
f 118 450 447
f 450 115 434
f 447 434 33
f 450 434 447
f 83 436 448
f 436 115 450
f 448 450 118
f 436 450 448
f 30 457 372
f 457 120 459
f 372 459 101
f 457 459 372
f 120 458 461
f 458 33 438
f 461 438 116
f 458 438 461
f 101 440 371
f 440 116 437
f 371 437 10
f 440 437 371
f 120 461 459
f 461 116 440
f 459 440 101
f 461 440 459
f 26 446 377
f 446 118 449
f 377 449 103
f 446 449 377
f 118 447 462
f 447 33 458
f 462 458 120
f 447 458 462
f 103 460 378
f 460 120 457
f 378 457 30
f 460 457 378
f 118 462 449
f 462 120 460
f 449 460 103
f 462 460 449
f 5 381 223
f 381 104 384
f 223 384 61
f 381 384 223
f 104 382 396
f 382 31 394
f 396 394 107
f 382 394 396
f 61 395 224
f 395 107 393
f 224 393 19
f 395 393 224
f 104 396 384
f 396 107 395
f 384 395 61
f 396 395 384
f 31 386 427
f 386 105 429
f 427 429 114
f 386 429 427
f 105 385 410
f 385 10 407
f 410 407 110
f 385 407 410
f 114 431 428
f 431 110 408
f 428 408 32
f 431 408 428
f 105 410 429
f 410 110 431
f 429 431 114
f 410 431 429
f 19 416 226
f 416 112 418
f 226 418 62
f 416 418 226
f 112 417 420
f 417 32 404
f 420 404 109
f 417 404 420
f 62 406 225
f 406 109 403
f 225 403 6
f 406 403 225
f 112 420 418
f 420 109 406
f 418 406 62
f 420 406 418
f 31 427 394
f 427 114 430
f 394 430 107
f 427 430 394
f 114 428 432
f 428 32 417
f 432 417 112
f 428 417 432
f 107 419 393
f 419 112 416
f 393 416 19
f 419 416 393
f 114 432 430
f 432 112 419
f 430 419 107
f 432 419 430
f 3 171 547
f 171 47 549
f 547 549 142
f 171 549 547
f 47 172 555
f 172 15 553
f 555 553 144
f 172 553 555
f 142 556 548
f 556 144 554
f 548 554 39
f 556 554 548
f 47 555 549
f 555 144 556
f 549 556 142
f 555 556 549
f 15 175 568
f 175 48 570
f 568 570 148
f 175 570 568
f 48 174 563
f 174 5 561
f 563 561 146
f 174 561 563
f 148 572 569
f 572 146 562
f 569 562 40
f 572 562 569
f 48 563 570
f 563 146 572
f 570 572 148
f 563 572 570
f 39 577 552
f 577 150 579
f 552 579 143
f 577 579 552
f 150 578 581
f 578 40 566
f 581 566 147
f 578 566 581
f 143 567 551
f 567 147 565
f 551 565 12
f 567 565 551
f 150 581 579
f 581 147 567
f 579 567 143
f 581 567 579
f 15 568 553
f 568 148 571
f 553 571 144
f 568 571 553
f 148 569 582
f 569 40 578
f 582 578 150
f 569 578 582
f 144 580 554
f 580 150 577
f 554 577 39
f 580 577 554
f 148 582 571
f 582 150 580
f 571 580 144
f 582 580 571
f 7 230 481
f 230 64 483
f 481 483 127
f 230 483 481
f 64 231 490
f 231 20 488
f 490 488 129
f 231 488 490
f 127 492 482
f 492 129 489
f 482 489 36
f 492 489 482
f 64 490 483
f 490 129 492
f 483 492 127
f 490 492 483
f 20 228 477
f 228 63 479
f 477 479 126
f 228 479 477
f 63 227 474
f 227 3 472
f 474 472 124
f 227 472 474
f 126 480 478
f 480 124 473
f 478 473 35
f 480 473 478
f 63 474 479
f 474 124 480
f 479 480 126
f 474 480 479
f 36 498 486
f 498 131 501
f 486 501 128
f 498 501 486
f 131 497 499
f 497 35 476
f 499 476 125
f 497 476 499
f 128 487 485
f 487 125 475
f 485 475 11
f 487 475 485
f 131 499 501
f 499 125 487
f 501 487 128
f 499 487 501
f 20 477 488
f 477 126 491
f 488 491 129
f 477 491 488
f 126 478 500
f 478 35 497
f 500 497 131
f 478 497 500
f 129 502 489
f 502 131 498
f 489 498 36
f 502 498 489
f 126 500 491
f 500 131 502
f 491 502 129
f 500 502 491
f 9 305 327
f 305 86 330
f 327 330 91
f 305 330 327
f 86 306 349
f 306 27 347
f 349 347 95
f 306 347 349
f 91 351 328
f 351 95 348
f 328 348 28
f 351 348 328
f 86 349 330
f 349 95 351
f 330 351 91
f 349 351 330
f 27 302 314
f 302 85 316
f 314 316 88
f 302 316 314
f 85 301 304
f 301 7 279
f 304 279 77
f 301 279 304
f 88 315 313
f 315 77 280
f 313 280 24
f 315 280 313
f 85 304 316
f 304 77 315
f 316 315 88
f 304 315 316
f 28 337 324
f 337 93 340
f 324 340 90
f 337 340 324
f 93 336 338
f 336 24 282
f 338 282 78
f 336 282 338
f 90 326 323
f 326 78 281
f 323 281 8
f 326 281 323
f 93 338 340
f 338 78 326
f 340 326 90
f 338 326 340
f 27 314 347
f 314 88 350
f 347 350 95
f 314 350 347
f 88 313 339
f 313 24 336
f 339 336 93
f 313 336 339
f 95 352 348
f 352 93 337
f 348 337 28
f 352 337 348
f 88 339 350
f 339 93 352
f 350 352 95
f 339 352 350
f 10 437 357
f 437 116 439
f 357 439 97
f 437 439 357
f 116 438 455
f 438 33 452
f 455 452 119
f 438 452 455
f 97 453 358
f 453 119 451
f 358 451 29
f 453 451 358
f 116 455 439
f 455 119 453
f 439 453 97
f 455 453 439
f 33 434 442
f 434 115 445
f 442 445 117
f 434 445 442
f 115 433 435
f 433 9 286
f 435 286 80
f 433 286 435
f 117 443 441
f 443 80 287
f 441 287 25
f 443 287 441
f 115 435 445
f 435 80 443
f 445 443 117
f 435 443 445
f 29 364 354
f 364 99 366
f 354 366 96
f 364 366 354
f 99 363 365
f 363 25 284
f 365 284 79
f 363 284 365
f 96 356 353
f 356 79 283
f 353 283 2
f 356 283 353
f 99 365 366
f 365 79 356
f 366 356 96
f 365 356 366
f 33 442 452
f 442 117 456
f 452 456 119
f 442 456 452
f 117 441 444
f 441 25 363
f 444 363 99
f 441 363 444
f 119 454 451
f 454 99 364
f 451 364 29
f 454 364 451
f 117 444 456
f 444 99 454
f 456 454 119
f 444 454 456
f 643 645 647
f 643 644 646
f 643 648 644
f 643 646 645
f 645 646 650
f 644 652 646
f 643 647 648
f 644 648 651
f 645 649 647
f 645 650 649
f 644 651 652
f 646 652 650
f 647 649 648
f 652 649 650
f 648 649 651
f 652 651 649
f 653 790 706
f 790 690 792
f 706 792 669
f 790 792 706
f 690 791 807
f 791 664 804
f 807 804 693
f 791 804 807
f 669 805 707
f 805 693 803
f 707 803 658
f 805 803 707
f 690 807 792
f 807 693 805
f 792 805 669
f 807 805 792
f 653 706 695
f 706 669 708
f 695 708 665
f 706 708 695
f 669 707 712
f 707 658 710
f 712 710 670
f 707 710 712
f 665 711 696
f 711 670 709
f 696 709 654
f 711 709 696
f 669 712 708
f 712 670 711
f 708 711 665
f 712 711 708
f 653 695 722
f 695 665 724
f 722 724 674
f 695 724 722
f 665 696 727
f 696 654 725
f 727 725 675
f 696 725 727
f 674 728 723
f 728 675 726
f 723 726 660
f 728 726 723
f 665 727 724
f 727 675 728
f 724 728 674
f 727 728 724
f 653 722 773
f 722 674 775
f 773 775 686
f 722 775 773
f 674 723 786
f 723 660 784
f 786 784 689
f 723 784 786
f 686 788 774
f 788 689 785
f 774 785 663
f 788 785 774
f 674 786 775
f 786 689 788
f 775 788 686
f 786 788 775
f 653 773 790
f 773 686 793
f 790 793 690
f 773 793 790
f 686 774 811
f 774 663 809
f 811 809 694
f 774 809 811
f 690 813 791
f 813 694 810
f 791 810 664
f 813 810 791
f 686 811 793
f 811 694 813
f 793 813 690
f 811 813 793
f 654 709 748
f 709 670 750
f 748 750 681
f 709 750 748
f 670 710 763
f 710 658 761
f 763 761 684
f 710 761 763
f 681 765 749
f 765 684 762
f 749 762 662
f 765 762 749
f 670 763 750
f 763 684 765
f 750 765 681
f 763 765 750
f 658 803 714
f 803 693 806
f 714 806 671
f 803 806 714
f 693 804 808
f 804 664 799
f 808 799 692
f 804 799 808
f 671 801 713
f 801 692 798
f 713 798 657
f 801 798 713
f 693 808 806
f 808 692 801
f 806 801 671
f 808 801 806
f 664 810 795
f 810 694 814
f 795 814 691
f 810 814 795
f 694 809 812
f 809 663 777
f 812 777 687
f 809 777 812
f 691 797 794
f 797 687 776
f 794 776 655
f 797 776 794
f 694 812 814
f 812 687 797
f 814 797 691
f 812 797 814
f 663 785 780
f 785 689 789
f 780 789 688
f 785 789 780
f 689 784 787
f 784 660 730
f 787 730 676
f 784 730 787
f 688 782 779
f 782 676 729
f 779 729 659
f 782 729 779
f 689 787 789
f 787 676 782
f 789 782 688
f 787 782 789
f 660 726 742
f 726 675 744
f 742 744 680
f 726 744 742
f 675 725 733
f 725 654 731
f 733 731 677
f 725 731 733
f 680 746 743
f 746 677 732
f 743 732 661
f 746 732 743
f 675 733 744
f 733 677 746
f 744 746 680
f 733 746 744
f 656 752 702
f 752 682 754
f 702 754 668
f 752 754 702
f 682 753 760
f 753 662 757
f 760 757 683
f 753 757 760
f 668 758 703
f 758 683 756
f 703 756 657
f 758 756 703
f 682 760 754
f 760 683 758
f 754 758 668
f 760 758 754
f 656 702 698
f 702 668 704
f 698 704 666
f 702 704 698
f 668 703 705
f 703 657 700
f 705 700 667
f 703 700 705
f 666 701 697
f 701 667 699
f 697 699 655
f 701 699 697
f 668 705 704
f 705 667 701
f 704 701 666
f 705 701 704
f 656 698 718
f 698 666 720
f 718 720 673
f 698 720 718
f 666 697 717
f 697 655 715
f 717 715 672
f 697 715 717
f 673 721 719
f 721 672 716
f 719 716 659
f 721 716 719
f 666 717 720
f 717 672 721
f 720 721 673
f 717 721 720
f 656 718 734
f 718 673 736
f 734 736 678
f 718 736 734
f 673 719 739
f 719 659 737
f 739 737 679
f 719 737 739
f 678 741 735
f 741 679 738
f 735 738 661
f 741 738 735
f 673 739 736
f 739 679 741
f 736 741 678
f 739 741 736
f 656 734 752
f 734 678 755
f 752 755 682
f 734 755 752
f 678 735 770
f 735 661 767
f 770 767 685
f 735 767 770
f 682 772 753
f 772 685 768
f 753 768 662
f 772 768 753
f 678 770 755
f 770 685 772
f 755 772 682
f 770 772 755
f 657 756 713
f 756 683 759
f 713 759 671
f 756 759 713
f 683 757 766
f 757 662 762
f 766 762 684
f 757 762 766
f 671 764 714
f 764 684 761
f 714 761 658
f 764 761 714
f 683 766 759
f 766 684 764
f 759 764 671
f 766 764 759
f 655 699 794
f 699 667 796
f 794 796 691
f 699 796 794
f 667 700 800
f 700 657 798
f 800 798 692
f 700 798 800
f 691 802 795
f 802 692 799
f 795 799 664
f 802 799 795
f 667 800 796
f 800 692 802
f 796 802 691
f 800 802 796
f 659 716 779
f 716 672 781
f 779 781 688
f 716 781 779
f 672 715 778
f 715 655 776
f 778 776 687
f 715 776 778
f 688 783 780
f 783 687 777
f 780 777 663
f 783 777 780
f 672 778 781
f 778 687 783
f 781 783 688
f 778 783 781
f 661 738 743
f 738 679 747
f 743 747 680
f 738 747 743
f 679 737 740
f 737 659 729
f 740 729 676
f 737 729 740
f 680 745 742
f 745 676 730
f 742 730 660
f 745 730 742
f 679 740 747
f 740 676 745
f 747 745 680
f 740 745 747
f 662 768 749
f 768 685 771
f 749 771 681
f 768 771 749
f 685 767 769
f 767 661 732
f 769 732 677
f 767 732 769
f 681 751 748
f 751 677 731
f 748 731 654
f 751 731 748
f 685 769 771
f 769 677 751
f 771 751 681
f 769 751 771
f 815 817 819
f 815 816 818
f 815 820 816
f 815 818 817
f 817 818 822
f 816 824 818
f 815 819 820
f 816 820 823
f 817 821 819
f 817 822 821
f 816 823 824
f 818 824 822
f 819 821 820
f 824 821 822
f 820 821 823
f 824 823 821
f 825 962 878
f 962 862 964
f 878 964 841
f 962 964 878
f 862 963 979
f 963 836 976
f 979 976 865
f 963 976 979
f 841 977 879
f 977 865 975
f 879 975 830
f 977 975 879
f 862 979 964
f 979 865 977
f 964 977 841
f 979 977 964
f 825 878 867
f 878 841 880
f 867 880 837
f 878 880 867
f 841 879 884
f 879 830 882
f 884 882 842
f 879 882 884
f 837 883 868
f 883 842 881
f 868 881 826
f 883 881 868
f 841 884 880
f 884 842 883
f 880 883 837
f 884 883 880
f 825 867 894
f 867 837 896
f 894 896 846
f 867 896 894
f 837 868 899
f 868 826 897
f 899 897 847
f 868 897 899
f 846 900 895
f 900 847 898
f 895 898 832
f 900 898 895
f 837 899 896
f 899 847 900
f 896 900 846
f 899 900 896
f 825 894 945
f 894 846 947
f 945 947 858
f 894 947 945
f 846 895 958
f 895 832 956
f 958 956 861
f 895 956 958
f 858 960 946
f 960 861 957
f 946 957 835
f 960 957 946
f 846 958 947
f 958 861 960
f 947 960 858
f 958 960 947
f 825 945 962
f 945 858 965
f 962 965 862
f 945 965 962
f 858 946 983
f 946 835 981
f 983 981 866
f 946 981 983
f 862 985 963
f 985 866 982
f 963 982 836
f 985 982 963
f 858 983 965
f 983 866 985
f 965 985 862
f 983 985 965
f 826 881 920
f 881 842 922
f 920 922 853
f 881 922 920
f 842 882 935
f 882 830 933
f 935 933 856
f 882 933 935
f 853 937 921
f 937 856 934
f 921 934 834
f 937 934 921
f 842 935 922
f 935 856 937
f 922 937 853
f 935 937 922
f 830 975 886
f 975 865 978
f 886 978 843
f 975 978 886
f 865 976 980
f 976 836 971
f 980 971 864
f 976 971 980
f 843 973 885
f 973 864 970
f 885 970 829
f 973 970 885
f 865 980 978
f 980 864 973
f 978 973 843
f 980 973 978
f 836 982 967
f 982 866 986
f 967 986 863
f 982 986 967
f 866 981 984
f 981 835 949
f 984 949 859
f 981 949 984
f 863 969 966
f 969 859 948
f 966 948 827
f 969 948 966
f 866 984 986
f 984 859 969
f 986 969 863
f 984 969 986
f 835 957 952
f 957 861 961
f 952 961 860
f 957 961 952
f 861 956 959
f 956 832 902
f 959 902 848
f 956 902 959
f 860 954 951
f 954 848 901
f 951 901 831
f 954 901 951
f 861 959 961
f 959 848 954
f 961 954 860
f 959 954 961
f 832 898 914
f 898 847 916
f 914 916 852
f 898 916 914
f 847 897 905
f 897 826 903
f 905 903 849
f 897 903 905
f 852 918 915
f 918 849 904
f 915 904 833
f 918 904 915
f 847 905 916
f 905 849 918
f 916 918 852
f 905 918 916
f 828 924 874
f 924 854 926
f 874 926 840
f 924 926 874
f 854 925 932
f 925 834 929
f 932 929 855
f 925 929 932
f 840 930 875
f 930 855 928
f 875 928 829
f 930 928 875
f 854 932 926
f 932 855 930
f 926 930 840
f 932 930 926
f 828 874 870
f 874 840 876
f 870 876 838
f 874 876 870
f 840 875 877
f 875 829 872
f 877 872 839
f 875 872 877
f 838 873 869
f 873 839 871
f 869 871 827
f 873 871 869
f 840 877 876
f 877 839 873
f 876 873 838
f 877 873 876
f 828 870 890
f 870 838 892
f 890 892 845
f 870 892 890
f 838 869 889
f 869 827 887
f 889 887 844
f 869 887 889
f 845 893 891
f 893 844 888
f 891 888 831
f 893 888 891
f 838 889 892
f 889 844 893
f 892 893 845
f 889 893 892
f 828 890 906
f 890 845 908
f 906 908 850
f 890 908 906
f 845 891 911
f 891 831 909
f 911 909 851
f 891 909 911
f 850 913 907
f 913 851 910
f 907 910 833
f 913 910 907
f 845 911 908
f 911 851 913
f 908 913 850
f 911 913 908
f 828 906 924
f 906 850 927
f 924 927 854
f 906 927 924
f 850 907 942
f 907 833 939
f 942 939 857
f 907 939 942
f 854 944 925
f 944 857 940
f 925 940 834
f 944 940 925
f 850 942 927
f 942 857 944
f 927 944 854
f 942 944 927
f 829 928 885
f 928 855 931
f 885 931 843
f 928 931 885
f 855 929 938
f 929 834 934
f 938 934 856
f 929 934 938
f 843 936 886
f 936 856 933
f 886 933 830
f 936 933 886
f 855 938 931
f 938 856 936
f 931 936 843
f 938 936 931
f 827 871 966
f 871 839 968
f 966 968 863
f 871 968 966
f 839 872 972
f 872 829 970
f 972 970 864
f 872 970 972
f 863 974 967
f 974 864 971
f 967 971 836
f 974 971 967
f 839 972 968
f 972 864 974
f 968 974 863
f 972 974 968
f 831 888 951
f 888 844 953
f 951 953 860
f 888 953 951
f 844 887 950
f 887 827 948
f 950 948 859
f 887 948 950
f 860 955 952
f 955 859 949
f 952 949 835
f 955 949 952
f 844 950 953
f 950 859 955
f 953 955 860
f 950 955 953
f 833 910 915
f 910 851 919
f 915 919 852
f 910 919 915
f 851 909 912
f 909 831 901
f 912 901 848
f 909 901 912
f 852 917 914
f 917 848 902
f 914 902 832
f 917 902 914
f 851 912 919
f 912 848 917
f 919 917 852
f 912 917 919
f 834 940 921
f 940 857 943
f 921 943 853
f 940 943 921
f 857 939 941
f 939 833 904
f 941 904 849
f 939 904 941
f 853 923 920
f 923 849 903
f 920 903 826
f 923 903 920
f 857 941 943
f 941 849 923
f 943 923 853
f 941 923 943
f 987 989 991
f 987 988 990
f 987 992 988
f 987 990 989
f 989 990 994
f 988 996 990
f 987 991 992
f 988 992 995
f 989 993 991
f 989 994 993
f 988 995 996
f 990 996 994
f 991 993 992
f 996 993 994
f 992 993 995
f 996 995 993
f 997 1134 1050
f 1134 1034 1136
f 1050 1136 1013
f 1134 1136 1050
f 1034 1135 1151
f 1135 1008 1148
f 1151 1148 1037
f 1135 1148 1151
f 1013 1149 1051
f 1149 1037 1147
f 1051 1147 1002
f 1149 1147 1051
f 1034 1151 1136
f 1151 1037 1149
f 1136 1149 1013
f 1151 1149 1136
f 997 1050 1039
f 1050 1013 1052
f 1039 1052 1009
f 1050 1052 1039
f 1013 1051 1056
f 1051 1002 1054
f 1056 1054 1014
f 1051 1054 1056
f 1009 1055 1040
f 1055 1014 1053
f 1040 1053 998
f 1055 1053 1040
f 1013 1056 1052
f 1056 1014 1055
f 1052 1055 1009
f 1056 1055 1052
f 997 1039 1066
f 1039 1009 1068
f 1066 1068 1018
f 1039 1068 1066
f 1009 1040 1071
f 1040 998 1069
f 1071 1069 1019
f 1040 1069 1071
f 1018 1072 1067
f 1072 1019 1070
f 1067 1070 1004
f 1072 1070 1067
f 1009 1071 1068
f 1071 1019 1072
f 1068 1072 1018
f 1071 1072 1068
f 997 1066 1117
f 1066 1018 1119
f 1117 1119 1030
f 1066 1119 1117
f 1018 1067 1130
f 1067 1004 1128
f 1130 1128 1033
f 1067 1128 1130
f 1030 1132 1118
f 1132 1033 1129
f 1118 1129 1007
f 1132 1129 1118
f 1018 1130 1119
f 1130 1033 1132
f 1119 1132 1030
f 1130 1132 1119
f 997 1117 1134
f 1117 1030 1137
f 1134 1137 1034
f 1117 1137 1134
f 1030 1118 1155
f 1118 1007 1153
f 1155 1153 1038
f 1118 1153 1155
f 1034 1157 1135
f 1157 1038 1154
f 1135 1154 1008
f 1157 1154 1135
f 1030 1155 1137
f 1155 1038 1157
f 1137 1157 1034
f 1155 1157 1137
f 998 1053 1092
f 1053 1014 1094
f 1092 1094 1025
f 1053 1094 1092
f 1014 1054 1107
f 1054 1002 1105
f 1107 1105 1028
f 1054 1105 1107
f 1025 1109 1093
f 1109 1028 1106
f 1093 1106 1006
f 1109 1106 1093
f 1014 1107 1094
f 1107 1028 1109
f 1094 1109 1025
f 1107 1109 1094
f 1002 1147 1058
f 1147 1037 1150
f 1058 1150 1015
f 1147 1150 1058
f 1037 1148 1152
f 1148 1008 1143
f 1152 1143 1036
f 1148 1143 1152
f 1015 1145 1057
f 1145 1036 1142
f 1057 1142 1001
f 1145 1142 1057
f 1037 1152 1150
f 1152 1036 1145
f 1150 1145 1015
f 1152 1145 1150
f 1008 1154 1139
f 1154 1038 1158
f 1139 1158 1035
f 1154 1158 1139
f 1038 1153 1156
f 1153 1007 1121
f 1156 1121 1031
f 1153 1121 1156
f 1035 1141 1138
f 1141 1031 1120
f 1138 1120 999
f 1141 1120 1138
f 1038 1156 1158
f 1156 1031 1141
f 1158 1141 1035
f 1156 1141 1158
f 1007 1129 1124
f 1129 1033 1133
f 1124 1133 1032
f 1129 1133 1124
f 1033 1128 1131
f 1128 1004 1074
f 1131 1074 1020
f 1128 1074 1131
f 1032 1126 1123
f 1126 1020 1073
f 1123 1073 1003
f 1126 1073 1123
f 1033 1131 1133
f 1131 1020 1126
f 1133 1126 1032
f 1131 1126 1133
f 1004 1070 1086
f 1070 1019 1088
f 1086 1088 1024
f 1070 1088 1086
f 1019 1069 1077
f 1069 998 1075
f 1077 1075 1021
f 1069 1075 1077
f 1024 1090 1087
f 1090 1021 1076
f 1087 1076 1005
f 1090 1076 1087
f 1019 1077 1088
f 1077 1021 1090
f 1088 1090 1024
f 1077 1090 1088
f 1000 1096 1046
f 1096 1026 1098
f 1046 1098 1012
f 1096 1098 1046
f 1026 1097 1104
f 1097 1006 1101
f 1104 1101 1027
f 1097 1101 1104
f 1012 1102 1047
f 1102 1027 1100
f 1047 1100 1001
f 1102 1100 1047
f 1026 1104 1098
f 1104 1027 1102
f 1098 1102 1012
f 1104 1102 1098
f 1000 1046 1042
f 1046 1012 1048
f 1042 1048 1010
f 1046 1048 1042
f 1012 1047 1049
f 1047 1001 1044
f 1049 1044 1011
f 1047 1044 1049
f 1010 1045 1041
f 1045 1011 1043
f 1041 1043 999
f 1045 1043 1041
f 1012 1049 1048
f 1049 1011 1045
f 1048 1045 1010
f 1049 1045 1048
f 1000 1042 1062
f 1042 1010 1064
f 1062 1064 1017
f 1042 1064 1062
f 1010 1041 1061
f 1041 999 1059
f 1061 1059 1016
f 1041 1059 1061
f 1017 1065 1063
f 1065 1016 1060
f 1063 1060 1003
f 1065 1060 1063
f 1010 1061 1064
f 1061 1016 1065
f 1064 1065 1017
f 1061 1065 1064
f 1000 1062 1078
f 1062 1017 1080
f 1078 1080 1022
f 1062 1080 1078
f 1017 1063 1083
f 1063 1003 1081
f 1083 1081 1023
f 1063 1081 1083
f 1022 1085 1079
f 1085 1023 1082
f 1079 1082 1005
f 1085 1082 1079
f 1017 1083 1080
f 1083 1023 1085
f 1080 1085 1022
f 1083 1085 1080
f 1000 1078 1096
f 1078 1022 1099
f 1096 1099 1026
f 1078 1099 1096
f 1022 1079 1114
f 1079 1005 1111
f 1114 1111 1029
f 1079 1111 1114
f 1026 1116 1097
f 1116 1029 1112
f 1097 1112 1006
f 1116 1112 1097
f 1022 1114 1099
f 1114 1029 1116
f 1099 1116 1026
f 1114 1116 1099
f 1001 1100 1057
f 1100 1027 1103
f 1057 1103 1015
f 1100 1103 1057
f 1027 1101 1110
f 1101 1006 1106
f 1110 1106 1028
f 1101 1106 1110
f 1015 1108 1058
f 1108 1028 1105
f 1058 1105 1002
f 1108 1105 1058
f 1027 1110 1103
f 1110 1028 1108
f 1103 1108 1015
f 1110 1108 1103
f 999 1043 1138
f 1043 1011 1140
f 1138 1140 1035
f 1043 1140 1138
f 1011 1044 1144
f 1044 1001 1142
f 1144 1142 1036
f 1044 1142 1144
f 1035 1146 1139
f 1146 1036 1143
f 1139 1143 1008
f 1146 1143 1139
f 1011 1144 1140
f 1144 1036 1146
f 1140 1146 1035
f 1144 1146 1140
f 1003 1060 1123
f 1060 1016 1125
f 1123 1125 1032
f 1060 1125 1123
f 1016 1059 1122
f 1059 999 1120
f 1122 1120 1031
f 1059 1120 1122
f 1032 1127 1124
f 1127 1031 1121
f 1124 1121 1007
f 1127 1121 1124
f 1016 1122 1125
f 1122 1031 1127
f 1125 1127 1032
f 1122 1127 1125
f 1005 1082 1087
f 1082 1023 1091
f 1087 1091 1024
f 1082 1091 1087
f 1023 1081 1084
f 1081 1003 1073
f 1084 1073 1020
f 1081 1073 1084
f 1024 1089 1086
f 1089 1020 1074
f 1086 1074 1004
f 1089 1074 1086
f 1023 1084 1091
f 1084 1020 1089
f 1091 1089 1024
f 1084 1089 1091
f 1006 1112 1093
f 1112 1029 1115
f 1093 1115 1025
f 1112 1115 1093
f 1029 1111 1113
f 1111 1005 1076
f 1113 1076 1021
f 1111 1076 1113
f 1025 1095 1092
f 1095 1021 1075
f 1092 1075 998
f 1095 1075 1092
f 1029 1113 1115
f 1113 1021 1095
f 1115 1095 1025
f 1113 1095 1115
f 1159 1161 1163
f 1159 1160 1162
f 1159 1164 1160
f 1159 1162 1161
f 1161 1162 1166
f 1160 1168 1162
f 1159 1163 1164
f 1160 1164 1167
f 1161 1165 1163
f 1161 1166 1165
f 1160 1167 1168
f 1162 1168 1166
f 1163 1165 1164
f 1168 1165 1166
f 1164 1165 1167
f 1168 1167 1165
f 1169 1306 1222
f 1306 1206 1308
f 1222 1308 1185
f 1306 1308 1222
f 1206 1307 1323
f 1307 1180 1320
f 1323 1320 1209
f 1307 1320 1323
f 1185 1321 1223
f 1321 1209 1319
f 1223 1319 1174
f 1321 1319 1223
f 1206 1323 1308
f 1323 1209 1321
f 1308 1321 1185
f 1323 1321 1308
f 1169 1222 1211
f 1222 1185 1224
f 1211 1224 1181
f 1222 1224 1211
f 1185 1223 1228
f 1223 1174 1226
f 1228 1226 1186
f 1223 1226 1228
f 1181 1227 1212
f 1227 1186 1225
f 1212 1225 1170
f 1227 1225 1212
f 1185 1228 1224
f 1228 1186 1227
f 1224 1227 1181
f 1228 1227 1224
f 1169 1211 1238
f 1211 1181 1240
f 1238 1240 1190
f 1211 1240 1238
f 1181 1212 1243
f 1212 1170 1241
f 1243 1241 1191
f 1212 1241 1243
f 1190 1244 1239
f 1244 1191 1242
f 1239 1242 1176
f 1244 1242 1239
f 1181 1243 1240
f 1243 1191 1244
f 1240 1244 1190
f 1243 1244 1240
f 1169 1238 1289
f 1238 1190 1291
f 1289 1291 1202
f 1238 1291 1289
f 1190 1239 1302
f 1239 1176 1300
f 1302 1300 1205
f 1239 1300 1302
f 1202 1304 1290
f 1304 1205 1301
f 1290 1301 1179
f 1304 1301 1290
f 1190 1302 1291
f 1302 1205 1304
f 1291 1304 1202
f 1302 1304 1291
f 1169 1289 1306
f 1289 1202 1309
f 1306 1309 1206
f 1289 1309 1306
f 1202 1290 1327
f 1290 1179 1325
f 1327 1325 1210
f 1290 1325 1327
f 1206 1329 1307
f 1329 1210 1326
f 1307 1326 1180
f 1329 1326 1307
f 1202 1327 1309
f 1327 1210 1329
f 1309 1329 1206
f 1327 1329 1309
f 1170 1225 1264
f 1225 1186 1266
f 1264 1266 1197
f 1225 1266 1264
f 1186 1226 1279
f 1226 1174 1277
f 1279 1277 1200
f 1226 1277 1279
f 1197 1281 1265
f 1281 1200 1278
f 1265 1278 1178
f 1281 1278 1265
f 1186 1279 1266
f 1279 1200 1281
f 1266 1281 1197
f 1279 1281 1266
f 1174 1319 1230
f 1319 1209 1322
f 1230 1322 1187
f 1319 1322 1230
f 1209 1320 1324
f 1320 1180 1315
f 1324 1315 1208
f 1320 1315 1324
f 1187 1317 1229
f 1317 1208 1314
f 1229 1314 1173
f 1317 1314 1229
f 1209 1324 1322
f 1324 1208 1317
f 1322 1317 1187
f 1324 1317 1322
f 1180 1326 1311
f 1326 1210 1330
f 1311 1330 1207
f 1326 1330 1311
f 1210 1325 1328
f 1325 1179 1293
f 1328 1293 1203
f 1325 1293 1328
f 1207 1313 1310
f 1313 1203 1292
f 1310 1292 1171
f 1313 1292 1310
f 1210 1328 1330
f 1328 1203 1313
f 1330 1313 1207
f 1328 1313 1330
f 1179 1301 1296
f 1301 1205 1305
f 1296 1305 1204
f 1301 1305 1296
f 1205 1300 1303
f 1300 1176 1246
f 1303 1246 1192
f 1300 1246 1303
f 1204 1298 1295
f 1298 1192 1245
f 1295 1245 1175
f 1298 1245 1295
f 1205 1303 1305
f 1303 1192 1298
f 1305 1298 1204
f 1303 1298 1305
f 1176 1242 1258
f 1242 1191 1260
f 1258 1260 1196
f 1242 1260 1258
f 1191 1241 1249
f 1241 1170 1247
f 1249 1247 1193
f 1241 1247 1249
f 1196 1262 1259
f 1262 1193 1248
f 1259 1248 1177
f 1262 1248 1259
f 1191 1249 1260
f 1249 1193 1262
f 1260 1262 1196
f 1249 1262 1260
f 1172 1268 1218
f 1268 1198 1270
f 1218 1270 1184
f 1268 1270 1218
f 1198 1269 1276
f 1269 1178 1273
f 1276 1273 1199
f 1269 1273 1276
f 1184 1274 1219
f 1274 1199 1272
f 1219 1272 1173
f 1274 1272 1219
f 1198 1276 1270
f 1276 1199 1274
f 1270 1274 1184
f 1276 1274 1270
f 1172 1218 1214
f 1218 1184 1220
f 1214 1220 1182
f 1218 1220 1214
f 1184 1219 1221
f 1219 1173 1216
f 1221 1216 1183
f 1219 1216 1221
f 1182 1217 1213
f 1217 1183 1215
f 1213 1215 1171
f 1217 1215 1213
f 1184 1221 1220
f 1221 1183 1217
f 1220 1217 1182
f 1221 1217 1220
f 1172 1214 1234
f 1214 1182 1236
f 1234 1236 1189
f 1214 1236 1234
f 1182 1213 1233
f 1213 1171 1231
f 1233 1231 1188
f 1213 1231 1233
f 1189 1237 1235
f 1237 1188 1232
f 1235 1232 1175
f 1237 1232 1235
f 1182 1233 1236
f 1233 1188 1237
f 1236 1237 1189
f 1233 1237 1236
f 1172 1234 1250
f 1234 1189 1252
f 1250 1252 1194
f 1234 1252 1250
f 1189 1235 1255
f 1235 1175 1253
f 1255 1253 1195
f 1235 1253 1255
f 1194 1257 1251
f 1257 1195 1254
f 1251 1254 1177
f 1257 1254 1251
f 1189 1255 1252
f 1255 1195 1257
f 1252 1257 1194
f 1255 1257 1252
f 1172 1250 1268
f 1250 1194 1271
f 1268 1271 1198
f 1250 1271 1268
f 1194 1251 1286
f 1251 1177 1283
f 1286 1283 1201
f 1251 1283 1286
f 1198 1288 1269
f 1288 1201 1284
f 1269 1284 1178
f 1288 1284 1269
f 1194 1286 1271
f 1286 1201 1288
f 1271 1288 1198
f 1286 1288 1271
f 1173 1272 1229
f 1272 1199 1275
f 1229 1275 1187
f 1272 1275 1229
f 1199 1273 1282
f 1273 1178 1278
f 1282 1278 1200
f 1273 1278 1282
f 1187 1280 1230
f 1280 1200 1277
f 1230 1277 1174
f 1280 1277 1230
f 1199 1282 1275
f 1282 1200 1280
f 1275 1280 1187
f 1282 1280 1275
f 1171 1215 1310
f 1215 1183 1312
f 1310 1312 1207
f 1215 1312 1310
f 1183 1216 1316
f 1216 1173 1314
f 1316 1314 1208
f 1216 1314 1316
f 1207 1318 1311
f 1318 1208 1315
f 1311 1315 1180
f 1318 1315 1311
f 1183 1316 1312
f 1316 1208 1318
f 1312 1318 1207
f 1316 1318 1312
f 1175 1232 1295
f 1232 1188 1297
f 1295 1297 1204
f 1232 1297 1295
f 1188 1231 1294
f 1231 1171 1292
f 1294 1292 1203
f 1231 1292 1294
f 1204 1299 1296
f 1299 1203 1293
f 1296 1293 1179
f 1299 1293 1296
f 1188 1294 1297
f 1294 1203 1299
f 1297 1299 1204
f 1294 1299 1297
f 1177 1254 1259
f 1254 1195 1263
f 1259 1263 1196
f 1254 1263 1259
f 1195 1253 1256
f 1253 1175 1245
f 1256 1245 1192
f 1253 1245 1256
f 1196 1261 1258
f 1261 1192 1246
f 1258 1246 1176
f 1261 1246 1258
f 1195 1256 1263
f 1256 1192 1261
f 1263 1261 1196
f 1256 1261 1263
f 1178 1284 1265
f 1284 1201 1287
f 1265 1287 1197
f 1284 1287 1265
f 1201 1283 1285
f 1283 1177 1248
f 1285 1248 1193
f 1283 1248 1285
f 1197 1267 1264
f 1267 1193 1247
f 1264 1247 1170
f 1267 1247 1264
f 1201 1285 1287
f 1285 1193 1267
f 1287 1267 1197
f 1285 1267 1287

