# https://github.com/mikedh/trimesh
v -0.55459078 17.13368632 -4.57600000
v 0.65459078 17.13368632 -4.57600000
v -0.55459078 15.66631368 -4.57600000
v 0.65459078 15.66631368 -4.57600000
v 0.05000000 15.94655692 -3.54883915
v 0.05000000 16.85344308 -3.54883915
v 0.05000000 15.94655692 -5.60316085
v 0.05000000 16.85344308 -5.60316085
v 1.02824843 16.40000000 -5.21082032
v 1.02824843 16.40000000 -3.94117968
v -0.92824843 16.40000000 -5.21082032
v -0.92824843 16.40000000 -3.94117968
v 0.05000000 17.26250000 -4.57600000
v 0.05000000 15.53750000 -4.57600000
v -0.30536954 15.70222284 -3.97225000
v 0.40536954 15.70222284 -3.97225000
v -0.30536954 17.09777716 -3.97225000
v 0.40536954 17.09777716 -3.97225000
v 0.05000000 16.40000000 -3.36850000
v -0.30536954 15.70222284 -5.17975000
v 0.40536954 15.70222284 -5.17975000
v -0.30536954 17.09777716 -5.17975000
v 0.40536954 17.09777716 -5.17975000
v 0.05000000 16.40000000 -5.78350000
v 0.98036954 16.83125000 -4.94913802
v 0.98036954 15.96875000 -4.94913802
v 0.62500000 16.13347284 -5.55288802
v 0.62500000 16.66652716 -5.55288802
v 0.98036954 16.83125000 -4.20286198
v 0.98036954 15.96875000 -4.20286198
v 0.62500000 16.13347284 -3.59911198
v 0.62500000 16.66652716 -3.59911198
v 1.20000000 16.40000000 -4.57600000
v -0.88036954 16.83125000 -4.94913802
v -0.88036954 15.96875000 -4.94913802
v -0.52500000 16.13347284 -5.55288802
v -0.52500000 16.66652716 -5.55288802
v -0.88036954 16.83125000 -4.20286198
v -0.88036954 15.96875000 -4.20286198
v -0.52500000 16.13347284 -3.59911198
v -0.52500000 16.66652716 -3.59911198
v -1.10000000 16.40000000 -4.57600000
v -0.26425651 17.22967183 -4.57600000
v 0.36425651 17.22967183 -4.57600000
v -0.26425651 15.57032817 -4.57600000
v 0.36425651 15.57032817 -4.57600000
v -0.44897185 15.65594844 -4.26218052
v -0.13471534 15.80161434 -3.72827892
v -0.13682883 15.57971375 -4.25858984
v 0.54897185 15.65594844 -4.26218052
v 0.23471534 15.80161434 -3.72827892
v 0.23682883 15.57971375 -4.25858984
v 0.05000000 15.66631368 -3.94117968
v -0.44897185 17.14405156 -4.26218052
v -0.13471534 16.99838566 -3.72827892
v -0.13682883 17.22028625 -4.25858984
v 0.54897185 17.14405156 -4.26218052
v 0.23471534 16.99838566 -3.72827892
v 0.23682883 17.22028625 -4.25858984
v 0.05000000 17.13368632 -3.94117968
v 0.05000000 16.16430762 -3.41445943
v 0.05000000 16.63569238 -3.41445943
v -0.44897185 15.65594844 -4.88981948
v -0.13471534 15.80161434 -5.42372108
v -0.13682883 15.57971375 -4.89341016
v 0.54897185 15.65594844 -4.88981948
v 0.23471534 15.80161434 -5.42372108
v 0.23682883 15.57971375 -4.89341016
v 0.05000000 15.66631368 -5.21082032
v -0.44897185 17.14405156 -4.88981948
v -0.13471534 16.99838566 -5.42372108
v -0.13682883 17.22028625 -4.89341016
v 0.54897185 17.14405156 -4.88981948
v 0.23471534 16.99838566 -5.42372108
v 0.23682883 17.22028625 -4.89341016
v 0.05000000 17.13368632 -5.21082032
v 0.05000000 16.16430762 -5.73754057
v 0.05000000 16.63569238 -5.73754057
v 0.84784755 17.00551506 -4.76995111
v 1.04206875 16.62415677 -5.09992044
v 0.72595304 16.99356470 -5.08958043
v 0.84784755 15.79448494 -4.76995111
v 1.04206875 16.17584323 -5.09992044
v 0.72595304 15.80643530 -5.08958043
v 0.34887570 16.02577111 -5.61767219
v 0.85735341 16.26146349 -5.41373993
v 0.53912421 15.89303522 -5.40699058
v 0.35229539 16.25987838 -5.72440074
v 0.84141960 16.03315684 -5.28575069
v 0.34887570 16.77422889 -5.61767219
v 0.85735341 16.53853651 -5.41373993
v 0.53912421 16.90696478 -5.40699058
v 0.35229539 16.54012162 -5.72440074
v 0.84141960 16.76684316 -5.28575069
v 0.65459078 16.40000000 -5.60316085
v 0.84784755 17.00551506 -4.38204889
v 1.04206875 16.62415677 -4.05207956
v 0.72595304 16.99356470 -4.06241957
v 1.02824843 16.85344308 -4.57600000
v 0.84784755 15.79448494 -4.38204889
v 1.04206875 16.17584323 -4.05207956
v 0.72595304 15.80643530 -4.06241957
v 1.02824843 15.94655692 -4.57600000
v 0.34887570 16.02577111 -3.53432781
v 0.85735341 16.26146349 -3.73826007
v 0.53912421 15.89303522 -3.74500942
v 0.35229539 16.25987838 -3.42759926
v 0.84141960 16.03315684 -3.86624931
v 0.34887570 16.77422889 -3.53432781
v 0.85735341 16.53853651 -3.73826007
v 0.53912421 16.90696478 -3.74500942
v 0.35229539 16.54012162 -3.42759926
v 0.84141960 16.76684316 -3.86624931
v 0.65459078 16.40000000 -3.54883915
v 1.15622911 16.40000000 -4.90596933
v 1.15622911 16.40000000 -4.24603067
v 1.14371499 16.62672154 -4.77217027
v 1.14371499 16.17327846 -4.77217027
v 1.14371499 16.62672154 -4.37982973
v 1.14371499 16.17327846 -4.37982973
v -0.74784755 17.00551506 -4.76995111
v -0.94206875 16.62415677 -5.09992044
v -0.62595304 16.99356470 -5.08958043
v -0.74784755 15.79448494 -4.76995111
v -0.94206875 16.17584323 -5.09992044
v -0.62595304 15.80643530 -5.08958043
v -0.24887570 16.02577111 -5.61767219
v -0.75735341 16.26146349 -5.41373993
v -0.43912421 15.89303522 -5.40699058
v -0.25229539 16.25987838 -5.72440074
v -0.74141960 16.03315684 -5.28575069
v -0.24887570 16.77422889 -5.61767219
v -0.75735341 16.53853651 -5.41373993
v -0.43912421 16.90696478 -5.40699058
v -0.25229539 16.54012162 -5.72440074
v -0.74141960 16.76684316 -5.28575069
v -0.55459078 16.40000000 -5.60316085
v -0.74784755 17.00551506 -4.38204889
v -0.94206875 16.62415677 -4.05207956
v -0.62595304 16.99356470 -4.06241957
v -0.92824843 16.85344308 -4.57600000
v -0.74784755 15.79448494 -4.38204889
v -0.94206875 16.17584323 -4.05207956
v -0.62595304 15.80643530 -4.06241957
v -0.92824843 15.94655692 -4.57600000
v -0.24887570 16.02577111 -3.53432781
v -0.75735341 16.26146349 -3.73826007
v -0.43912421 15.89303522 -3.74500942
v -0.25229539 16.25987838 -3.42759926
v -0.74141960 16.03315684 -3.86624931
v -0.24887570 16.77422889 -3.53432781
v -0.75735341 16.53853651 -3.73826007
v -0.43912421 16.90696478 -3.74500942
v -0.25229539 16.54012162 -3.42759926
v -0.74141960 16.76684316 -3.86624931
v -0.55459078 16.40000000 -3.54883915
v -1.05622911 16.40000000 -4.90596933
v -1.05622911 16.40000000 -4.24603067
v -1.04371499 16.62672154 -4.77217027
v -1.04371499 16.17327846 -4.77217027
v -1.04371499 16.62672154 -4.37982973
v -1.04371499 16.17327846 -4.37982973
v -0.41385865 17.18922495 -4.57600000
v -0.10864508 17.25425354 -4.57600000
v 0.51385865 17.18922495 -4.57600000
v 0.20864508 17.25425354 -4.57600000
v -0.41385865 15.61077505 -4.57600000
v -0.10864508 15.54574646 -4.57600000
v 0.51385865 15.61077505 -4.57600000
v 0.20864508 15.54574646 -4.57600000
v -0.50710789 15.65399845 -4.41757554
v -0.38129435 15.67212635 -4.11278642
v -0.36196311 15.60278728 -4.41702614
v -0.04324924 15.86900876 -3.62950953
v -0.22264927 15.74566239 -3.84325863
v -0.04457884 15.54811881 -4.41531664
v -0.22447847 15.63150687 -4.10967873
v -0.20313458 15.56648638 -4.41565308
v -0.29644771 15.60973940 -4.25712008
v 0.60710789 15.65399845 -4.41757554
v 0.48129435 15.67212635 -4.11278642
v 0.46196311 15.60278728 -4.41702614
v 0.14324924 15.86900876 -3.62950953
v 0.32264927 15.74566239 -3.84325863
v 0.05000000 15.79374269 -3.71712731
v 0.14457884 15.54811881 -4.41531664
v 0.32447847 15.63150687 -4.10967873
v 0.30313458 15.56648638 -4.41565308
v 0.05000000 15.56866966 -4.25431632
v 0.39644771 15.60973940 -4.25712008
v -0.12989963 15.67534657 -3.94899537
v 0.22989963 15.67534657 -3.94899537
v -0.04331313 15.72707373 -3.82706070
v -0.04467212 15.61255260 -4.09347449
v 0.14331313 15.72707373 -3.82706070
v 0.14467212 15.61255260 -4.09347449
v -0.50710789 17.14600155 -4.41757554
v -0.38129435 17.12787365 -4.11278642
v -0.36196311 17.19721272 -4.41702614
v -0.04324924 16.93099124 -3.62950953
v -0.22264927 17.05433761 -3.84325863
v -0.04457884 17.25188119 -4.41531664
v -0.22447847 17.16849313 -4.10967873
v -0.20313458 17.23351362 -4.41565308
v -0.29644771 17.19026060 -4.25712008
v 0.60710789 17.14600155 -4.41757554
v 0.48129435 17.12787365 -4.11278642
v 0.46196311 17.19721272 -4.41702614
v 0.14324924 16.93099124 -3.62950953
v 0.32264927 17.05433761 -3.84325863
v 0.05000000 17.00625731 -3.71712731
v 0.14457884 17.25188119 -4.41531664
v 0.32447847 17.16849313 -4.10967873
v 0.30313458 17.23351362 -4.41565308
v 0.05000000 17.23133034 -4.25431632
v 0.39644771 17.19026060 -4.25712008
v -0.12989963 17.12465343 -3.94899537
v 0.22989963 17.12465343 -3.94899537
v -0.04331313 17.07292627 -3.82706070
v -0.04467212 17.18744740 -4.09347449
v 0.14331313 17.07292627 -3.82706070
v 0.14467212 17.18744740 -4.09347449
v 0.05000000 16.05210601 -3.47108507
v 0.05000000 16.28101619 -3.38004505
v 0.05000000 16.74789399 -3.47108507
v 0.05000000 16.51898381 -3.38004505
v -0.50710789 15.65399845 -4.73442446
v -0.38129435 15.67212635 -5.03921358
v -0.36196311 15.60278728 -4.73497386
v -0.04324924 15.86900876 -5.52249047
v -0.22264927 15.74566239 -5.30874137
v -0.04457884 15.54811881 -4.73668336
v -0.22447847 15.63150687 -5.04232127
v -0.20313458 15.56648638 -4.73634692
v -0.29644771 15.60973940 -4.89487992
v 0.60710789 15.65399845 -4.73442446
v 0.48129435 15.67212635 -5.03921358
v 0.46196311 15.60278728 -4.73497386
v 0.14324924 15.86900876 -5.52249047
v 0.32264927 15.74566239 -5.30874137
v 0.05000000 15.79374269 -5.43487269
v 0.14457884 15.54811881 -4.73668336
v 0.32447847 15.63150687 -5.04232127
v 0.30313458 15.56648638 -4.73634692
v 0.05000000 15.56866966 -4.89768368
v 0.39644771 15.60973940 -4.89487992
v -0.12989963 15.67534657 -5.20300463
v 0.22989963 15.67534657 -5.20300463
v -0.04331313 15.72707373 -5.32493930
v -0.04467212 15.61255260 -5.05852551
v 0.14331313 15.72707373 -5.32493930
v 0.14467212 15.61255260 -5.05852551
v -0.50710789 17.14600155 -4.73442446
v -0.38129435 17.12787365 -5.03921358
v -0.36196311 17.19721272 -4.73497386
v -0.04324924 16.93099124 -5.52249047
v -0.22264927 17.05433761 -5.30874137
v -0.04457884 17.25188119 -4.73668336
v -0.22447847 17.16849313 -5.04232127
v -0.20313458 17.23351362 -4.73634692
v -0.29644771 17.19026060 -4.89487992
v 0.60710789 17.14600155 -4.73442446
v 0.48129435 17.12787365 -5.03921358
v 0.46196311 17.19721272 -4.73497386
v 0.14324924 16.93099124 -5.52249047
v 0.32264927 17.05433761 -5.30874137
v 0.05000000 17.00625731 -5.43487269
v 0.14457884 17.25188119 -4.73668336
v 0.32447847 17.16849313 -5.04232127
v 0.30313458 17.23351362 -4.73634692
v 0.05000000 17.23133034 -4.89768368
v 0.39644771 17.19026060 -4.89487992
v -0.12989963 17.12465343 -5.20300463
v 0.22989963 17.12465343 -5.20300463
v -0.04331313 17.07292627 -5.32493930
v -0.04467212 17.18744740 -5.05852551
v 0.14331313 17.07292627 -5.32493930
v 0.14467212 17.18744740 -5.05852551
v 0.05000000 16.05210601 -5.68091493
v 0.05000000 16.28101619 -5.77195495
v 0.05000000 16.74789399 -5.68091493
v 0.05000000 16.51898381 -5.77195495
v 0.75798832 17.07606462 -4.67391170
v 0.92245015 16.92338669 -4.86228174
v 0.70693941 17.08365996 -4.83322511
v 1.04466874 16.51316033 -5.16096328
v 1.02049820 16.73086684 -5.02885907
v 0.57208907 17.05371930 -5.14162904
v 0.86317280 16.91879457 -5.02488575
v 0.64353986 17.07572709 -4.99397977
v 0.79452368 17.00574224 -4.93342555
v 0.75798832 15.72393538 -4.67391170
v 0.92245015 15.87661331 -4.86228174
v 0.70693941 15.71634004 -4.83322511
v 1.04466874 16.28683967 -5.16096328
v 1.02049820 16.06913316 -5.02885907
v 0.57208907 15.74628070 -5.14162904
v 0.86317280 15.88120543 -5.02488575
v 0.64353986 15.72427291 -4.99397977
v 0.79452368 15.79425776 -4.93342555
v 0.20088044 15.98216908 -5.62040217
v 0.49115579 16.07652924 -5.59502311
v 0.29497630 15.90729544 -5.53312394
v 0.20140368 16.09102767 -5.69209781
v 0.95141950 16.33006307 -5.31938774
v 0.74784892 16.19551304 -5.49207265
v 0.96154661 16.21626778 -5.26578638
v 0.47751024 15.79012040 -5.30231240
v 0.58869433 16.00843319 -5.49120702
v 0.39040528 15.84160724 -5.42403914
v 0.64038176 15.84232665 -5.25733696
v 0.44807597 15.95484510 -5.52201793
v 0.20303177 16.32906587 -5.76863367
v 0.49411549 16.19414115 -5.65189038
v 0.20271135 16.21014906 -5.74291906
v 0.35369516 16.14016422 -5.68236484
v 0.92162573 15.99597925 -5.12419353
v 0.74172610 16.07936732 -5.42983144
v 0.95096945 16.10144302 -5.19921686
v 0.79356446 15.91333074 -5.19590085
v 0.85765632 16.14469604 -5.35774986
v 0.69889234 15.95721368 -5.35674268
v 0.20088044 16.81783092 -5.62040217
v 0.49115579 16.72347076 -5.59502311
v 0.29497630 16.89270456 -5.53312394
v 0.20140368 16.70897233 -5.69209781
v 0.95141950 16.46993693 -5.31938774
v 0.74784892 16.60448696 -5.49207265
v 0.96154661 16.58373222 -5.26578638
v 0.86797400 16.40000000 -5.42476024
v 0.47751024 17.00987960 -5.30231240
v 0.58869433 16.79156681 -5.49120702
v 0.39040528 16.95839276 -5.42403914
v 0.64038176 16.95767335 -5.25733696
v 0.44807597 16.84515490 -5.52201793
v 0.20303177 16.47093413 -5.76863367
v 0.49411549 16.60585885 -5.65189038
v 0.20271135 16.58985094 -5.74291906
v 0.35636541 16.40000000 -5.73986248
v 0.35369516 16.65983578 -5.68236484
v 0.92162573 16.80402075 -5.12419353
v 0.74172610 16.72063268 -5.42983144
v 0.95096945 16.69855698 -5.19921686
v 0.79356446 16.88666926 -5.19590085
v 0.85765632 16.65530396 -5.35774986
v 0.69889234 16.84278632 -5.35674268
v 0.64714726 16.26507527 -5.59051480
v 0.64714726 16.53492473 -5.59051480
v 0.76327552 16.33001515 -5.51809678
v 0.50954811 16.32899591 -5.67842636
v 0.76327552 16.46998485 -5.51809678
v 0.50954811 16.47100409 -5.67842636
v 0.75798832 17.07606462 -4.47808830
v 0.92245015 16.92338669 -4.28971826
v 0.70693941 17.08365996 -4.31877489
v 0.85834309 17.01348050 -4.57600000
v 1.04466874 16.51316033 -3.99103672
v 1.02049820 16.73086684 -4.12314093
v 0.57208907 17.05371930 -4.01037096
v 0.86317280 16.91879457 -4.12711425
v 0.64353986 17.07572709 -4.15802023
v 0.79452368 17.00574224 -4.21857445
v 1.01620457 16.84786045 -4.76489462
v 1.01620457 16.84786045 -4.38710538
v 0.94723503 16.93495664 -4.67397879
v 0.94723503 16.93495664 -4.47802121
v 0.75798832 15.72393538 -4.47808830
v 0.92245015 15.87661331 -4.28971826
v 0.70693941 15.71634004 -4.31877489
v 0.85834309 15.78651950 -4.57600000
v 1.04466874 16.28683967 -3.99103672
v 1.02049820 16.06913316 -4.12314093
v 0.57208907 15.74628070 -4.01037096
v 0.86317280 15.88120543 -4.12711425
v 0.64353986 15.72427291 -4.15802023
v 0.79452368 15.79425776 -4.21857445
v 1.01620457 15.95213955 -4.76489462
v 1.01620457 15.95213955 -4.38710538
v 0.94723503 15.86504336 -4.67397879
v 0.94723503 15.86504336 -4.47802121
v 0.20088044 15.98216908 -3.53159783
v 0.49115579 16.07652924 -3.55697689
v 0.29497630 15.90729544 -3.61887606
v 0.20140368 16.09102767 -3.45990219
v 0.95141950 16.33006307 -3.83261226
v 0.74784892 16.19551304 -3.65992735
v 0.96154661 16.21626778 -3.88621362
v 0.47751024 15.79012040 -3.84968760
v 0.58869433 16.00843319 -3.66079298
v 0.39040528 15.84160724 -3.72796086
v 0.64038176 15.84232665 -3.89466304
v 0.44807597 15.95484510 -3.62998207
v 0.20303177 16.32906587 -3.38336633
v 0.49411549 16.19414115 -3.50010962
v 0.20271135 16.21014906 -3.40908094
v 0.35369516 16.14016422 -3.46963516
v 0.92162573 15.99597925 -4.02780647
v 0.74172610 16.07936732 -3.72216856
v 0.95096945 16.10144302 -3.95278314
v 0.79356446 15.91333074 -3.95609915
v 0.85765632 16.14469604 -3.79425014
v 0.69889234 15.95721368 -3.79525732
v 0.20088044 16.81783092 -3.53159783
v 0.49115579 16.72347076 -3.55697689
v 0.29497630 16.89270456 -3.61887606
v 0.20140368 16.70897233 -3.45990219
v 0.95141950 16.46993693 -3.83261226
v 0.74784892 16.60448696 -3.65992735
v 0.96154661 16.58373222 -3.88621362
v 0.86797400 16.40000000 -3.72723976
v 0.47751024 17.00987960 -3.84968760
v 0.58869433 16.79156681 -3.66079298
v 0.39040528 16.95839276 -3.72796086
v 0.64038176 16.95767335 -3.89466304
v 0.44807597 16.84515490 -3.62998207
v 0.20303177 16.47093413 -3.38336633
v 0.49411549 16.60585885 -3.50010962
v 0.20271135 16.58985094 -3.40908094
v 0.35636541 16.40000000 -3.41213752
v 0.35369516 16.65983578 -3.46963516
v 0.92162573 16.80402075 -4.02780647
v 0.74172610 16.72063268 -3.72216856
v 0.95096945 16.69855698 -3.95278314
v 0.79356446 16.88666926 -3.95609915
v 0.85765632 16.65530396 -3.79425014
v 0.69889234 16.84278632 -3.79525732
v 0.64714726 16.26507527 -3.56148520
v 0.64714726 16.53492473 -3.56148520
v 0.76327552 16.33001515 -3.63390322
v 0.50954811 16.32899591 -3.47357364
v 0.76327552 16.46998485 -3.63390322
v 0.50954811 16.47100409 -3.47357364
v 1.10229993 16.40000000 -5.06305158
v 1.18900471 16.40000000 -4.74257733
v 1.11295029 16.51355276 -5.00856127
v 1.11295029 16.28644724 -5.00856127
v 1.10229993 16.40000000 -4.08894842
v 1.18900471 16.40000000 -4.40942267
v 1.11295029 16.51355276 -4.14343873
v 1.11295029 16.28644724 -4.14343873
v 1.07465750 16.73308662 -4.86420239
v 1.18584159 16.51477383 -4.67530778
v 1.10368080 16.62777137 -4.93977010
v 1.09992987 16.74466108 -4.67540572
v 1.16135149 16.51453351 -4.84179131
v 1.07465750 16.06691338 -4.86420239
v 1.18584159 16.28522617 -4.67530778
v 1.10368080 16.17222863 -4.93977010
v 1.09992987 16.05533892 -4.67540572
v 1.16135149 16.28546649 -4.84179131
v 1.07465750 16.73308662 -4.28779761
v 1.18584159 16.51477383 -4.47669222
v 1.10368080 16.62777137 -4.21222990
v 1.09992987 16.74466108 -4.47659428
v 1.16135149 16.51453351 -4.31020869
v 1.15844045 16.62977405 -4.57600000
v 1.07465750 16.06691338 -4.28779761
v 1.18584159 16.28522617 -4.47669222
v 1.10368080 16.17222863 -4.21222990
v 1.09992987 16.05533892 -4.47659428
v 1.16135149 16.28546649 -4.31020869
v 1.15844045 16.17022595 -4.57600000
v -0.65798832 17.07606462 -4.67391170
v -0.82245015 16.92338669 -4.86228174
v -0.60693941 17.08365996 -4.83322511
v -0.94466874 16.51316033 -5.16096328
v -0.92049820 16.73086684 -5.02885907
v -0.47208907 17.05371930 -5.14162904
v -0.76317280 16.91879457 -5.02488575
v -0.54353986 17.07572709 -4.99397977
v -0.69452368 17.00574224 -4.93342555
v -0.65798832 15.72393538 -4.67391170
v -0.82245015 15.87661331 -4.86228174
v -0.60693941 15.71634004 -4.83322511
v -0.94466874 16.28683967 -5.16096328
v -0.92049820 16.06913316 -5.02885907
v -0.47208907 15.74628070 -5.14162904
v -0.76317280 15.88120543 -5.02488575
v -0.54353986 15.72427291 -4.99397977
v -0.69452368 15.79425776 -4.93342555
v -0.10088044 15.98216908 -5.62040217
v -0.39115579 16.07652924 -5.59502311
v -0.19497630 15.90729544 -5.53312394
v -0.10140368 16.09102767 -5.69209781
v -0.85141950 16.33006307 -5.31938774
v -0.64784892 16.19551304 -5.49207265
v -0.86154661 16.21626778 -5.26578638
v -0.37751024 15.79012040 -5.30231240
v -0.48869433 16.00843319 -5.49120702
v -0.29040528 15.84160724 -5.42403914
v -0.54038176 15.84232665 -5.25733696
v -0.34807597 15.95484510 -5.52201793
v -0.10303177 16.32906587 -5.76863367
v -0.39411549 16.19414115 -5.65189038
v -0.10271135 16.21014906 -5.74291906
v -0.25369516 16.14016422 -5.68236484
v -0.82162573 15.99597925 -5.12419353
v -0.64172610 16.07936732 -5.42983144
v -0.85096945 16.10144302 -5.19921686
v -0.69356446 15.91333074 -5.19590085
v -0.75765632 16.14469604 -5.35774986
v -0.59889234 15.95721368 -5.35674268
v -0.10088044 16.81783092 -5.62040217
v -0.39115579 16.72347076 -5.59502311
v -0.19497630 16.89270456 -5.53312394
v -0.10140368 16.70897233 -5.69209781
v -0.85141950 16.46993693 -5.31938774
v -0.64784892 16.60448696 -5.49207265
v -0.86154661 16.58373222 -5.26578638
v -0.76797400 16.40000000 -5.42476024
v -0.37751024 17.00987960 -5.30231240
v -0.48869433 16.79156681 -5.49120702
v -0.29040528 16.95839276 -5.42403914
v -0.54038176 16.95767335 -5.25733696
v -0.34807597 16.84515490 -5.52201793
v -0.10303177 16.47093413 -5.76863367
v -0.39411549 16.60585885 -5.65189038
v -0.10271135 16.58985094 -5.74291906
v -0.25636541 16.40000000 -5.73986248
v -0.25369516 16.65983578 -5.68236484
v -0.82162573 16.80402075 -5.12419353
v -0.64172610 16.72063268 -5.42983144
v -0.85096945 16.69855698 -5.19921686
v -0.69356446 16.88666926 -5.19590085
v -0.75765632 16.65530396 -5.35774986
v -0.59889234 16.84278632 -5.35674268
v -0.54714726 16.26507527 -5.59051480
v -0.54714726 16.53492473 -5.59051480
v -0.66327552 16.33001515 -5.51809678
v -0.40954811 16.32899591 -5.67842636
v -0.66327552 16.46998485 -5.51809678
v -0.40954811 16.47100409 -5.67842636
v -0.65798832 17.07606462 -4.47808830
v -0.82245015 16.92338669 -4.28971826
v -0.60693941 17.08365996 -4.31877489
v -0.75834309 17.01348050 -4.57600000
v -0.94466874 16.51316033 -3.99103672
v -0.92049820 16.73086684 -4.12314093
v -0.47208907 17.05371930 -4.01037096
v -0.76317280 16.91879457 -4.12711425
v -0.54353986 17.07572709 -4.15802023
v -0.69452368 17.00574224 -4.21857445
v -0.91620457 16.84786045 -4.76489462
v -0.91620457 16.84786045 -4.38710538
v -0.84723503 16.93495664 -4.67397879
v -0.84723503 16.93495664 -4.47802121
v -0.65798832 15.72393538 -4.47808830
v -0.82245015 15.87661331 -4.28971826
v -0.60693941 15.71634004 -4.31877489
v -0.75834309 15.78651950 -4.57600000
v -0.94466874 16.28683967 -3.99103672
v -0.92049820 16.06913316 -4.12314093
v -0.47208907 15.74628070 -4.01037096
v -0.76317280 15.88120543 -4.12711425
v -0.54353986 15.72427291 -4.15802023
v -0.69452368 15.79425776 -4.21857445
v -0.91620457 15.95213955 -4.76489462
v -0.91620457 15.95213955 -4.38710538
v -0.84723503 15.86504336 -4.67397879
v -0.84723503 15.86504336 -4.47802121
v -0.10088044 15.98216908 -3.53159783
v -0.39115579 16.07652924 -3.55697689
v -0.19497630 15.90729544 -3.61887606
v -0.10140368 16.09102767 -3.45990219
v -0.85141950 16.33006307 -3.83261226
v -0.64784892 16.19551304 -3.65992735
v -0.86154661 16.21626778 -3.88621362
v -0.37751024 15.79012040 -3.84968760
v -0.48869433 16.00843319 -3.66079298
v -0.29040528 15.84160724 -3.72796086
v -0.54038176 15.84232665 -3.89466304
v -0.34807597 15.95484510 -3.62998207
v -0.10303177 16.32906587 -3.38336633
v -0.39411549 16.19414115 -3.50010962
v -0.10271135 16.21014906 -3.40908094
v -0.25369516 16.14016422 -3.46963516
v -0.82162573 15.99597925 -4.02780647
v -0.64172610 16.07936732 -3.72216856
v -0.85096945 16.10144302 -3.95278314
v -0.69356446 15.91333074 -3.95609915
v -0.75765632 16.14469604 -3.79425014
v -0.59889234 15.95721368 -3.79525732
v -0.10088044 16.81783092 -3.53159783
v -0.39115579 16.72347076 -3.55697689
v -0.19497630 16.89270456 -3.61887606
v -0.10140368 16.70897233 -3.45990219
v -0.85141950 16.46993693 -3.83261226
v -0.64784892 16.60448696 -3.65992735
v -0.86154661 16.58373222 -3.88621362
v -0.76797400 16.40000000 -3.72723976
v -0.37751024 17.00987960 -3.84968760
v -0.48869433 16.79156681 -3.66079298
v -0.29040528 16.95839276 -3.72796086
v -0.54038176 16.95767335 -3.89466304
v -0.34807597 16.84515490 -3.62998207
v -0.10303177 16.47093413 -3.38336633
v -0.39411549 16.60585885 -3.50010962
v -0.10271135 16.58985094 -3.40908094
v -0.25636541 16.40000000 -3.41213752
v -0.25369516 16.65983578 -3.46963516
v -0.82162573 16.80402075 -4.02780647
v -0.64172610 16.72063268 -3.72216856
v -0.85096945 16.69855698 -3.95278314
v -0.69356446 16.88666926 -3.95609915
v -0.75765632 16.65530396 -3.79425014
v -0.59889234 16.84278632 -3.79525732
v -0.54714726 16.26507527 -3.56148520
v -0.54714726 16.53492473 -3.56148520
v -0.66327552 16.33001515 -3.63390322
v -0.40954811 16.32899591 -3.47357364
v -0.66327552 16.46998485 -3.63390322
v -0.40954811 16.47100409 -3.47357364
v -1.00229993 16.40000000 -5.06305158
v -1.08900471 16.40000000 -4.74257733
v -1.01295029 16.51355276 -5.00856127
v -1.01295029 16.28644724 -5.00856127
v -1.00229993 16.40000000 -4.08894842
v -1.08900471 16.40000000 -4.40942267
v -1.01295029 16.51355276 -4.14343873
v -1.01295029 16.28644724 -4.14343873
v -0.97465750 16.73308662 -4.86420239
v -1.08584159 16.51477383 -4.67530778
v -1.00368080 16.62777137 -4.93977010
v -0.99992987 16.74466108 -4.67540572
v -1.06135149 16.51453351 -4.84179131
v -0.97465750 16.06691338 -4.86420239
v -1.08584159 16.28522617 -4.67530778
v -1.00368080 16.17222863 -4.93977010
v -0.99992987 16.05533892 -4.67540572
v -1.06135149 16.28546649 -4.84179131
v -0.97465750 16.73308662 -4.28779761
v -1.08584159 16.51477383 -4.47669222
v -1.00368080 16.62777137 -4.21222990
v -0.99992987 16.74466108 -4.47659428
v -1.06135149 16.51453351 -4.31020869
v -1.05844045 16.62977405 -4.57600000
v -0.97465750 16.06691338 -4.28779761
v -1.08584159 16.28522617 -4.47669222
v -1.00368080 16.17222863 -4.21222990
v -0.99992987 16.05533892 -4.47659428
v -1.06135149 16.28546649 -4.31020869
v -1.05844045 16.17022595 -4.57600000
f 1 533 197
f 533 138 535
f 197 535 54
f 533 535 197
f 138 534 542
f 534 38 540
f 542 540 140
f 534 540 542
f 54 541 198
f 541 140 539
f 198 539 17
f 541 539 198
f 138 542 535
f 542 140 541
f 535 541 54
f 542 541 535
f 38 538 601
f 538 139 603
f 601 603 155
f 538 603 601
f 139 537 589
f 537 12 587
f 589 587 152
f 537 587 589
f 155 605 602
f 605 152 588
f 602 588 41
f 605 588 602
f 139 589 603
f 589 152 605
f 603 605 155
f 589 605 603
f 17 591 201
f 591 153 593
f 201 593 55
f 591 593 201
f 153 592 595
f 592 41 584
f 595 584 151
f 592 584 595
f 55 585 200
f 585 151 583
f 200 583 6
f 585 583 200
f 153 595 593
f 595 151 585
f 593 585 55
f 595 585 593
f 38 601 540
f 601 155 604
f 540 604 140
f 601 604 540
f 155 602 606
f 602 41 592
f 606 592 153
f 602 592 606
f 140 594 539
f 594 153 591
f 539 591 17
f 594 591 539
f 155 606 604
f 606 153 594
f 604 594 140
f 606 594 604
f 1 197 163
f 197 54 199
f 163 199 43
f 197 199 163
f 54 198 205
f 198 17 203
f 205 203 56
f 198 203 205
f 43 204 164
f 204 56 202
f 164 202 13
f 204 202 164
f 54 205 199
f 205 56 204
f 199 204 43
f 205 204 199
f 17 201 217
f 201 55 219
f 217 219 60
f 201 219 217
f 55 200 211
f 200 6 209
f 211 209 58
f 200 209 211
f 60 221 218
f 221 58 210
f 218 210 18
f 221 210 218
f 55 211 219
f 211 58 221
f 219 221 60
f 211 221 219
f 13 212 166
f 212 59 214
f 166 214 44
f 212 214 166
f 59 213 216
f 213 18 207
f 216 207 57
f 213 207 216
f 44 208 165
f 208 57 206
f 165 206 2
f 208 206 165
f 59 216 214
f 216 57 208
f 214 208 44
f 216 208 214
f 17 217 203
f 217 60 220
f 203 220 56
f 217 220 203
f 60 218 222
f 218 18 213
f 222 213 59
f 218 213 222
f 56 215 202
f 215 59 212
f 202 212 13
f 215 212 202
f 60 222 220
f 222 59 215
f 220 215 56
f 222 215 220
f 1 163 253
f 163 43 255
f 253 255 70
f 163 255 253
f 43 164 260
f 164 13 258
f 260 258 72
f 164 258 260
f 70 261 254
f 261 72 259
f 254 259 22
f 261 259 254
f 43 260 255
f 260 72 261
f 255 261 70
f 260 261 255
f 13 166 268
f 166 44 270
f 268 270 75
f 166 270 268
f 44 165 264
f 165 2 262
f 264 262 73
f 165 262 264
f 75 272 269
f 272 73 263
f 269 263 23
f 272 263 269
f 44 264 270
f 264 73 272
f 270 272 75
f 264 272 270
f 22 273 257
f 273 76 275
f 257 275 71
f 273 275 257
f 76 274 277
f 274 23 266
f 277 266 74
f 274 266 277
f 71 267 256
f 267 74 265
f 256 265 8
f 267 265 256
f 76 277 275
f 277 74 267
f 275 267 71
f 277 267 275
f 13 268 258
f 268 75 271
f 258 271 72
f 268 271 258
f 75 269 278
f 269 23 274
f 278 274 76
f 269 274 278
f 72 276 259
f 276 76 273
f 259 273 22
f 276 273 259
f 75 278 271
f 278 76 276
f 271 276 72
f 278 276 271
f 1 253 463
f 253 70 465
f 463 465 121
f 253 465 463
f 70 254 470
f 254 22 468
f 470 468 123
f 254 468 470
f 121 471 464
f 471 123 469
f 464 469 34
f 471 469 464
f 70 470 465
f 470 123 471
f 465 471 121
f 470 471 465
f 22 257 511
f 257 71 513
f 511 513 134
f 257 513 511
f 71 256 505
f 256 8 503
f 505 503 132
f 256 503 505
f 134 515 512
f 515 132 504
f 512 504 37
f 515 504 512
f 71 505 513
f 505 132 515
f 513 515 134
f 505 515 513
f 34 521 467
f 521 136 523
f 467 523 122
f 521 523 467
f 136 522 525
f 522 37 508
f 525 508 133
f 522 508 525
f 122 509 466
f 509 133 507
f 466 507 11
f 509 507 466
f 136 525 523
f 525 133 509
f 523 509 122
f 525 509 523
f 22 511 468
f 511 134 514
f 468 514 123
f 511 514 468
f 134 512 526
f 512 37 522
f 526 522 136
f 512 522 526
f 123 524 469
f 524 136 521
f 469 521 34
f 524 521 469
f 134 526 514
f 526 136 524
f 514 524 123
f 526 524 514
f 1 463 533
f 463 121 536
f 533 536 138
f 463 536 533
f 121 464 545
f 464 34 543
f 545 543 141
f 464 543 545
f 138 546 534
f 546 141 544
f 534 544 38
f 546 544 534
f 121 545 536
f 545 141 546
f 536 546 138
f 545 546 536
f 34 467 621
f 467 122 623
f 621 623 159
f 467 623 621
f 122 466 615
f 466 11 613
f 615 613 157
f 466 613 615
f 159 625 622
f 625 157 614
f 622 614 42
f 625 614 622
f 122 615 623
f 615 157 625
f 623 625 159
f 615 625 623
f 38 631 538
f 631 161 633
f 538 633 139
f 631 633 538
f 161 632 635
f 632 42 618
f 635 618 158
f 632 618 635
f 139 619 537
f 619 158 617
f 537 617 12
f 619 617 537
f 161 635 633
f 635 158 619
f 633 619 139
f 635 619 633
f 34 621 543
f 621 159 624
f 543 624 141
f 621 624 543
f 159 622 636
f 622 42 632
f 636 632 161
f 622 632 636
f 141 634 544
f 634 161 631
f 544 631 38
f 634 631 544
f 159 636 624
f 636 161 634
f 624 634 141
f 636 634 624
f 2 206 353
f 206 57 355
f 353 355 96
f 206 355 353
f 57 207 361
f 207 18 359
f 361 359 98
f 207 359 361
f 96 362 354
f 362 98 360
f 354 360 29
f 362 360 354
f 57 361 355
f 361 98 362
f 355 362 96
f 361 362 355
f 18 210 411
f 210 58 413
f 411 413 111
f 210 413 411
f 58 209 405
f 209 6 403
f 405 403 109
f 209 403 405
f 111 415 412
f 415 109 404
f 412 404 32
f 415 404 412
f 58 405 413
f 405 109 415
f 413 415 111
f 405 415 413
f 29 421 358
f 421 113 423
f 358 423 97
f 421 423 358
f 113 422 425
f 422 32 408
f 425 408 110
f 422 408 425
f 97 409 357
f 409 110 407
f 357 407 10
f 409 407 357
f 113 425 423
f 425 110 409
f 423 409 97
f 425 409 423
f 18 411 359
f 411 111 414
f 359 414 98
f 411 414 359
f 111 412 426
f 412 32 422
f 426 422 113
f 412 422 426
f 98 424 360
f 424 113 421
f 360 421 29
f 424 421 360
f 111 426 414
f 426 113 424
f 414 424 98
f 426 424 414
f 6 583 225
f 583 151 586
f 225 586 62
f 583 586 225
f 151 584 600
f 584 41 597
f 600 597 154
f 584 597 600
f 62 598 226
f 598 154 596
f 226 596 19
f 598 596 226
f 151 600 586
f 600 154 598
f 586 598 62
f 600 598 586
f 41 588 608
f 588 152 611
f 608 611 156
f 588 611 608
f 152 587 590
f 587 12 565
f 590 565 147
f 587 565 590
f 156 609 607
f 609 147 566
f 607 566 40
f 609 566 607
f 152 590 611
f 590 147 609
f 611 609 156
f 590 609 611
f 19 573 224
f 573 149 575
f 224 575 61
f 573 575 224
f 149 574 576
f 574 40 562
f 576 562 146
f 574 562 576
f 61 564 223
f 564 146 561
f 223 561 5
f 564 561 223
f 149 576 575
f 576 146 564
f 575 564 61
f 576 564 575
f 41 608 597
f 608 156 612
f 597 612 154
f 608 612 597
f 156 607 610
f 607 40 574
f 610 574 149
f 607 574 610
f 154 599 596
f 599 149 573
f 596 573 19
f 599 573 596
f 156 610 612
f 610 149 599
f 612 599 154
f 610 599 612
f 12 617 551
f 617 158 620
f 551 620 143
f 617 620 551
f 158 618 641
f 618 42 638
f 641 638 162
f 618 638 641
f 143 639 552
f 639 162 637
f 552 637 39
f 639 637 552
f 158 641 620
f 641 162 639
f 620 639 143
f 641 639 620
f 42 614 627
f 614 157 630
f 627 630 160
f 614 630 627
f 157 613 616
f 613 11 475
f 616 475 125
f 613 475 616
f 160 628 626
f 628 125 476
f 626 476 35
f 628 476 626
f 157 616 630
f 616 125 628
f 630 628 160
f 616 628 630
f 39 558 548
f 558 145 560
f 548 560 142
f 558 560 548
f 145 557 559
f 557 35 473
f 559 473 124
f 557 473 559
f 142 550 547
f 550 124 472
f 547 472 3
f 550 472 547
f 145 559 560
f 559 124 550
f 560 550 142
f 559 550 560
f 42 627 638
f 627 160 642
f 638 642 162
f 627 642 638
f 160 626 629
f 626 35 557
f 629 557 145
f 626 557 629
f 162 640 637
f 640 145 558
f 637 558 39
f 640 558 637
f 160 629 642
f 629 145 640
f 642 640 162
f 629 640 642
f 11 507 485
f 507 133 510
f 485 510 128
f 507 510 485
f 133 508 531
f 508 37 528
f 531 528 137
f 508 528 531
f 128 529 486
f 529 137 527
f 486 527 36
f 529 527 486
f 133 531 510
f 531 137 529
f 510 529 128
f 531 529 510
f 37 504 517
f 504 132 520
f 517 520 135
f 504 520 517
f 132 503 506
f 503 8 281
f 506 281 78
f 503 281 506
f 135 518 516
f 518 78 282
f 516 282 24
f 518 282 516
f 132 506 520
f 506 78 518
f 520 518 135
f 506 518 520
f 36 494 482
f 494 130 496
f 482 496 127
f 494 496 482
f 130 493 495
f 493 24 280
f 495 280 77
f 493 280 495
f 127 484 481
f 484 77 279
f 481 279 7
f 484 279 481
f 130 495 496
f 495 77 484
f 496 484 127
f 495 484 496
f 37 517 528
f 517 135 532
f 528 532 137
f 517 532 528
f 135 516 519
f 516 24 493
f 519 493 130
f 516 493 519
f 137 530 527
f 530 130 494
f 527 494 36
f 530 494 527
f 135 519 532
f 519 130 530
f 532 530 137
f 519 530 532
f 8 265 323
f 265 74 325
f 323 325 90
f 265 325 323
f 74 266 333
f 266 23 331
f 333 331 92
f 266 331 333
f 90 335 324
f 335 92 332
f 324 332 28
f 335 332 324
f 74 333 325
f 333 92 335
f 325 335 90
f 333 335 325
f 23 263 288
f 263 73 290
f 288 290 81
f 263 290 288
f 73 262 285
f 262 2 283
f 285 283 79
f 262 283 285
f 81 291 289
f 291 79 284
f 289 284 25
f 291 284 289
f 73 285 290
f 285 79 291
f 290 291 81
f 285 291 290
f 28 342 328
f 342 94 345
f 328 345 91
f 342 345 328
f 94 341 343
f 341 25 287
f 343 287 80
f 341 287 343
f 91 329 327
f 329 80 286
f 327 286 9
f 329 286 327
f 94 343 345
f 343 80 329
f 345 329 91
f 343 329 345
f 23 288 331
f 288 81 334
f 331 334 92
f 288 334 331
f 81 289 344
f 289 25 341
f 344 341 94
f 289 341 344
f 92 346 332
f 346 94 342
f 332 342 28
f 346 342 332
f 81 344 334
f 344 94 346
f 334 346 92
f 344 346 334
f 4 367 180
f 367 100 369
f 180 369 50
f 367 369 180
f 100 368 376
f 368 30 374
f 376 374 102
f 368 374 376
f 50 375 181
f 375 102 373
f 181 373 16
f 375 373 181
f 100 376 369
f 376 102 375
f 369 375 50
f 376 375 369
f 30 372 397
f 372 101 399
f 397 399 108
f 372 399 397
f 101 371 387
f 371 10 385
f 387 385 105
f 371 385 387
f 108 401 398
f 401 105 386
f 398 386 31
f 401 386 398
f 101 387 399
f 387 105 401
f 399 401 108
f 387 401 399
f 16 388 184
f 388 106 390
f 184 390 51
f 388 390 184
f 106 389 392
f 389 31 382
f 392 382 104
f 389 382 392
f 51 383 183
f 383 104 381
f 183 381 5
f 383 381 183
f 106 392 390
f 392 104 383
f 390 383 51
f 392 383 390
f 30 397 374
f 397 108 400
f 374 400 102
f 397 400 374
f 108 398 402
f 398 31 389
f 402 389 106
f 398 389 402
f 102 391 373
f 391 106 388
f 373 388 16
f 391 388 373
f 108 402 400
f 402 106 391
f 400 391 102
f 402 391 400
f 4 180 169
f 180 50 182
f 169 182 46
f 180 182 169
f 50 181 190
f 181 16 187
f 190 187 52
f 181 187 190
f 46 188 170
f 188 52 186
f 170 186 14
f 188 186 170
f 50 190 182
f 190 52 188
f 182 188 46
f 190 188 182
f 16 184 192
f 184 51 195
f 192 195 53
f 184 195 192
f 51 183 185
f 183 5 174
f 185 174 48
f 183 174 185
f 53 193 191
f 193 48 175
f 191 175 15
f 193 175 191
f 51 185 195
f 185 48 193
f 195 193 53
f 185 193 195
f 14 176 168
f 176 49 178
f 168 178 45
f 176 178 168
f 49 177 179
f 177 15 172
f 179 172 47
f 177 172 179
f 45 173 167
f 173 47 171
f 167 171 3
f 173 171 167
f 49 179 178
f 179 47 173
f 178 173 45
f 179 173 178
f 16 192 187
f 192 53 196
f 187 196 52
f 192 196 187
f 53 191 194
f 191 15 177
f 194 177 49
f 191 177 194
f 52 189 186
f 189 49 176
f 186 176 14
f 189 176 186
f 53 194 196
f 194 49 189
f 196 189 52
f 194 189 196
f 4 169 236
f 169 46 238
f 236 238 66
f 169 238 236
f 46 170 244
f 170 14 242
f 244 242 68
f 170 242 244
f 66 246 237
f 246 68 243
f 237 243 21
f 246 243 237
f 46 244 238
f 244 68 246
f 238 246 66
f 244 246 238
f 14 168 232
f 168 45 234
f 232 234 65
f 168 234 232
f 45 167 229
f 167 3 227
f 229 227 63
f 167 227 229
f 65 235 233
f 235 63 228
f 233 228 20
f 235 228 233
f 45 229 234
f 229 63 235
f 234 235 65
f 229 235 234
f 21 248 240
f 248 69 251
f 240 251 67
f 248 251 240
f 69 247 249
f 247 20 231
f 249 231 64
f 247 231 249
f 67 241 239
f 241 64 230
f 239 230 7
f 241 230 239
f 69 249 251
f 249 64 241
f 251 241 67
f 249 241 251
f 14 232 242
f 232 65 245
f 242 245 68
f 232 245 242
f 65 233 250
f 233 20 247
f 250 247 69
f 233 247 250
f 68 252 243
f 252 69 248
f 243 248 21
f 252 248 243
f 65 250 245
f 250 69 252
f 245 252 68
f 250 252 245
f 4 236 292
f 236 66 294
f 292 294 82
f 236 294 292
f 66 237 299
f 237 21 297
f 299 297 84
f 237 297 299
f 82 300 293
f 300 84 298
f 293 298 26
f 300 298 293
f 66 299 294
f 299 84 300
f 294 300 82
f 299 300 294
f 21 240 308
f 240 67 310
f 308 310 87
f 240 310 308
f 67 239 303
f 239 7 301
f 303 301 85
f 239 301 303
f 87 312 309
f 312 85 302
f 309 302 27
f 312 302 309
f 67 303 310
f 303 85 312
f 310 312 87
f 303 312 310
f 26 317 296
f 317 89 319
f 296 319 83
f 317 319 296
f 89 318 321
f 318 27 306
f 321 306 86
f 318 306 321
f 83 307 295
f 307 86 305
f 295 305 9
f 307 305 295
f 89 321 319
f 321 86 307
f 319 307 83
f 321 307 319
f 21 308 297
f 308 87 311
f 297 311 84
f 308 311 297
f 87 309 322
f 309 27 318
f 322 318 89
f 309 318 322
f 84 320 298
f 320 89 317
f 298 317 26
f 320 317 298
f 87 322 311
f 322 89 320
f 311 320 84
f 322 320 311
f 4 292 367
f 292 82 370
f 367 370 100
f 292 370 367
f 82 293 379
f 293 26 377
f 379 377 103
f 293 377 379
f 100 380 368
f 380 103 378
f 368 378 30
f 380 378 368
f 82 379 370
f 379 103 380
f 370 380 100
f 379 380 370
f 26 296 446
f 296 83 448
f 446 448 118
f 296 448 446
f 83 295 436
f 295 9 433
f 436 433 115
f 295 433 436
f 118 450 447
f 450 115 434
f 447 434 33
f 450 434 447
f 83 436 448
f 436 115 450
f 448 450 118
f 436 450 448
f 30 457 372
f 457 120 459
f 372 459 101
f 457 459 372
f 120 458 461
f 458 33 438
f 461 438 116
f 458 438 461
f 101 440 371
f 440 116 437
f 371 437 10
f 440 437 371
f 120 461 459
f 461 116 440
f 459 440 101
f 461 440 459
f 26 446 377
f 446 118 449
f 377 449 103
f 446 449 377
f 118 447 462
f 447 33 458
f 462 458 120
f 447 458 462
f 103 460 378
f 460 120 457
f 378 457 30
f 460 457 378
f 118 462 449
f 462 120 460
f 449 460 103
f 462 460 449
f 5 381 223
f 381 104 384
f 223 384 61
f 381 384 223
f 104 382 396
f 382 31 394
f 396 394 107
f 382 394 396
f 61 395 224
f 395 107 393
f 224 393 19
f 395 393 224
f 104 396 384
f 396 107 395
f 384 395 61
f 396 395 384
f 31 386 427
f 386 105 429
f 427 429 114
f 386 429 427
f 105 385 410
f 385 10 407
f 410 407 110
f 385 407 410
f 114 431 428
f 431 110 408
f 428 408 32
f 431 408 428
f 105 410 429
f 410 110 431
f 429 431 114
f 410 431 429
f 19 416 226
f 416 112 418
f 226 418 62
f 416 418 226
f 112 417 420
f 417 32 404
f 420 404 109
f 417 404 420
f 62 406 225
f 406 109 403
f 225 403 6
f 406 403 225
f 112 420 418
f 420 109 406
f 418 406 62
f 420 406 418
f 31 427 394
f 427 114 430
f 394 430 107
f 427 430 394
f 114 428 432
f 428 32 417
f 432 417 112
f 428 417 432
f 107 419 393
f 419 112 416
f 393 416 19
f 419 416 393
f 114 432 430
f 432 112 419
f 430 419 107
f 432 419 430
f 3 171 547
f 171 47 549
f 547 549 142
f 171 549 547
f 47 172 555
f 172 15 553
f 555 553 144
f 172 553 555
f 142 556 548
f 556 144 554
f 548 554 39
f 556 554 548
f 47 555 549
f 555 144 556
f 549 556 142
f 555 556 549
f 15 175 568
f 175 48 570
f 568 570 148
f 175 570 568
f 48 174 563
f 174 5 561
f 563 561 146
f 174 561 563
f 148 572 569
f 572 146 562
f 569 562 40
f 572 562 569
f 48 563 570
f 563 146 572
f 570 572 148
f 563 572 570
f 39 577 552
f 577 150 579
f 552 579 143
f 577 579 552
f 150 578 581
f 578 40 566
f 581 566 147
f 578 566 581
f 143 567 551
f 567 147 565
f 551 565 12
f 567 565 551
f 150 581 579
f 581 147 567
f 579 567 143
f 581 567 579
f 15 568 553
f 568 148 571
f 553 571 144
f 568 571 553
f 148 569 582
f 569 40 578
f 582 578 150
f 569 578 582
f 144 580 554
f 580 150 577
f 554 577 39
f 580 577 554
f 148 582 571
f 582 150 580
f 571 580 144
f 582 580 571
f 7 230 481
f 230 64 483
f 481 483 127
f 230 483 481
f 64 231 490
f 231 20 488
f 490 488 129
f 231 488 490
f 127 492 482
f 492 129 489
f 482 489 36
f 492 489 482
f 64 490 483
f 490 129 492
f 483 492 127
f 490 492 483
f 20 228 477
f 228 63 479
f 477 479 126
f 228 479 477
f 63 227 474
f 227 3 472
f 474 472 124
f 227 472 474
f 126 480 478
f 480 124 473
f 478 473 35
f 480 473 478
f 63 474 479
f 474 124 480
f 479 480 126
f 474 480 479
f 36 498 486
f 498 131 501
f 486 501 128
f 498 501 486
f 131 497 499
f 497 35 476
f 499 476 125
f 497 476 499
f 128 487 485
f 487 125 475
f 485 475 11
f 487 475 485
f 131 499 501
f 499 125 487
f 501 487 128
f 499 487 501
f 20 477 488
f 477 126 491
f 488 491 129
f 477 491 488
f 126 478 500
f 478 35 497
f 500 497 131
f 478 497 500
f 129 502 489
f 502 131 498
f 489 498 36
f 502 498 489
f 126 500 491
f 500 131 502
f 491 502 129
f 500 502 491
f 9 305 327
f 305 86 330
f 327 330 91
f 305 330 327
f 86 306 349
f 306 27 347
f 349 347 95
f 306 347 349
f 91 351 328
f 351 95 348
f 328 348 28
f 351 348 328
f 86 349 330
f 349 95 351
f 330 351 91
f 349 351 330
f 27 302 314
f 302 85 316
f 314 316 88
f 302 316 314
f 85 301 304
f 301 7 279
f 304 279 77
f 301 279 304
f 88 315 313
f 315 77 280
f 313 280 24
f 315 280 313
f 85 304 316
f 304 77 315
f 316 315 88
f 304 315 316
f 28 337 324
f 337 93 340
f 324 340 90
f 337 340 324
f 93 336 338
f 336 24 282
f 338 282 78
f 336 282 338
f 90 326 323
f 326 78 281
f 323 281 8
f 326 281 323
f 93 338 340
f 338 78 326
f 340 326 90
f 338 326 340
f 27 314 347
f 314 88 350
f 347 350 95
f 314 350 347
f 88 313 339
f 313 24 336
f 339 336 93
f 313 336 339
f 95 352 348
f 352 93 337
f 348 337 28
f 352 337 348
f 88 339 350
f 339 93 352
f 350 352 95
f 339 352 350
f 10 437 357
f 437 116 439
f 357 439 97
f 437 439 357
f 116 438 455
f 438 33 452
f 455 452 119
f 438 452 455
f 97 453 358
f 453 119 451
f 358 451 29
f 453 451 358
f 116 455 439
f 455 119 453
f 439 453 97
f 455 453 439
f 33 434 442
f 434 115 445
f 442 445 117
f 434 445 442
f 115 433 435
f 433 9 286
f 435 286 80
f 433 286 435
f 117 443 441
f 443 80 287
f 441 287 25
f 443 287 441
f 115 435 445
f 435 80 443
f 445 443 117
f 435 443 445
f 29 364 354
f 364 99 366
f 354 366 96
f 364 366 354
f 99 363 365
f 363 25 284
f 365 284 79
f 363 284 365
f 96 356 353
f 356 79 283
f 353 283 2
f 356 283 353
f 99 365 366
f 365 79 356
f 366 356 96
f 365 356 366
f 33 442 452
f 442 117 456
f 452 456 119
f 442 456 452
f 117 441 444
f 441 25 363
f 444 363 99
f 441 363 444
f 119 454 451
f 454 99 364
f 451 364 29
f 454 364 451
f 117 444 456
f 444 99 454
f 456 454 119
f 444 454 456

