# https://github.com/mikedh/trimesh
v -3.86505222 12.30000019 -3.17196631
v -4.15734816 12.30000019 -2.77785110
v -3.17196631 12.30000019 -3.86505222
v -2.77785110 12.30000019 -4.15734816
v -3.53553391 12.30000019 -3.53553391
v -2.85999990 12.30000019 -2.65033317
v -4.40960646 12.30000019 -2.35698366
v -4.61939764 12.30000019 -1.91341722
v -4.78470182 12.30000019 -1.45142341
v -4.90392637 12.30000019 -0.97545159
v -4.97592354 12.30000019 -0.49008569
v -3.11999989 12.30000019 -2.20000005
v -2.85999990 12.30000019 -1.74966681
v -2.57999992 12.30000019 -1.55033326
v -2.83999991 12.30000019 -1.10000002
v -2.57999992 12.30000019 -0.64966679
v -2.85999990 12.30000019 -0.45033321
v -2.35698366 12.30000019 -4.40960646
v -1.91341722 12.30000019 -4.61939764
v -1.45142341 12.30000019 -4.78470182
v -2.33999991 12.30000019 -2.65033317
v -1.82000005 12.30000019 -2.65033317
v -1.29999995 12.30000019 -2.65033317
v -0.97545159 12.30000019 -4.90392637
v -0.49008569 12.30000019 -4.97592354
v -0.00000000 12.30000019 -5.00000000
v -0.77999997 12.30000019 -2.65033317
v -0.25999999 12.30000019 -2.65033317
v -2.07999992 12.30000019 -2.20000005
v -2.07999992 12.30000019 -2.20000005
v -2.33999991 12.30000019 -1.74966681
v -2.05999994 12.30000019 -1.55033326
v -1.82000005 12.30000019 -1.74966681
v -1.29999995 12.30000019 -1.74966681
v -1.27999997 12.30000019 -1.55033326
v -2.05999994 12.30000019 -0.64966679
v -2.33999991 12.30000019 -0.45033321
v -1.79999995 12.30000019 -1.10000002
v -1.53999996 12.30000019 -1.10000002
v -1.27999997 12.30000019 -0.64966679
v -1.82000005 12.30000019 -0.45033321
v -1.29999995 12.30000019 -0.45033321
v -1.03999996 12.30000019 -2.20000005
v -1.03999996 12.30000019 -2.20000005
v -0.77999997 12.30000019 -1.74966681
v -0.75999999 12.30000019 -1.55033326
v -0.25999999 12.30000019 -1.74966681
v -0.75999999 12.30000019 -0.64966679
v -0.77999997 12.30000019 -0.45033321
v -0.50000000 12.30000019 -1.10000002
v -0.23999999 12.30000019 -1.10000002
v -0.25999999 12.30000019 -0.45033321
v -5.00000000 12.30000019 0.00000000
v -4.97592354 12.30000019 0.49008569
v -4.90392637 12.30000019 0.97545159
v -4.78470182 12.30000019 1.45142341
v -4.61939764 12.30000019 1.91341722
v -4.40960646 12.30000019 2.35698366
v -3.11999989 12.30000019 0.00000000
v -2.85999990 12.30000019 0.45033321
v -2.83999991 12.30000019 1.10000002
v -2.57999992 12.30000019 0.64966679
v -2.85999990 12.30000019 1.74966681
v -2.57999992 12.30000019 1.55033326
v -3.11999989 12.30000019 2.20000005
v -4.15734816 12.30000019 2.77785110
v -3.86505222 12.30000019 3.17196631
v -3.53553391 12.30000019 3.53553391
v -2.85999990 12.30000019 2.65033317
v -3.17196631 12.30000019 3.86505222
v -2.77785110 12.30000019 4.15734816
v -2.33999991 12.30000019 0.45033321
v -2.07999992 12.30000019 0.00000000
v -2.07999992 12.30000019 0.00000000
v -2.05999994 12.30000019 0.64966679
v -1.82000005 12.30000019 0.45033321
v -1.29999995 12.30000019 0.45033321
v -1.79999995 12.30000019 1.10000002
v -1.27999997 12.30000019 0.64966679
v -1.53999996 12.30000019 1.10000002
v -2.33999991 12.30000019 1.74966681
v -2.05999994 12.30000019 1.55033326
v -2.07999992 12.30000019 2.20000005
v -2.07999992 12.30000019 2.20000005
v -1.82000005 12.30000019 1.74966681
v -1.27999997 12.30000019 1.55033326
v -1.29999995 12.30000019 1.74966681
v -1.03999996 12.30000019 0.00000000
v -1.03999996 12.30000019 0.00000000
v -0.77999997 12.30000019 0.45033321
v -0.75999999 12.30000019 0.64966679
v -0.25999999 12.30000019 0.45033321
v -0.50000000 12.30000019 1.10000002
v -0.23999999 12.30000019 1.10000002
v -0.75999999 12.30000019 1.55033326
v -0.77999997 12.30000019 1.74966681
v -1.03999996 12.30000019 2.20000005
v -1.03999996 12.30000019 2.20000005
v -0.25999999 12.30000019 1.74966681
v -2.33999991 12.30000019 2.65033317
v -1.82000005 12.30000019 2.65033317
v -1.29999995 12.30000019 2.65033317
v -2.35698366 12.30000019 4.40960646
v -1.91341722 12.30000019 4.61939764
v -1.45142341 12.30000019 4.78470182
v -0.77999997 12.30000019 2.65033317
v -0.25999999 12.30000019 2.65033317
v -0.97545159 12.30000019 4.90392637
v -0.49008569 12.30000019 4.97592354
v -3.86505222 12.80000019 -3.17196631
v -4.15734816 12.80000019 -2.77785110
v -3.17196631 12.80000019 -3.86505222
v -2.77785110 12.80000019 -4.15734816
v -3.53553391 12.80000019 -3.53553391
v -2.85999990 12.80000019 -2.65033317
v -4.40960646 12.80000019 -2.35698366
v -4.61939764 12.80000019 -1.91341722
v -4.78470182 12.80000019 -1.45142341
v -4.90392637 12.80000019 -0.97545159
v -4.97592354 12.80000019 -0.49008569
v -3.11999989 12.80000019 -2.20000005
v -2.85999990 12.80000019 -1.74966681
v -2.57999992 12.80000019 -1.55033326
v -2.83999991 12.80000019 -1.10000002
v -2.57999992 12.80000019 -0.64966679
v -2.85999990 12.80000019 -0.45033321
v -2.35698366 12.80000019 -4.40960646
v -1.91341722 12.80000019 -4.61939764
v -1.45142341 12.80000019 -4.78470182
v -2.33999991 12.80000019 -2.65033317
v -1.82000005 12.80000019 -2.65033317
v -1.29999995 12.80000019 -2.65033317
v -0.97545159 12.80000019 -4.90392637
v -0.49008569 12.80000019 -4.97592354
v -0.00000000 12.80000019 -5.00000000
v -0.77999997 12.80000019 -2.65033317
v -0.25999999 12.80000019 -2.65033317
v -2.07999992 12.80000019 -2.20000005
v -2.07999992 12.80000019 -2.20000005
v -2.33999991 12.80000019 -1.74966681
v -2.05999994 12.80000019 -1.55033326
v -1.82000005 12.80000019 -1.74966681
v -1.29999995 12.80000019 -1.74966681
v -1.27999997 12.80000019 -1.55033326
v -2.05999994 12.80000019 -0.64966679
v -2.33999991 12.80000019 -0.45033321
v -1.79999995 12.80000019 -1.10000002
v -1.53999996 12.80000019 -1.10000002
v -1.27999997 12.80000019 -0.64966679
v -1.82000005 12.80000019 -0.45033321
v -1.29999995 12.80000019 -0.45033321
v -1.03999996 12.80000019 -2.20000005
v -1.03999996 12.80000019 -2.20000005
v -0.77999997 12.80000019 -1.74966681
v -0.75999999 12.80000019 -1.55033326
v -0.25999999 12.80000019 -1.74966681
v -0.75999999 12.80000019 -0.64966679
v -0.77999997 12.80000019 -0.45033321
v -0.50000000 12.80000019 -1.10000002
v -0.23999999 12.80000019 -1.10000002
v -0.25999999 12.80000019 -0.45033321
v -5.00000000 12.80000019 0.00000000
v -4.97592354 12.80000019 0.49008569
v -4.90392637 12.80000019 0.97545159
v -4.78470182 12.80000019 1.45142341
v -4.61939764 12.80000019 1.91341722
v -4.40960646 12.80000019 2.35698366
v -3.11999989 12.80000019 0.00000000
v -2.85999990 12.80000019 0.45033321
v -2.83999991 12.80000019 1.10000002
v -2.57999992 12.80000019 0.64966679
v -2.85999990 12.80000019 1.74966681
v -2.57999992 12.80000019 1.55033326
v -3.11999989 12.80000019 2.20000005
v -4.15734816 12.80000019 2.77785110
v -3.86505222 12.80000019 3.17196631
v -3.53553391 12.80000019 3.53553391
v -2.85999990 12.80000019 2.65033317
v -3.17196631 12.80000019 3.86505222
v -2.77785110 12.80000019 4.15734816
v -2.33999991 12.80000019 0.45033321
v -2.07999992 12.80000019 0.00000000
v -2.07999992 12.80000019 0.00000000
v -2.05999994 12.80000019 0.64966679
v -1.82000005 12.80000019 0.45033321
v -1.29999995 12.80000019 0.45033321
v -1.79999995 12.80000019 1.10000002
v -1.27999997 12.80000019 0.64966679
v -1.53999996 12.80000019 1.10000002
v -2.33999991 12.80000019 1.74966681
v -2.05999994 12.80000019 1.55033326
v -2.07999992 12.80000019 2.20000005
v -2.07999992 12.80000019 2.20000005
v -1.82000005 12.80000019 1.74966681
v -1.27999997 12.80000019 1.55033326
v -1.29999995 12.80000019 1.74966681
v -1.03999996 12.80000019 0.00000000
v -1.03999996 12.80000019 0.00000000
v -0.77999997 12.80000019 0.45033321
v -0.75999999 12.80000019 0.64966679
v -0.25999999 12.80000019 0.45033321
v -0.50000000 12.80000019 1.10000002
v -0.23999999 12.80000019 1.10000002
v -0.75999999 12.80000019 1.55033326
v -0.77999997 12.80000019 1.74966681
v -1.03999996 12.80000019 2.20000005
v -1.03999996 12.80000019 2.20000005
v -0.25999999 12.80000019 1.74966681
v -2.33999991 12.80000019 2.65033317
v -1.82000005 12.80000019 2.65033317
v -1.29999995 12.80000019 2.65033317
v -2.35698366 12.80000019 4.40960646
v -1.91341722 12.80000019 4.61939764
v -1.45142341 12.80000019 4.78470182
v -0.77999997 12.80000019 2.65033317
v -0.25999999 12.80000019 2.65033317
v -0.97545159 12.80000019 4.90392637
v -0.49008569 12.80000019 4.97592354
v 0.49008569 12.30000019 -4.97592354
v 0.97545159 12.30000019 -4.90392637
v 0.25999999 12.30000019 -2.65033317
v 0.77999997 12.30000019 -2.65033317
v 1.45142341 12.30000019 -4.78470182
v 1.91341722 12.30000019 -4.61939764
v 2.35698366 12.30000019 -4.40960646
v 1.29999995 12.30000019 -2.65033317
v 1.82000005 12.30000019 -2.65033317
v 2.33999991 12.30000019 -2.65033317
v 0.00000000 12.30000019 -2.20000005
v 0.00000000 12.30000019 -2.20000005
v 0.25999999 12.30000019 -1.74966681
v 0.02000000 12.30000019 -1.55033326
v 0.54000002 12.30000019 -1.55033326
v 1.03999996 12.30000019 -2.20000005
v 1.03999996 12.30000019 -2.20000005
v 0.77999997 12.30000019 -1.74966681
v 0.02000000 12.30000019 -0.64966679
v 0.54000002 12.30000019 -0.64966679
v 0.25999999 12.30000019 -0.45033321
v 0.80000001 12.30000019 -1.10000002
v 1.05999994 12.30000019 -1.10000002
v 0.77999997 12.30000019 -0.45033321
v 1.29999995 12.30000019 -1.74966681
v 1.32000005 12.30000019 -1.55033326
v 1.82000005 12.30000019 -1.74966681
v 1.84000003 12.30000019 -1.55033326
v 2.07999992 12.30000019 -2.20000005
v 2.07999992 12.30000019 -2.20000005
v 2.33999991 12.30000019 -1.74966681
v 1.32000005 12.30000019 -0.64966679
v 1.84000003 12.30000019 -0.64966679
v 1.29999995 12.30000019 -0.45033321
v 1.82000005 12.30000019 -0.45033321
v 2.09999990 12.30000019 -1.10000002
v 2.35999990 12.30000019 -1.10000002
v 2.33999991 12.30000019 -0.45033321
v 2.77785110 12.30000019 -4.15734816
v 3.17196631 12.30000019 -3.86505222
v 2.85999990 12.30000019 -2.65033317
v 3.53553391 12.30000019 -3.53553391
v 3.86505222 12.30000019 -3.17196631
v 4.15734816 12.30000019 -2.77785110
v 3.11999989 12.30000019 -2.20000005
v 2.61999989 12.30000019 -1.55033326
v 2.85999990 12.30000019 -1.74966681
v 3.14000010 12.30000019 -1.55033326
v 2.61999989 12.30000019 -0.64966679
v 2.85999990 12.30000019 -0.45033321
v 3.40000010 12.30000019 -1.10000002
v 3.14000010 12.30000019 -0.64966679
v 4.40960646 12.30000019 -2.35698366
v 4.61939764 12.30000019 -1.91341722
v 4.78470182 12.30000019 -1.45142341
v 4.90392637 12.30000019 -0.97545159
v 4.97592354 12.30000019 -0.49008569
v 0.00000000 12.30000019 0.00000000
v 0.00000000 12.30000019 0.00000000
v 0.25999999 12.30000019 0.45033321
v 0.02000000 12.30000019 0.64966679
v 0.54000002 12.30000019 0.64966679
v 0.77999997 12.30000019 0.45033321
v 1.03999996 12.30000019 0.00000000
v 1.03999996 12.30000019 0.00000000
v 0.80000001 12.30000019 1.10000002
v 1.05999994 12.30000019 1.10000002
v 0.02000000 12.30000019 1.55033326
v 0.25999999 12.30000019 1.74966681
v 0.54000002 12.30000019 1.55033326
v 0.00000000 12.30000019 2.20000005
v 0.00000000 12.30000019 2.20000005
v 0.77999997 12.30000019 1.74966681
v 1.03999996 12.30000019 2.20000005
v 1.03999996 12.30000019 2.20000005
v 1.29999995 12.30000019 0.45033321
v 1.82000005 12.30000019 0.45033321
v 1.32000005 12.30000019 0.64966679
v 1.84000003 12.30000019 0.64966679
v 2.07999992 12.30000019 0.00000000
v 2.07999992 12.30000019 0.00000000
v 2.33999991 12.30000019 0.45033321
v 2.09999990 12.30000019 1.10000002
v 2.35999990 12.30000019 1.10000002
v 1.32000005 12.30000019 1.55033326
v 1.29999995 12.30000019 1.74966681
v 1.84000003 12.30000019 1.55033326
v 1.82000005 12.30000019 1.74966681
v 2.33999991 12.30000019 1.74966681
v 2.07999992 12.30000019 2.20000005
v 2.07999992 12.30000019 2.20000005
v 0.25999999 12.30000019 2.65033317
v 0.77999997 12.30000019 2.65033317
v 0.00000000 12.30000019 5.00000000
v 0.49008569 12.30000019 4.97592354
v 0.97545159 12.30000019 4.90392637
v 1.29999995 12.30000019 2.65033317
v 1.82000005 12.30000019 2.65033317
v 2.33999991 12.30000019 2.65033317
v 1.45142341 12.30000019 4.78470182
v 1.91341722 12.30000019 4.61939764
v 2.35698366 12.30000019 4.40960646
v 3.11999989 12.30000019 0.00000000
v 2.85999990 12.30000019 0.45033321
v 2.61999989 12.30000019 0.64966679
v 3.14000010 12.30000019 0.64966679
v 3.40000010 12.30000019 1.10000002
v 2.61999989 12.30000019 1.55033326
v 2.85999990 12.30000019 1.74966681
v 3.11999989 12.30000019 2.20000005
v 3.14000010 12.30000019 1.55033326
v 5.00000000 12.30000019 0.00000000
v 4.97592354 12.30000019 0.49008569
v 4.90392637 12.30000019 0.97545159
v 4.78470182 12.30000019 1.45142341
v 4.61939764 12.30000019 1.91341722
v 4.40960646 12.30000019 2.35698366
v 2.85999990 12.30000019 2.65033317
v 3.53553391 12.30000019 3.53553391
v 2.77785110 12.30000019 4.15734816
v 3.17196631 12.30000019 3.86505222
v 4.15734816 12.30000019 2.77785110
v 3.86505222 12.30000019 3.17196631
v 0.49008569 12.80000019 -4.97592354
v 0.97545159 12.80000019 -4.90392637
v 0.25999999 12.80000019 -2.65033317
v 0.77999997 12.80000019 -2.65033317
v 1.45142341 12.80000019 -4.78470182
v 1.91341722 12.80000019 -4.61939764
v 2.35698366 12.80000019 -4.40960646
v 1.29999995 12.80000019 -2.65033317
v 1.82000005 12.80000019 -2.65033317
v 2.33999991 12.80000019 -2.65033317
v 0.00000000 12.80000019 -2.20000005
v 0.00000000 12.80000019 -2.20000005
v 0.25999999 12.80000019 -1.74966681
v 0.02000000 12.80000019 -1.55033326
v 0.54000002 12.80000019 -1.55033326
v 1.03999996 12.80000019 -2.20000005
v 1.03999996 12.80000019 -2.20000005
v 0.77999997 12.80000019 -1.74966681
v 0.02000000 12.80000019 -0.64966679
v 0.54000002 12.80000019 -0.64966679
v 0.25999999 12.80000019 -0.45033321
v 0.80000001 12.80000019 -1.10000002
v 1.05999994 12.80000019 -1.10000002
v 0.77999997 12.80000019 -0.45033321
v 1.29999995 12.80000019 -1.74966681
v 1.32000005 12.80000019 -1.55033326
v 1.82000005 12.80000019 -1.74966681
v 1.84000003 12.80000019 -1.55033326
v 2.07999992 12.80000019 -2.20000005
v 2.07999992 12.80000019 -2.20000005
v 2.33999991 12.80000019 -1.74966681
v 1.32000005 12.80000019 -0.64966679
v 1.84000003 12.80000019 -0.64966679
v 1.29999995 12.80000019 -0.45033321
v 1.82000005 12.80000019 -0.45033321
v 2.09999990 12.80000019 -1.10000002
v 2.35999990 12.80000019 -1.10000002
v 2.33999991 12.80000019 -0.45033321
v 2.77785110 12.80000019 -4.15734816
v 3.17196631 12.80000019 -3.86505222
v 2.85999990 12.80000019 -2.65033317
v 3.53553391 12.80000019 -3.53553391
v 3.86505222 12.80000019 -3.17196631
v 4.15734816 12.80000019 -2.77785110
v 3.11999989 12.80000019 -2.20000005
v 2.61999989 12.80000019 -1.55033326
v 2.85999990 12.80000019 -1.74966681
v 3.14000010 12.80000019 -1.55033326
v 2.61999989 12.80000019 -0.64966679
v 2.85999990 12.80000019 -0.45033321
v 3.40000010 12.80000019 -1.10000002
v 3.14000010 12.80000019 -0.64966679
v 4.40960646 12.80000019 -2.35698366
v 4.61939764 12.80000019 -1.91341722
v 4.78470182 12.80000019 -1.45142341
v 4.90392637 12.80000019 -0.97545159
v 4.97592354 12.80000019 -0.49008569
v 0.00000000 12.80000019 0.00000000
v 0.00000000 12.80000019 0.00000000
v 0.25999999 12.80000019 0.45033321
v 0.02000000 12.80000019 0.64966679
v 0.54000002 12.80000019 0.64966679
v 0.77999997 12.80000019 0.45033321
v 1.03999996 12.80000019 -0.00000000
v 1.03999996 12.80000019 -0.00000000
v 0.80000001 12.80000019 1.10000002
v 1.05999994 12.80000019 1.10000002
v 0.02000000 12.80000019 1.55033326
v 0.25999999 12.80000019 1.74966681
v 0.54000002 12.80000019 1.55033326
v 0.00000000 12.80000019 2.20000005
v 0.00000000 12.80000019 2.20000005
v 0.77999997 12.80000019 1.74966681
v 1.03999996 12.80000019 2.20000005
v 1.03999996 12.80000019 2.20000005
v 1.29999995 12.80000019 0.45033321
v 1.82000005 12.80000019 0.45033321
v 1.32000005 12.80000019 0.64966679
v 1.84000003 12.80000019 0.64966679
v 2.07999992 12.80000019 -0.00000000
v 2.07999992 12.80000019 -0.00000000
v 2.33999991 12.80000019 0.45033321
v 2.09999990 12.80000019 1.10000002
v 2.35999990 12.80000019 1.10000002
v 1.32000005 12.80000019 1.55033326
v 1.29999995 12.80000019 1.74966681
v 1.84000003 12.80000019 1.55033326
v 1.82000005 12.80000019 1.74966681
v 2.33999991 12.80000019 1.74966681
v 2.07999992 12.80000019 2.20000005
v 2.07999992 12.80000019 2.20000005
v 0.25999999 12.80000019 2.65033317
v 0.77999997 12.80000019 2.65033317
v 0.00000000 12.80000019 5.00000000
v 0.49008569 12.80000019 4.97592354
v 0.97545159 12.80000019 4.90392637
v 1.29999995 12.80000019 2.65033317
v 1.82000005 12.80000019 2.65033317
v 2.33999991 12.80000019 2.65033317
v 1.45142341 12.80000019 4.78470182
v 1.91341722 12.80000019 4.61939764
v 2.35698366 12.80000019 4.40960646
v 3.11999989 12.80000019 -0.00000000
v 2.85999990 12.80000019 0.45033321
v 2.61999989 12.80000019 0.64966679
v 3.14000010 12.80000019 0.64966679
v 3.40000010 12.80000019 1.10000002
v 2.61999989 12.80000019 1.55033326
v 2.85999990 12.80000019 1.74966681
v 3.11999989 12.80000019 2.20000005
v 3.14000010 12.80000019 1.55033326
v 5.00000000 12.80000019 -0.00000000
v 4.97592354 12.80000019 0.49008569
v 4.90392637 12.80000019 0.97545159
v 4.78470182 12.80000019 1.45142341
v 4.61939764 12.80000019 1.91341722
v 4.40960646 12.80000019 2.35698366
v 2.85999990 12.80000019 2.65033317
v 3.53553391 12.80000019 3.53553391
v 2.77785110 12.80000019 4.15734816
v 3.17196631 12.80000019 3.86505222
v 4.15734816 12.80000019 2.77785110
v 3.86505222 12.80000019 3.17196631
v 4.82000000 12.55000000 0.00000000
v 4.77712813 12.39000000 0.00000000
v 4.66000000 12.27287187 0.00000000
v 4.50000000 12.23000000 0.00000000
v 4.34000000 12.27287187 0.00000000
v 4.22287187 12.39000000 0.00000000
v 4.18000000 12.55000000 0.00000000
v 4.22287187 12.71000000 -0.00000000
v 4.34000000 12.82712813 -0.00000000
v 4.50000000 12.87000000 -0.00000000
v 4.66000000 12.82712813 -0.00000000
v 4.77712813 12.71000000 -0.00000000
v 4.79679038 12.55000000 0.47244262
v 4.75412495 12.39000000 0.46824044
v 4.63756083 12.27287187 0.45675987
v 4.47833127 12.23000000 0.44107713
v 4.31910171 12.27287187 0.42539439
v 4.20253759 12.39000000 0.41391382
v 4.15987216 12.55000000 0.40971165
v 4.20253759 12.71000000 0.41391382
v 4.31910171 12.82712813 0.42539439
v 4.47833127 12.87000000 0.44107713
v 4.63756083 12.82712813 0.45675987
v 4.75412495 12.71000000 0.46824044
v 4.72738505 12.55000000 0.94033535
v 4.68533695 12.39000000 0.93197147
v 4.57045941 12.27287187 0.90912090
v 4.41353376 12.23000000 0.87790645
v 4.25660812 12.27287187 0.84669200
v 4.14173057 12.39000000 0.82384143
v 4.09968247 12.55000000 0.81547755
v 4.14173057 12.71000000 0.82384143
v 4.25660812 12.82712813 0.84669200
v 4.41353376 12.87000000 0.87790645
v 4.57045941 12.82712813 0.90912090
v 4.68533695 12.71000000 0.93197147
v 4.61245242 12.55000000 1.39917214
v 4.57142660 12.39000000 1.38672710
v 4.45934196 12.27287187 1.35272660
v 4.30623151 12.23000000 1.30628105
v 4.15312106 12.27287187 1.25983550
v 4.04103643 12.39000000 1.22583500
v 4.00001060 12.55000000 1.21338995
v 4.04103643 12.71000000 1.22583500
v 4.15312106 12.82712813 1.25983550
v 4.30623151 12.87000000 1.30628105
v 4.45934196 12.82712813 1.35272660
v 4.57142660 12.71000000 1.38672710
v 4.45309935 12.55000000 1.84453414
v 4.41349090 12.39000000 1.82812779
v 4.30527862 12.27287187 1.78330479
v 4.15745790 12.23000000 1.72207545
v 4.00963717 12.27287187 1.66084610
v 3.90142489 12.39000000 1.61602310
v 3.86181645 12.55000000 1.59961675
v 3.90142489 12.71000000 1.61602310
v 4.00963717 12.82712813 1.66084610
v 4.15745790 12.87000000 1.72207545
v 4.30527862 12.82712813 1.78330479
v 4.41349090 12.71000000 1.82812779
v 4.25086049 12.55000000 2.27213227
v 4.21305088 12.39000000 2.25192261
v 4.10975309 12.27287187 2.19670879
v 3.96864569 12.23000000 2.12128532
v 3.82753829 12.27287187 2.04586184
v 3.72424050 12.39000000 1.99064802
v 3.68643088 12.55000000 1.97043836
v 3.72424050 12.71000000 1.99064802
v 3.82753829 12.82712813 2.04586184
v 3.96864569 12.87000000 2.12128532
v 4.10975309 12.82712813 2.19670879
v 4.21305088 12.71000000 2.25192261
v 4.00768353 12.55000000 2.67784852
v 3.97203687 12.39000000 2.65403019
v 3.87464839 12.27287187 2.58895729
v 3.74161326 12.23000000 2.50006605
v 3.60857812 12.27287187 2.41117481
v 3.51118964 12.39000000 2.34610191
v 3.47554298 12.55000000 2.32228357
v 3.51118964 12.71000000 2.34610191
v 3.60857812 12.82712813 2.41117481
v 3.74161326 12.87000000 2.50006605
v 3.87464839 12.82712813 2.58895729
v 3.97203687 12.71000000 2.65403019
v 3.72591039 12.55000000 3.05777563
v 3.69276998 12.39000000 3.03057800
v 3.60222871 12.27287187 2.95627270
v 3.47854704 12.23000000 2.85476978
v 3.35486537 12.27287187 2.75326685
v 3.26432410 12.39000000 2.67896155
v 3.23118370 12.55000000 2.65176393
v 3.26432410 12.71000000 2.67896155
v 3.35486537 12.82712813 2.75326685
v 3.47854704 12.87000000 2.85476978
v 3.60222871 12.82712813 2.95627270
v 3.69276998 12.71000000 3.03057800
v 3.40825469 12.55000000 3.40825469
v 3.37793969 12.39000000 3.37793969
v 3.29511760 12.27287187 3.29511760
v 3.18198052 12.23000000 3.18198052
v 3.06884343 12.27287187 3.06884343
v 2.98602134 12.39000000 2.98602134
v 2.95570635 12.55000000 2.95570635
v 2.98602134 12.71000000 2.98602134
v 3.06884343 12.82712813 3.06884343
v 3.18198052 12.87000000 3.18198052
v 3.29511760 12.82712813 3.29511760
v 3.37793969 12.71000000 3.37793969
v 3.05777563 12.55000000 3.72591039
v 3.03057800 12.39000000 3.69276998
v 2.95627270 12.27287187 3.60222871
v 2.85476978 12.23000000 3.47854704
v 2.75326685 12.27287187 3.35486537
v 2.67896155 12.39000000 3.26432410
v 2.65176393 12.55000000 3.23118370
v 2.67896155 12.71000000 3.26432410
v 2.75326685 12.82712813 3.35486537
v 2.85476978 12.87000000 3.47854704
v 2.95627270 12.82712813 3.60222871
v 3.03057800 12.71000000 3.69276998
v 2.67784852 12.55000000 4.00768353
v 2.65403019 12.39000000 3.97203687
v 2.58895729 12.27287187 3.87464839
v 2.50006605 12.23000000 3.74161326
v 2.41117481 12.27287187 3.60857812
v 2.34610191 12.39000000 3.51118964
v 2.32228357 12.55000000 3.47554298
v 2.34610191 12.71000000 3.51118964
v 2.41117481 12.82712813 3.60857812
v 2.50006605 12.87000000 3.74161326
v 2.58895729 12.82712813 3.87464839
v 2.65403019 12.71000000 3.97203687
v 2.27213227 12.55000000 4.25086049
v 2.25192261 12.39000000 4.21305088
v 2.19670879 12.27287187 4.10975309
v 2.12128532 12.23000000 3.96864569
v 2.04586184 12.27287187 3.82753829
v 1.99064802 12.39000000 3.72424050
v 1.97043836 12.55000000 3.68643088
v 1.99064802 12.71000000 3.72424050
v 2.04586184 12.82712813 3.82753829
v 2.12128532 12.87000000 3.96864569
v 2.19670879 12.82712813 4.10975309
v 2.25192261 12.71000000 4.21305088
v 1.84453414 12.55000000 4.45309935
v 1.82812779 12.39000000 4.41349090
v 1.78330479 12.27287187 4.30527862
v 1.72207545 12.23000000 4.15745790
v 1.66084610 12.27287187 4.00963717
v 1.61602310 12.39000000 3.90142489
v 1.59961675 12.55000000 3.86181645
v 1.61602310 12.71000000 3.90142489
v 1.66084610 12.82712813 4.00963717
v 1.72207545 12.87000000 4.15745790
v 1.78330479 12.82712813 4.30527862
v 1.82812779 12.71000000 4.41349090
v 1.39917214 12.55000000 4.61245242
v 1.38672710 12.39000000 4.57142660
v 1.35272660 12.27287187 4.45934196
v 1.30628105 12.23000000 4.30623151
v 1.25983550 12.27287187 4.15312106
v 1.22583500 12.39000000 4.04103643
v 1.21338995 12.55000000 4.00001060
v 1.22583500 12.71000000 4.04103643
v 1.25983550 12.82712813 4.15312106
v 1.30628105 12.87000000 4.30623151
v 1.35272660 12.82712813 4.45934196
v 1.38672710 12.71000000 4.57142660
v 0.94033535 12.55000000 4.72738505
v 0.93197147 12.39000000 4.68533695
v 0.90912090 12.27287187 4.57045941
v 0.87790645 12.23000000 4.41353376
v 0.84669200 12.27287187 4.25660812
v 0.82384143 12.39000000 4.14173057
v 0.81547755 12.55000000 4.09968247
v 0.82384143 12.71000000 4.14173057
v 0.84669200 12.82712813 4.25660812
v 0.87790645 12.87000000 4.41353376
v 0.90912090 12.82712813 4.57045941
v 0.93197147 12.71000000 4.68533695
v 0.47244262 12.55000000 4.79679038
v 0.46824044 12.39000000 4.75412495
v 0.45675987 12.27287187 4.63756083
v 0.44107713 12.23000000 4.47833127
v 0.42539439 12.27287187 4.31910171
v 0.41391382 12.39000000 4.20253759
v 0.40971165 12.55000000 4.15987216
v 0.41391382 12.71000000 4.20253759
v 0.42539439 12.82712813 4.31910171
v 0.44107713 12.87000000 4.47833127
v 0.45675987 12.82712813 4.63756083
v 0.46824044 12.71000000 4.75412495
v 0.00000000 12.55000000 4.82000000
v 0.00000000 12.39000000 4.77712813
v 0.00000000 12.27287187 4.66000000
v 0.00000000 12.23000000 4.50000000
v 0.00000000 12.27287187 4.34000000
v 0.00000000 12.39000000 4.22287187
v 0.00000000 12.55000000 4.18000000
v 0.00000000 12.71000000 4.22287187
v 0.00000000 12.82712813 4.34000000
v 0.00000000 12.87000000 4.50000000
v 0.00000000 12.82712813 4.66000000
v 0.00000000 12.71000000 4.77712813
v -0.47244262 12.55000000 4.79679038
v -0.46824044 12.39000000 4.75412495
v -0.45675987 12.27287187 4.63756083
v -0.44107713 12.23000000 4.47833127
v -0.42539439 12.27287187 4.31910171
v -0.41391382 12.39000000 4.20253759
v -0.40971165 12.55000000 4.15987216
v -0.41391382 12.71000000 4.20253759
v -0.42539439 12.82712813 4.31910171
v -0.44107713 12.87000000 4.47833127
v -0.45675987 12.82712813 4.63756083
v -0.46824044 12.71000000 4.75412495
v -0.94033535 12.55000000 4.72738505
v -0.93197147 12.39000000 4.68533695
v -0.90912090 12.27287187 4.57045941
v -0.87790645 12.23000000 4.41353376
v -0.84669200 12.27287187 4.25660812
v -0.82384143 12.39000000 4.14173057
v -0.81547755 12.55000000 4.09968247
v -0.82384143 12.71000000 4.14173057
v -0.84669200 12.82712813 4.25660812
v -0.87790645 12.87000000 4.41353376
v -0.90912090 12.82712813 4.57045941
v -0.93197147 12.71000000 4.68533695
v -1.39917214 12.55000000 4.61245242
v -1.38672710 12.39000000 4.57142660
v -1.35272660 12.27287187 4.45934196
v -1.30628105 12.23000000 4.30623151
v -1.25983550 12.27287187 4.15312106
v -1.22583500 12.39000000 4.04103643
v -1.21338995 12.55000000 4.00001060
v -1.22583500 12.71000000 4.04103643
v -1.25983550 12.82712813 4.15312106
v -1.30628105 12.87000000 4.30623151
v -1.35272660 12.82712813 4.45934196
v -1.38672710 12.71000000 4.57142660
v -1.84453414 12.55000000 4.45309935
v -1.82812779 12.39000000 4.41349090
v -1.78330479 12.27287187 4.30527862
v -1.72207545 12.23000000 4.15745790
v -1.66084610 12.27287187 4.00963717
v -1.61602310 12.39000000 3.90142489
v -1.59961675 12.55000000 3.86181645
v -1.61602310 12.71000000 3.90142489
v -1.66084610 12.82712813 4.00963717
v -1.72207545 12.87000000 4.15745790
v -1.78330479 12.82712813 4.30527862
v -1.82812779 12.71000000 4.41349090
v -2.27213227 12.55000000 4.25086049
v -2.25192261 12.39000000 4.21305088
v -2.19670879 12.27287187 4.10975309
v -2.12128532 12.23000000 3.96864569
v -2.04586184 12.27287187 3.82753829
v -1.99064802 12.39000000 3.72424050
v -1.97043836 12.55000000 3.68643088
v -1.99064802 12.71000000 3.72424050
v -2.04586184 12.82712813 3.82753829
v -2.12128532 12.87000000 3.96864569
v -2.19670879 12.82712813 4.10975309
v -2.25192261 12.71000000 4.21305088
v -2.67784852 12.55000000 4.00768353
v -2.65403019 12.39000000 3.97203687
v -2.58895729 12.27287187 3.87464839
v -2.50006605 12.23000000 3.74161326
v -2.41117481 12.27287187 3.60857812
v -2.34610191 12.39000000 3.51118964
v -2.32228357 12.55000000 3.47554298
v -2.34610191 12.71000000 3.51118964
v -2.41117481 12.82712813 3.60857812
v -2.50006605 12.87000000 3.74161326
v -2.58895729 12.82712813 3.87464839
v -2.65403019 12.71000000 3.97203687
v -3.05777563 12.55000000 3.72591039
v -3.03057800 12.39000000 3.69276998
v -2.95627270 12.27287187 3.60222871
v -2.85476978 12.23000000 3.47854704
v -2.75326685 12.27287187 3.35486537
v -2.67896155 12.39000000 3.26432410
v -2.65176393 12.55000000 3.23118370
v -2.67896155 12.71000000 3.26432410
v -2.75326685 12.82712813 3.35486537
v -2.85476978 12.87000000 3.47854704
v -2.95627270 12.82712813 3.60222871
v -3.03057800 12.71000000 3.69276998
v -3.40825469 12.55000000 3.40825469
v -3.37793969 12.39000000 3.37793969
v -3.29511760 12.27287187 3.29511760
v -3.18198052 12.23000000 3.18198052
v -3.06884343 12.27287187 3.06884343
v -2.98602134 12.39000000 2.98602134
v -2.95570635 12.55000000 2.95570635
v -2.98602134 12.71000000 2.98602134
v -3.06884343 12.82712813 3.06884343
v -3.18198052 12.87000000 3.18198052
v -3.29511760 12.82712813 3.29511760
v -3.37793969 12.71000000 3.37793969
v -3.72591039 12.55000000 3.05777563
v -3.69276998 12.39000000 3.03057800
v -3.60222871 12.27287187 2.95627270
v -3.47854704 12.23000000 2.85476978
v -3.35486537 12.27287187 2.75326685
v -3.26432410 12.39000000 2.67896155
v -3.23118370 12.55000000 2.65176393
v -3.26432410 12.71000000 2.67896155
v -3.35486537 12.82712813 2.75326685
v -3.47854704 12.87000000 2.85476978
v -3.60222871 12.82712813 2.95627270
v -3.69276998 12.71000000 3.03057800
v -4.00768353 12.55000000 2.67784852
v -3.97203687 12.39000000 2.65403019
v -3.87464839 12.27287187 2.58895729
v -3.74161326 12.23000000 2.50006605
v -3.60857812 12.27287187 2.41117481
v -3.51118964 12.39000000 2.34610191
v -3.47554298 12.55000000 2.32228357
v -3.51118964 12.71000000 2.34610191
v -3.60857812 12.82712813 2.41117481
v -3.74161326 12.87000000 2.50006605
v -3.87464839 12.82712813 2.58895729
v -3.97203687 12.71000000 2.65403019
v -4.25086049 12.55000000 2.27213227
v -4.21305088 12.39000000 2.25192261
v -4.10975309 12.27287187 2.19670879
v -3.96864569 12.23000000 2.12128532
v -3.82753829 12.27287187 2.04586184
v -3.72424050 12.39000000 1.99064802
v -3.68643088 12.55000000 1.97043836
v -3.72424050 12.71000000 1.99064802
v -3.82753829 12.82712813 2.04586184
v -3.96864569 12.87000000 2.12128532
v -4.10975309 12.82712813 2.19670879
v -4.21305088 12.71000000 2.25192261
v -4.45309935 12.55000000 1.84453414
v -4.41349090 12.39000000 1.82812779
v -4.30527862 12.27287187 1.78330479
v -4.15745790 12.23000000 1.72207545
v -4.00963717 12.27287187 1.66084610
v -3.90142489 12.39000000 1.61602310
v -3.86181645 12.55000000 1.59961675
v -3.90142489 12.71000000 1.61602310
v -4.00963717 12.82712813 1.66084610
v -4.15745790 12.87000000 1.72207545
v -4.30527862 12.82712813 1.78330479
v -4.41349090 12.71000000 1.82812779
v -4.61245242 12.55000000 1.39917214
v -4.57142660 12.39000000 1.38672710
v -4.45934196 12.27287187 1.35272660
v -4.30623151 12.23000000 1.30628105
v -4.15312106 12.27287187 1.25983550
v -4.04103643 12.39000000 1.22583500
v -4.00001060 12.55000000 1.21338995
v -4.04103643 12.71000000 1.22583500
v -4.15312106 12.82712813 1.25983550
v -4.30623151 12.87000000 1.30628105
v -4.45934196 12.82712813 1.35272660
v -4.57142660 12.71000000 1.38672710
v -4.72738505 12.55000000 0.94033535
v -4.68533695 12.39000000 0.93197147
v -4.57045941 12.27287187 0.90912090
v -4.41353376 12.23000000 0.87790645
v -4.25660812 12.27287187 0.84669200
v -4.14173057 12.39000000 0.82384143
v -4.09968247 12.55000000 0.81547755
v -4.14173057 12.71000000 0.82384143
v -4.25660812 12.82712813 0.84669200
v -4.41353376 12.87000000 0.87790645
v -4.57045941 12.82712813 0.90912090
v -4.68533695 12.71000000 0.93197147
v -4.79679038 12.55000000 0.47244262
v -4.75412495 12.39000000 0.46824044
v -4.63756083 12.27287187 0.45675987
v -4.47833127 12.23000000 0.44107713
v -4.31910171 12.27287187 0.42539439
v -4.20253759 12.39000000 0.41391382
v -4.15987216 12.55000000 0.40971165
v -4.20253759 12.71000000 0.41391382
v -4.31910171 12.82712813 0.42539439
v -4.47833127 12.87000000 0.44107713
v -4.63756083 12.82712813 0.45675987
v -4.75412495 12.71000000 0.46824044
v -4.82000000 12.55000000 0.00000000
v -4.77712813 12.39000000 0.00000000
v -4.66000000 12.27287187 0.00000000
v -4.50000000 12.23000000 0.00000000
v -4.34000000 12.27287187 0.00000000
v -4.22287187 12.39000000 0.00000000
v -4.18000000 12.55000000 0.00000000
v -4.22287187 12.71000000 0.00000000
v -4.34000000 12.82712813 0.00000000
v -4.50000000 12.87000000 0.00000000
v -4.66000000 12.82712813 0.00000000
v -4.77712813 12.71000000 0.00000000
v -4.79679038 12.55000000 -0.47244262
v -4.75412495 12.39000000 -0.46824044
v -4.63756083 12.27287187 -0.45675987
v -4.47833127 12.23000000 -0.44107713
v -4.31910171 12.27287187 -0.42539439
v -4.20253759 12.39000000 -0.41391382
v -4.15987216 12.55000000 -0.40971165
v -4.20253759 12.71000000 -0.41391382
v -4.31910171 12.82712813 -0.42539439
v -4.47833127 12.87000000 -0.44107713
v -4.63756083 12.82712813 -0.45675987
v -4.75412495 12.71000000 -0.46824044
v -4.72738505 12.55000000 -0.94033535
v -4.68533695 12.39000000 -0.93197147
v -4.57045941 12.27287187 -0.90912090
v -4.41353376 12.23000000 -0.87790645
v -4.25660812 12.27287187 -0.84669200
v -4.14173057 12.39000000 -0.82384143
v -4.09968247 12.55000000 -0.81547755
v -4.14173057 12.71000000 -0.82384143
v -4.25660812 12.82712813 -0.84669200
v -4.41353376 12.87000000 -0.87790645
v -4.57045941 12.82712813 -0.90912090
v -4.68533695 12.71000000 -0.93197147
v -4.61245242 12.55000000 -1.39917214
v -4.57142660 12.39000000 -1.38672710
v -4.45934196 12.27287187 -1.35272660
v -4.30623151 12.23000000 -1.30628105
v -4.15312106 12.27287187 -1.25983550
v -4.04103643 12.39000000 -1.22583500
v -4.00001060 12.55000000 -1.21338995
v -4.04103643 12.71000000 -1.22583500
v -4.15312106 12.82712813 -1.25983550
v -4.30623151 12.87000000 -1.30628105
v -4.45934196 12.82712813 -1.35272660
v -4.57142660 12.71000000 -1.38672710
v -4.45309935 12.55000000 -1.84453414
v -4.41349090 12.39000000 -1.82812779
v -4.30527862 12.27287187 -1.78330479
v -4.15745790 12.23000000 -1.72207545
v -4.00963717 12.27287187 -1.66084610
v -3.90142489 12.39000000 -1.61602310
v -3.86181645 12.55000000 -1.59961675
v -3.90142489 12.71000000 -1.61602310
v -4.00963717 12.82712813 -1.66084610
v -4.15745790 12.87000000 -1.72207545
v -4.30527862 12.82712813 -1.78330479
v -4.41349090 12.71000000 -1.82812779
v -4.25086049 12.55000000 -2.27213227
v -4.21305088 12.39000000 -2.25192261
v -4.10975309 12.27287187 -2.19670879
v -3.96864569 12.23000000 -2.12128532
v -3.82753829 12.27287187 -2.04586184
v -3.72424050 12.39000000 -1.99064802
v -3.68643088 12.55000000 -1.97043836
v -3.72424050 12.71000000 -1.99064802
v -3.82753829 12.82712813 -2.04586184
v -3.96864569 12.87000000 -2.12128532
v -4.10975309 12.82712813 -2.19670879
v -4.21305088 12.71000000 -2.25192261
v -4.00768353 12.55000000 -2.67784852
v -3.97203687 12.39000000 -2.65403019
v -3.87464839 12.27287187 -2.58895729
v -3.74161326 12.23000000 -2.50006605
v -3.60857812 12.27287187 -2.41117481
v -3.51118964 12.39000000 -2.34610191
v -3.47554298 12.55000000 -2.32228357
v -3.51118964 12.71000000 -2.34610191
v -3.60857812 12.82712813 -2.41117481
v -3.74161326 12.87000000 -2.50006605
v -3.87464839 12.82712813 -2.58895729
v -3.97203687 12.71000000 -2.65403019
v -3.72591039 12.55000000 -3.05777563
v -3.69276998 12.39000000 -3.03057800
v -3.60222871 12.27287187 -2.95627270
v -3.47854704 12.23000000 -2.85476978
v -3.35486537 12.27287187 -2.75326685
v -3.26432410 12.39000000 -2.67896155
v -3.23118370 12.55000000 -2.65176393
v -3.26432410 12.71000000 -2.67896155
v -3.35486537 12.82712813 -2.75326685
v -3.47854704 12.87000000 -2.85476978
v -3.60222871 12.82712813 -2.95627270
v -3.69276998 12.71000000 -3.03057800
v -3.40825469 12.55000000 -3.40825469
v -3.37793969 12.39000000 -3.37793969
v -3.29511760 12.27287187 -3.29511760
v -3.18198052 12.23000000 -3.18198052
v -3.06884343 12.27287187 -3.06884343
v -2.98602134 12.39000000 -2.98602134
v -2.95570635 12.55000000 -2.95570635
v -2.98602134 12.71000000 -2.98602134
v -3.06884343 12.82712813 -3.06884343
v -3.18198052 12.87000000 -3.18198052
v -3.29511760 12.82712813 -3.29511760
v -3.37793969 12.71000000 -3.37793969
v -3.05777563 12.55000000 -3.72591039
v -3.03057800 12.39000000 -3.69276998
v -2.95627270 12.27287187 -3.60222871
v -2.85476978 12.23000000 -3.47854704
v -2.75326685 12.27287187 -3.35486537
v -2.67896155 12.39000000 -3.26432410
v -2.65176393 12.55000000 -3.23118370
v -2.67896155 12.71000000 -3.26432410
v -2.75326685 12.82712813 -3.35486537
v -2.85476978 12.87000000 -3.47854704
v -2.95627270 12.82712813 -3.60222871
v -3.03057800 12.71000000 -3.69276998
v -2.67784852 12.55000000 -4.00768353
v -2.65403019 12.39000000 -3.97203687
v -2.58895729 12.27287187 -3.87464839
v -2.50006605 12.23000000 -3.74161326
v -2.41117481 12.27287187 -3.60857812
v -2.34610191 12.39000000 -3.51118964
v -2.32228357 12.55000000 -3.47554298
v -2.34610191 12.71000000 -3.51118964
v -2.41117481 12.82712813 -3.60857812
v -2.50006605 12.87000000 -3.74161326
v -2.58895729 12.82712813 -3.87464839
v -2.65403019 12.71000000 -3.97203687
v -2.27213227 12.55000000 -4.25086049
v -2.25192261 12.39000000 -4.21305088
v -2.19670879 12.27287187 -4.10975309
v -2.12128532 12.23000000 -3.96864569
v -2.04586184 12.27287187 -3.82753829
v -1.99064802 12.39000000 -3.72424050
v -1.97043836 12.55000000 -3.68643088
v -1.99064802 12.71000000 -3.72424050
v -2.04586184 12.82712813 -3.82753829
v -2.12128532 12.87000000 -3.96864569
v -2.19670879 12.82712813 -4.10975309
v -2.25192261 12.71000000 -4.21305088
v -1.84453414 12.55000000 -4.45309935
v -1.82812779 12.39000000 -4.41349090
v -1.78330479 12.27287187 -4.30527862
v -1.72207545 12.23000000 -4.15745790
v -1.66084610 12.27287187 -4.00963717
v -1.61602310 12.39000000 -3.90142489
v -1.59961675 12.55000000 -3.86181645
v -1.61602310 12.71000000 -3.90142489
v -1.66084610 12.82712813 -4.00963717
v -1.72207545 12.87000000 -4.15745790
v -1.78330479 12.82712813 -4.30527862
v -1.82812779 12.71000000 -4.41349090
v -1.39917214 12.55000000 -4.61245242
v -1.38672710 12.39000000 -4.57142660
v -1.35272660 12.27287187 -4.45934196
v -1.30628105 12.23000000 -4.30623151
v -1.25983550 12.27287187 -4.15312106
v -1.22583500 12.39000000 -4.04103643
v -1.21338995 12.55000000 -4.00001060
v -1.22583500 12.71000000 -4.04103643
v -1.25983550 12.82712813 -4.15312106
v -1.30628105 12.87000000 -4.30623151
v -1.35272660 12.82712813 -4.45934196
v -1.38672710 12.71000000 -4.57142660
v -0.94033535 12.55000000 -4.72738505
v -0.93197147 12.39000000 -4.68533695
v -0.90912090 12.27287187 -4.57045941
v -0.87790645 12.23000000 -4.41353376
v -0.84669200 12.27287187 -4.25660812
v -0.82384143 12.39000000 -4.14173057
v -0.81547755 12.55000000 -4.09968247
v -0.82384143 12.71000000 -4.14173057
v -0.84669200 12.82712813 -4.25660812
v -0.87790645 12.87000000 -4.41353376
v -0.90912090 12.82712813 -4.57045941
v -0.93197147 12.71000000 -4.68533695
v -0.47244262 12.55000000 -4.79679038
v -0.46824044 12.39000000 -4.75412495
v -0.45675987 12.27287187 -4.63756083
v -0.44107713 12.23000000 -4.47833127
v -0.42539439 12.27287187 -4.31910171
v -0.41391382 12.39000000 -4.20253759
v -0.40971165 12.55000000 -4.15987216
v -0.41391382 12.71000000 -4.20253759
v -0.42539439 12.82712813 -4.31910171
v -0.44107713 12.87000000 -4.47833127
v -0.45675987 12.82712813 -4.63756083
v -0.46824044 12.71000000 -4.75412495
v -0.00000000 12.55000000 -4.82000000
v -0.00000000 12.39000000 -4.77712813
v -0.00000000 12.27287187 -4.66000000
v -0.00000000 12.23000000 -4.50000000
v -0.00000000 12.27287187 -4.34000000
v -0.00000000 12.39000000 -4.22287187
v -0.00000000 12.55000000 -4.18000000
v -0.00000000 12.71000000 -4.22287187
v -0.00000000 12.82712813 -4.34000000
v -0.00000000 12.87000000 -4.50000000
v -0.00000000 12.82712813 -4.66000000
v -0.00000000 12.71000000 -4.77712813
v 0.47244262 12.55000000 -4.79679038
v 0.46824044 12.39000000 -4.75412495
v 0.45675987 12.27287187 -4.63756083
v 0.44107713 12.23000000 -4.47833127
v 0.42539439 12.27287187 -4.31910171
v 0.41391382 12.39000000 -4.20253759
v 0.40971165 12.55000000 -4.15987216
v 0.41391382 12.71000000 -4.20253759
v 0.42539439 12.82712813 -4.31910171
v 0.44107713 12.87000000 -4.47833127
v 0.45675987 12.82712813 -4.63756083
v 0.46824044 12.71000000 -4.75412495
v 0.94033535 12.55000000 -4.72738505
v 0.93197147 12.39000000 -4.68533695
v 0.90912090 12.27287187 -4.57045941
v 0.87790645 12.23000000 -4.41353376
v 0.84669200 12.27287187 -4.25660812
v 0.82384143 12.39000000 -4.14173057
v 0.81547755 12.55000000 -4.09968247
v 0.82384143 12.71000000 -4.14173057
v 0.84669200 12.82712813 -4.25660812
v 0.87790645 12.87000000 -4.41353376
v 0.90912090 12.82712813 -4.57045941
v 0.93197147 12.71000000 -4.68533695
v 1.39917214 12.55000000 -4.61245242
v 1.38672710 12.39000000 -4.57142660
v 1.35272660 12.27287187 -4.45934196
v 1.30628105 12.23000000 -4.30623151
v 1.25983550 12.27287187 -4.15312106
v 1.22583500 12.39000000 -4.04103643
v 1.21338995 12.55000000 -4.00001060
v 1.22583500 12.71000000 -4.04103643
v 1.25983550 12.82712813 -4.15312106
v 1.30628105 12.87000000 -4.30623151
v 1.35272660 12.82712813 -4.45934196
v 1.38672710 12.71000000 -4.57142660
v 1.84453414 12.55000000 -4.45309935
v 1.82812779 12.39000000 -4.41349090
v 1.78330479 12.27287187 -4.30527862
v 1.72207545 12.23000000 -4.15745790
v 1.66084610 12.27287187 -4.00963717
v 1.61602310 12.39000000 -3.90142489
v 1.59961675 12.55000000 -3.86181645
v 1.61602310 12.71000000 -3.90142489
v 1.66084610 12.82712813 -4.00963717
v 1.72207545 12.87000000 -4.15745790
v 1.78330479 12.82712813 -4.30527862
v 1.82812779 12.71000000 -4.41349090
v 2.27213227 12.55000000 -4.25086049
v 2.25192261 12.39000000 -4.21305088
v 2.19670879 12.27287187 -4.10975309
v 2.12128532 12.23000000 -3.96864569
v 2.04586184 12.27287187 -3.82753829
v 1.99064802 12.39000000 -3.72424050
v 1.97043836 12.55000000 -3.68643088
v 1.99064802 12.71000000 -3.72424050
v 2.04586184 12.82712813 -3.82753829
v 2.12128532 12.87000000 -3.96864569
v 2.19670879 12.82712813 -4.10975309
v 2.25192261 12.71000000 -4.21305088
v 2.67784852 12.55000000 -4.00768353
v 2.65403019 12.39000000 -3.97203687
v 2.58895729 12.27287187 -3.87464839
v 2.50006605 12.23000000 -3.74161326
v 2.41117481 12.27287187 -3.60857812
v 2.34610191 12.39000000 -3.51118964
v 2.32228357 12.55000000 -3.47554298
v 2.34610191 12.71000000 -3.51118964
v 2.41117481 12.82712813 -3.60857812
v 2.50006605 12.87000000 -3.74161326
v 2.58895729 12.82712813 -3.87464839
v 2.65403019 12.71000000 -3.97203687
v 3.05777563 12.55000000 -3.72591039
v 3.03057800 12.39000000 -3.69276998
v 2.95627270 12.27287187 -3.60222871
v 2.85476978 12.23000000 -3.47854704
v 2.75326685 12.27287187 -3.35486537
v 2.67896155 12.39000000 -3.26432410
v 2.65176393 12.55000000 -3.23118370
v 2.67896155 12.71000000 -3.26432410
v 2.75326685 12.82712813 -3.35486537
v 2.85476978 12.87000000 -3.47854704
v 2.95627270 12.82712813 -3.60222871
v 3.03057800 12.71000000 -3.69276998
v 3.40825469 12.55000000 -3.40825469
v 3.37793969 12.39000000 -3.37793969
v 3.29511760 12.27287187 -3.29511760
v 3.18198052 12.23000000 -3.18198052
v 3.06884343 12.27287187 -3.06884343
v 2.98602134 12.39000000 -2.98602134
v 2.95570635 12.55000000 -2.95570635
v 2.98602134 12.71000000 -2.98602134
v 3.06884343 12.82712813 -3.06884343
v 3.18198052 12.87000000 -3.18198052
v 3.29511760 12.82712813 -3.29511760
v 3.37793969 12.71000000 -3.37793969
v 3.72591039 12.55000000 -3.05777563
v 3.69276998 12.39000000 -3.03057800
v 3.60222871 12.27287187 -2.95627270
v 3.47854704 12.23000000 -2.85476978
v 3.35486537 12.27287187 -2.75326685
v 3.26432410 12.39000000 -2.67896155
v 3.23118370 12.55000000 -2.65176393
v 3.26432410 12.71000000 -2.67896155
v 3.35486537 12.82712813 -2.75326685
v 3.47854704 12.87000000 -2.85476978
v 3.60222871 12.82712813 -2.95627270
v 3.69276998 12.71000000 -3.03057800
v 4.00768353 12.55000000 -2.67784852
v 3.97203687 12.39000000 -2.65403019
v 3.87464839 12.27287187 -2.58895729
v 3.74161326 12.23000000 -2.50006605
v 3.60857812 12.27287187 -2.41117481
v 3.51118964 12.39000000 -2.34610191
v 3.47554298 12.55000000 -2.32228357
v 3.51118964 12.71000000 -2.34610191
v 3.60857812 12.82712813 -2.41117481
v 3.74161326 12.87000000 -2.50006605
v 3.87464839 12.82712813 -2.58895729
v 3.97203687 12.71000000 -2.65403019
v 4.25086049 12.55000000 -2.27213227
v 4.21305088 12.39000000 -2.25192261
v 4.10975309 12.27287187 -2.19670879
v 3.96864569 12.23000000 -2.12128532
v 3.82753829 12.27287187 -2.04586184
v 3.72424050 12.39000000 -1.99064802
v 3.68643088 12.55000000 -1.97043836
v 3.72424050 12.71000000 -1.99064802
v 3.82753829 12.82712813 -2.04586184
v 3.96864569 12.87000000 -2.12128532
v 4.10975309 12.82712813 -2.19670879
v 4.21305088 12.71000000 -2.25192261
v 4.45309935 12.55000000 -1.84453414
v 4.41349090 12.39000000 -1.82812779
v 4.30527862 12.27287187 -1.78330479
v 4.15745790 12.23000000 -1.72207545
v 4.00963717 12.27287187 -1.66084610
v 3.90142489 12.39000000 -1.61602310
v 3.86181645 12.55000000 -1.59961675
v 3.90142489 12.71000000 -1.61602310
v 4.00963717 12.82712813 -1.66084610
v 4.15745790 12.87000000 -1.72207545
v 4.30527862 12.82712813 -1.78330479
v 4.41349090 12.71000000 -1.82812779
v 4.61245242 12.55000000 -1.39917214
v 4.57142660 12.39000000 -1.38672710
v 4.45934196 12.27287187 -1.35272660
v 4.30623151 12.23000000 -1.30628105
v 4.15312106 12.27287187 -1.25983550
v 4.04103643 12.39000000 -1.22583500
v 4.00001060 12.55000000 -1.21338995
v 4.04103643 12.71000000 -1.22583500
v 4.15312106 12.82712813 -1.25983550
v 4.30623151 12.87000000 -1.30628105
v 4.45934196 12.82712813 -1.35272660
v 4.57142660 12.71000000 -1.38672710
v 4.72738505 12.55000000 -0.94033535
v 4.68533695 12.39000000 -0.93197147
v 4.57045941 12.27287187 -0.90912090
v 4.41353376 12.23000000 -0.87790645
v 4.25660812 12.27287187 -0.84669200
v 4.14173057 12.39000000 -0.82384143
v 4.09968247 12.55000000 -0.81547755
v 4.14173057 12.71000000 -0.82384143
v 4.25660812 12.82712813 -0.84669200
v 4.41353376 12.87000000 -0.87790645
v 4.57045941 12.82712813 -0.90912090
v 4.68533695 12.71000000 -0.93197147
v 4.79679038 12.55000000 -0.47244262
v 4.75412495 12.39000000 -0.46824044
v 4.63756083 12.27287187 -0.45675987
v 4.47833127 12.23000000 -0.44107713
v 4.31910171 12.27287187 -0.42539439
v 4.20253759 12.39000000 -0.41391382
v 4.15987216 12.55000000 -0.40971165
v 4.20253759 12.71000000 -0.41391382
v 4.31910171 12.82712813 -0.42539439
v 4.47833127 12.87000000 -0.44107713
v 4.63756083 12.82712813 -0.45675987
v 4.75412495 12.71000000 -0.46824044
v -0.14000000 12.36000000 -2.20000000
v -0.14000000 12.36000000 2.20000000
v -0.14000000 12.74000000 -2.20000000
v -0.14000000 12.74000000 2.20000000
v 0.14000000 12.36000000 -2.20000000
v 0.14000000 12.36000000 2.20000000
v 0.14000000 12.74000000 -2.20000000
v 0.14000000 12.74000000 2.20000000
v -1.22124356 12.36000000 -1.83525589
v 0.97875644 12.36000000 1.97525589
v -1.22124356 12.74000000 -1.83525589
v 0.97875644 12.74000000 1.97525589
v -0.97875644 12.36000000 -1.97525589
v 1.22124356 12.36000000 1.83525589
v -0.97875644 12.74000000 -1.97525589
v 1.22124356 12.74000000 1.83525589
v -1.97525589 12.36000000 -0.97875644
v 1.83525589 12.36000000 1.22124356
v -1.97525589 12.74000000 -0.97875644
v 1.83525589 12.74000000 1.22124356
v -1.83525589 12.36000000 -1.22124356
v 1.97525589 12.36000000 0.97875644
v -1.83525589 12.74000000 -1.22124356
v 1.97525589 12.74000000 0.97875644
v -2.20000000 12.36000000 0.14000000
v 2.20000000 12.36000000 0.14000000
v -2.20000000 12.74000000 0.14000000
v 2.20000000 12.74000000 0.14000000
v -2.20000000 12.36000000 -0.14000000
v 2.20000000 12.36000000 -0.14000000
v -2.20000000 12.74000000 -0.14000000
v 2.20000000 12.74000000 -0.14000000
v -1.83525589 12.36000000 1.22124356
v 1.97525589 12.36000000 -0.97875644
v -1.83525589 12.74000000 1.22124356
v 1.97525589 12.74000000 -0.97875644
v -1.97525589 12.36000000 0.97875644
v 1.83525589 12.36000000 -1.22124356
v -1.97525589 12.74000000 0.97875644
v 1.83525589 12.74000000 -1.22124356
v -0.97875644 12.36000000 1.97525589
v 1.22124356 12.36000000 -1.83525589
v -0.97875644 12.74000000 1.97525589
v 1.22124356 12.74000000 -1.83525589
v -1.22124356 12.36000000 1.83525589
v 0.97875644 12.36000000 -1.97525589
v -1.22124356 12.74000000 1.83525589
v 0.97875644 12.74000000 -1.97525589
v 0.14000000 12.36000000 2.20000000
v 0.14000000 12.36000000 -2.20000000
v 0.14000000 12.74000000 2.20000000
v 0.14000000 12.74000000 -2.20000000
v -0.14000000 12.36000000 2.20000000
v -0.14000000 12.36000000 -2.20000000
v -0.14000000 12.74000000 2.20000000
v -0.14000000 12.74000000 -2.20000000
v 1.22124356 12.36000000 1.83525589
v -0.97875644 12.36000000 -1.97525589
v 1.22124356 12.74000000 1.83525589
v -0.97875644 12.74000000 -1.97525589
v 0.97875644 12.36000000 1.97525589
v -1.22124356 12.36000000 -1.83525589
v 0.97875644 12.74000000 1.97525589
v -1.22124356 12.74000000 -1.83525589
v 1.97525589 12.36000000 0.97875644
v -1.83525589 12.36000000 -1.22124356
v 1.97525589 12.74000000 0.97875644
v -1.83525589 12.74000000 -1.22124356
v 1.83525589 12.36000000 1.22124356
v -1.97525589 12.36000000 -0.97875644
v 1.83525589 12.74000000 1.22124356
v -1.97525589 12.74000000 -0.97875644
v 2.20000000 12.36000000 -0.14000000
v -2.20000000 12.36000000 -0.14000000
v 2.20000000 12.74000000 -0.14000000
v -2.20000000 12.74000000 -0.14000000
v 2.20000000 12.36000000 0.14000000
v -2.20000000 12.36000000 0.14000000
v 2.20000000 12.74000000 0.14000000
v -2.20000000 12.74000000 0.14000000
v 1.83525589 12.36000000 -1.22124356
v -1.97525589 12.36000000 0.97875644
v 1.83525589 12.74000000 -1.22124356
v -1.97525589 12.74000000 0.97875644
v 1.97525589 12.36000000 -0.97875644
v -1.83525589 12.36000000 1.22124356
v 1.97525589 12.74000000 -0.97875644
v -1.83525589 12.74000000 1.22124356
v 0.97875644 12.36000000 -1.97525589
v -1.22124356 12.36000000 1.83525589
v 0.97875644 12.74000000 -1.97525589
v -1.22124356 12.74000000 1.83525589
v 1.22124356 12.36000000 -1.83525589
v -0.97875644 12.36000000 1.97525589
v 1.22124356 12.74000000 -1.83525589
v -0.97875644 12.74000000 1.97525589
v -3.37428732 9.25881090 -0.78070340
v -3.44556103 9.16758471 -0.37697349
v -0.88867779 12.44024602 0.37697349
v -0.95995150 12.34901984 0.78070340
v -2.98028195 8.95098016 -0.78070340
v -3.05155565 8.85975398 -0.37697349
v -0.49467241 12.13241529 0.37697349
v -0.56594612 12.04118910 0.78070340
v -1.49107616 8.80795788 -0.78070340
v -1.51908290 8.69562898 -0.37697349
v -0.51436510 12.72533196 0.37697349
v -0.54237184 12.61300307 0.78070340
v -1.00592829 8.68699693 -0.78070340
v -1.03393503 8.57466804 -0.37697349
v -0.02921724 12.60437102 0.37697349
v -0.05722398 12.49204212 0.78070340
v 1.00592829 8.68699693 -0.78070340
v 1.03393503 8.57466804 -0.37697349
v 0.02921724 12.60437102 0.37697349
v 0.05722398 12.49204212 0.78070340
v 1.49107616 8.80795788 -0.78070340
v 1.51908290 8.69562898 -0.37697349
v 0.51436510 12.72533196 0.37697349
v 0.54237184 12.61300307 0.78070340
v 2.98028195 8.95098016 -0.78070340
v 3.05155565 8.85975398 -0.37697349
v 0.49467241 12.13241529 0.37697349
v 0.56594612 12.04118910 0.78070340
v 3.37428732 9.25881090 -0.78070340
v 3.44556103 9.16758471 -0.37697349
v 0.88867779 12.44024602 0.37697349
v 0.95995150 12.34901984 0.78070340
f 3 6 5
f 1 12 2
f 1 5 6
f 1 6 12
f 3 4 22
f 3 21 6
f 2 13 7
f 8 15 9
f 7 15 8
f 9 16 10
f 10 59 11
f 11 59 53
f 2 12 13
f 7 13 15
f 13 31 14
f 13 14 15
f 9 15 16
f 10 37 17
f 10 17 59
f 10 16 41
f 10 41 37
f 2 7 111
f 1 2 110
f 3 5 112
f 3 113 4
f 1 114 5
f 6 115 12
f 6 21 130
f 7 8 116
f 9 10 118
f 8 9 117
f 10 11 119
f 11 53 120
f 12 121 13
f 13 122 31
f 14 123 15
f 15 124 16
f 17 126 59
f 17 37 146
f 18 19 22
f 19 20 43
f 4 18 22
f 3 22 21
f 21 22 30
f 19 23 22
f 19 43 23
f 20 24 27
f 24 25 27
f 25 26 27
f 20 27 43
f 26 28 27
f 26 229 28
f 29 33 31
f 14 31 32
f 31 33 32
f 32 33 39
f 32 39 38
f 33 34 35
f 33 35 39
f 16 36 41
f 37 41 74
f 36 38 40
f 38 39 40
f 36 40 41
f 40 42 41
f 34 44 35
f 35 44 46
f 44 45 46
f 45 50 46
f 45 47 51
f 47 230 51
f 51 230 232
f 48 50 49
f 40 89 42
f 40 48 49
f 40 49 89
f 45 277 50
f 45 51 277
f 49 50 52
f 50 277 52
f 51 237 277
f 18 128 19
f 4 127 18
f 19 129 20
f 22 131 30
f 22 23 132
f 20 133 24
f 24 134 25
f 25 135 26
f 27 136 43
f 27 28 137
f 29 31 140
f 21 30 138
f 29 139 33
f 14 32 141
f 32 38 147
f 33 142 34
f 35 144 39
f 16 125 36
f 36 145 38
f 37 74 183
f 41 150 74
f 39 148 40
f 41 42 151
f 23 43 153
f 34 143 44
f 44 152 45
f 35 46 155
f 28 229 352
f 47 156 230
f 45 154 47
f 46 50 159
f 51 232 355
f 40 149 48
f 48 157 50
f 42 89 198
f 49 158 89
f 51 160 237
f 49 52 161
f 52 277 400
f 53 59 54
f 54 60 55
f 55 61 56
f 56 61 57
f 57 64 58
f 58 65 66
f 54 59 60
f 55 62 61
f 55 60 72
f 55 76 62
f 55 72 76
f 57 61 64
f 58 63 65
f 58 64 63
f 66 69 67
f 65 69 66
f 67 69 68
f 68 69 100
f 68 100 70
f 70 101 71
f 53 54 162
f 54 55 163
f 55 56 164
f 56 57 165
f 57 58 166
f 58 66 167
f 59 168 60
f 60 169 72
f 61 62 171
f 61 170 64
f 63 81 190
f 63 172 65
f 65 174 69
f 66 67 175
f 67 68 176
f 68 70 177
f 69 178 100
f 70 71 179
f 71 103 180
f 72 73 76
f 62 76 75
f 75 76 77
f 75 77 90
f 75 90 79
f 75 79 80
f 75 80 78
f 63 64 82
f 63 82 81
f 81 82 86
f 81 85 83
f 78 80 82
f 80 86 82
f 81 86 85
f 85 86 87
f 77 88 90
f 79 90 91
f 90 92 91
f 92 276 93
f 94 276 279
f 91 92 93
f 93 276 96
f 94 96 276
f 86 95 87
f 87 95 97
f 93 96 95
f 95 96 97
f 94 99 96
f 94 286 99
f 99 286 290
f 70 100 101
f 84 101 100
f 71 101 102
f 71 102 103
f 98 104 102
f 102 104 103
f 104 106 105
f 98 106 104
f 105 106 107
f 107 289 109
f 105 107 108
f 107 109 108
f 109 289 312
f 72 181 73
f 73 182 76
f 62 75 184
f 75 78 187
f 76 185 77
f 79 188 80
f 64 173 82
f 78 82 191
f 81 83 192
f 83 85 194
f 84 193 101
f 80 189 86
f 85 87 196
f 77 186 88
f 88 197 90
f 79 91 200
f 90 199 92
f 92 201 276
f 91 93 202
f 94 279 402
f 86 195 95
f 93 95 204
f 87 97 207
f 98 206 106
f 96 205 97
f 96 99 208
f 94 203 286
f 99 290 413
f 84 100 209
f 101 210 102
f 103 104 212
f 104 105 213
f 105 108 214
f 98 102 211
f 106 215 107
f 107 216 289
f 108 109 217
f 109 312 218
f 1 110 114
f 2 111 110
f 3 112 113
f 4 113 127
f 5 114 112
f 6 130 115
f 8 117 116
f 9 118 117
f 7 116 111
f 10 119 118
f 11 120 119
f 53 162 120
f 12 115 121
f 13 121 122
f 31 122 140
f 15 123 124
f 16 124 125
f 59 126 168
f 17 146 126
f 110 111 115
f 110 115 114
f 111 121 115
f 112 114 130
f 112 131 113
f 114 115 130
f 111 116 121
f 116 117 123
f 117 118 124
f 118 119 124
f 119 120 126
f 120 162 168
f 116 122 121
f 116 123 122
f 117 124 123
f 119 125 124
f 119 126 146
f 120 168 126
f 119 150 125
f 119 146 150
f 18 127 128
f 19 128 129
f 20 129 133
f 21 138 130
f 22 132 131
f 24 133 134
f 25 134 135
f 23 153 132
f 27 137 136
f 28 352 137
f 30 131 138
f 29 140 139
f 33 139 142
f 14 141 123
f 32 147 141
f 34 142 143
f 39 144 148
f 36 125 145
f 38 145 147
f 37 183 146
f 74 150 183
f 40 148 149
f 41 151 150
f 43 136 153
f 44 143 152
f 45 152 154
f 35 155 144
f 46 159 155
f 156 353 230
f 47 154 156
f 51 355 160
f 48 149 157
f 42 198 151
f 89 158 198
f 50 157 159
f 160 360 237
f 49 161 158
f 52 400 161
f 127 132 128
f 128 136 129
f 113 132 127
f 113 131 132
f 112 130 131
f 130 138 131
f 128 132 153
f 129 136 133
f 133 137 134
f 134 137 135
f 128 153 136
f 133 136 137
f 135 137 352
f 139 140 142
f 122 123 141
f 122 141 140
f 140 141 142
f 141 147 142
f 142 147 148
f 142 144 143
f 142 148 144
f 125 151 145
f 125 150 151
f 146 183 150
f 145 148 147
f 145 149 148
f 145 151 149
f 143 144 155
f 143 155 152
f 152 159 154
f 152 155 159
f 154 355 156
f 154 160 355
f 156 355 353
f 149 151 158
f 149 158 157
f 151 198 158
f 154 159 400
f 154 400 160
f 157 161 159
f 157 158 161
f 159 161 400
f 160 400 360
f 54 163 162
f 55 164 163
f 56 165 164
f 57 166 165
f 58 167 166
f 60 168 169
f 72 169 181
f 61 171 170
f 64 170 173
f 63 190 172
f 65 172 174
f 66 175 167
f 67 176 175
f 68 177 176
f 69 174 178
f 100 178 209
f 70 179 177
f 71 180 179
f 162 163 168
f 163 164 168
f 164 165 171
f 165 166 171
f 166 167 170
f 167 175 170
f 164 169 168
f 164 181 169
f 166 170 171
f 164 171 185
f 164 185 181
f 170 175 172
f 172 175 174
f 170 172 173
f 172 190 173
f 174 175 176
f 174 176 178
f 176 177 178
f 177 179 178
f 178 179 180
f 178 180 209
f 73 181 182
f 76 182 185
f 62 184 171
f 75 187 184
f 77 185 186
f 80 188 189
f 82 173 191
f 78 191 187
f 81 192 190
f 83 194 192
f 84 209 193
f 85 196 194
f 86 189 195
f 88 186 197
f 90 197 199
f 79 200 188
f 91 202 200
f 92 199 201
f 201 399 276
f 94 402 203
f 95 195 204
f 87 207 196
f 97 205 207
f 98 211 206
f 93 204 202
f 96 208 205
f 203 409 286
f 99 413 208
f 216 412 289
f 101 193 210
f 102 210 211
f 103 212 180
f 104 213 212
f 105 214 213
f 106 206 215
f 107 215 216
f 108 217 214
f 109 218 217
f 218 312 435
f 181 185 182
f 171 184 185
f 184 187 185
f 185 187 186
f 186 187 188
f 187 189 188
f 173 190 191
f 190 192 191
f 189 191 192
f 187 191 189
f 189 192 194
f 189 194 196
f 189 196 195
f 186 199 197
f 186 188 200
f 186 200 199
f 199 200 201
f 201 202 399
f 203 402 399
f 200 202 201
f 202 205 399
f 203 399 205
f 195 196 204
f 196 207 204
f 202 204 205
f 204 207 205
f 203 205 208
f 203 208 413
f 203 413 409
f 180 193 209
f 180 210 193
f 180 212 210
f 210 213 211
f 206 211 213
f 210 212 213
f 206 213 214
f 206 214 215
f 215 435 216
f 216 435 412
f 214 217 215
f 215 217 218
f 215 218 435
f 26 219 229
f 219 220 221
f 220 223 222
f 219 221 229
f 220 222 221
f 222 226 235
f 222 223 224
f 222 224 225
f 222 225 226
f 225 257 226
f 226 257 227
f 227 228 247
f 230 231 232
f 231 233 232
f 231 236 233
f 234 243 236
f 233 236 243
f 233 243 240
f 240 244 241
f 240 243 244
f 237 239 277
f 237 238 239
f 238 242 239
f 238 240 250
f 240 241 250
f 238 250 242
f 242 252 283
f 243 245 244
f 244 245 246
f 245 248 249
f 245 249 246
f 246 249 254
f 249 255 254
f 249 264 255
f 242 250 251
f 242 251 267
f 242 270 252
f 251 254 255
f 251 255 267
f 252 270 253
f 242 267 270
f 253 256 299
f 253 270 256
f 26 342 219
f 219 343 220
f 221 344 229
f 221 222 345
f 226 349 235
f 220 346 223
f 223 347 224
f 224 348 225
f 226 227 350
f 228 351 247
f 230 353 231
f 231 354 236
f 232 233 356
f 234 236 359
f 222 235 357
f 234 358 243
f 233 240 363
f 241 244 367
f 237 360 238
f 239 362 277
f 239 242 365
f 238 361 240
f 241 364 250
f 242 283 406
f 252 375 283
f 243 366 245
f 244 246 369
f 227 247 371
f 245 368 248
f 248 370 249
f 246 254 377
f 250 373 251
f 252 253 376
f 251 374 254
f 255 378 267
f 253 299 422
f 256 379 299
f 227 257 258
f 227 258 260
f 227 260 228
f 228 260 259
f 259 260 261
f 259 262 263
f 259 261 262
f 249 265 264
f 264 265 271
f 263 271 265
f 264 271 266
f 256 270 268
f 268 270 274
f 268 275 321
f 262 271 263
f 266 271 272
f 266 273 269
f 266 272 273
f 269 274 270
f 269 273 274
f 268 274 275
f 275 330 321
f 225 380 257
f 257 381 258
f 228 259 382
f 258 383 260
f 260 384 261
f 261 385 262
f 259 263 386
f 263 265 388
f 249 372 265
f 255 264 387
f 264 266 389
f 266 269 392
f 267 390 270
f 256 268 391
f 268 321 444
f 269 270 393
f 262 394 271
f 271 395 272
f 272 396 273
f 273 397 274
f 274 398 275
f 275 453 330
f 276 278 279
f 278 280 279
f 278 281 280
f 281 282 294
f 281 294 296
f 280 281 284
f 281 296 285
f 286 287 290
f 286 288 287
f 287 288 291
f 284 291 288
f 281 293 284
f 284 293 291
f 281 285 293
f 285 303 304
f 285 304 293
f 294 295 296
f 295 297 296
f 295 298 300
f 295 302 297
f 295 300 302
f 297 302 301
f 300 323 302
f 303 305 304
f 304 305 306
f 301 307 305
f 305 309 306
f 305 307 309
f 301 302 326
f 301 326 307
f 289 310 312
f 310 311 312
f 292 318 311
f 311 313 312
f 311 314 313
f 311 318 314
f 292 315 319
f 315 316 319
f 316 308 320
f 338 308 317
f 320 308 338
f 292 319 318
f 316 320 319
f 276 399 278
f 278 401 281
f 279 280 403
f 281 404 282
f 282 405 294
f 280 284 407
f 285 296 419
f 286 409 288
f 287 291 414
f 287 410 290
f 289 412 310
f 284 288 411
f 285 408 303
f 291 293 416
f 293 304 427
f 292 415 315
f 294 417 295
f 296 297 420
f 295 418 298
f 298 421 300
f 297 301 424
f 303 426 305
f 304 306 429
f 301 305 428
f 302 425 326
f 306 309 431
f 310 433 311
f 292 311 434
f 312 313 435
f 313 314 436
f 314 318 437
f 315 438 316
f 316 439 308
f 318 319 441
f 320 338 443
f 319 320 442
f 300 322 323
f 322 324 323
f 321 333 322
f 322 333 324
f 324 334 325
f 326 329 307
f 329 327 307
f 329 328 327
f 325 335 329
f 329 341 328
f 321 330 331
f 321 331 332
f 321 332 333
f 324 333 334
f 325 334 335
f 329 335 340
f 338 317 336
f 338 336 339
f 341 336 328
f 337 336 341
f 329 340 341
f 337 339 336
f 300 423 322
f 321 322 445
f 302 323 446
f 323 324 447
f 324 325 448
f 326 449 329
f 325 329 452
f 330 454 331
f 331 455 332
f 333 457 334
f 332 456 333
f 334 458 335
f 337 341 460
f 338 339 461
f 337 462 339
f 340 464 341
f 335 463 340
f 26 135 342
f 219 342 343
f 220 343 346
f 221 345 344
f 222 357 345
f 223 346 347
f 224 347 348
f 225 348 380
f 226 350 349
f 227 371 350
f 229 344 352
f 231 353 354
f 232 356 355
f 236 354 359
f 235 349 357
f 234 359 358
f 243 358 366
f 233 363 356
f 241 367 364
f 238 360 361
f 277 362 400
f 239 365 362
f 240 361 363
f 250 364 373
f 242 406 365
f 283 375 406
f 244 369 367
f 245 366 368
f 247 351 371
f 248 368 370
f 249 370 372
f 246 377 369
f 255 387 378
f 251 373 374
f 252 376 375
f 254 374 377
f 253 422 376
f 299 379 422
f 135 352 342
f 342 345 343
f 343 345 346
f 342 352 344
f 342 344 345
f 345 357 346
f 346 357 347
f 347 350 348
f 347 357 349
f 347 349 350
f 348 350 380
f 350 371 351
f 350 351 381
f 353 355 354
f 354 355 356
f 354 356 359
f 358 359 363
f 356 363 359
f 358 363 366
f 361 367 366
f 360 400 362
f 360 362 361
f 361 362 365
f 361 366 363
f 361 365 364
f 361 364 367
f 364 365 373
f 365 406 373
f 373 406 375
f 366 367 369
f 366 369 368
f 368 372 370
f 368 369 372
f 369 377 372
f 372 377 387
f 377 378 387
f 373 375 376
f 373 376 374
f 374 378 377
f 374 390 378
f 374 376 390
f 376 422 379
f 376 379 390
f 257 380 381
f 258 381 383
f 228 382 351
f 259 386 382
f 260 383 384
f 261 384 385
f 262 385 394
f 263 388 386
f 265 372 388
f 264 389 387
f 266 392 389
f 267 378 390
f 270 390 393
f 256 391 379
f 268 444 391
f 269 393 392
f 271 394 395
f 272 395 396
f 273 396 397
f 274 397 398
f 275 398 453
f 350 381 380
f 351 382 381
f 381 382 383
f 382 384 383
f 382 386 384
f 384 386 385
f 372 387 389
f 372 389 388
f 385 386 388
f 388 389 394
f 389 392 394
f 379 391 390
f 390 391 393
f 391 444 393
f 393 444 397
f 385 388 394
f 392 395 394
f 392 396 395
f 392 393 396
f 393 397 396
f 397 444 398
f 398 444 453
f 278 399 401
f 281 401 404
f 279 403 402
f 282 404 405
f 294 405 417
f 280 407 403
f 285 419 408
f 288 409 411
f 287 414 410
f 290 410 413
f 284 411 407
f 303 408 426
f 291 416 414
f 293 427 416
f 292 434 415
f 295 417 418
f 296 420 419
f 298 418 421
f 300 421 423
f 297 424 420
f 302 446 425
f 304 429 427
f 305 426 428
f 301 428 424
f 306 431 429
f 439 432 308
f 310 412 433
f 311 433 434
f 315 415 438
f 313 436 435
f 314 437 436
f 316 438 439
f 318 441 437
f 319 442 441
f 320 443 442
f 399 402 401
f 401 402 403
f 401 403 419
f 401 419 404
f 404 417 405
f 403 407 419
f 407 408 419
f 409 413 410
f 409 410 411
f 410 414 411
f 407 411 414
f 407 426 408
f 407 414 427
f 407 427 426
f 414 416 427
f 404 419 420
f 404 420 446
f 418 423 421
f 404 454 417
f 420 424 446
f 424 425 446
f 426 427 429
f 426 429 428
f 424 428 425
f 428 429 430
f 425 428 449
f 428 430 450
f 428 450 449
f 429 431 430
f 412 436 433
f 415 434 438
f 433 441 434
f 412 435 436
f 433 436 437
f 433 437 441
f 434 461 438
f 439 440 432
f 438 462 439
f 434 443 461
f 438 461 462
f 434 441 442
f 434 442 443
f 322 423 445
f 321 445 444
f 323 447 446
f 324 448 447
f 326 425 449
f 329 449 452
f 325 452 448
f 330 453 454
f 331 454 455
f 332 455 456
f 335 458 463
f 333 456 457
f 334 457 458
f 337 460 462
f 338 461 443
f 339 462 461
f 340 463 464
f 341 464 460
f 417 454 418
f 404 446 454
f 418 454 423
f 423 454 445
f 446 447 454
f 444 445 454
f 449 458 452
f 449 450 458
f 458 450 451
f 444 454 453
f 447 448 454
f 448 456 455
f 448 455 454
f 448 452 456
f 452 457 456
f 452 458 457
f 458 451 463
f 439 464 440
f 464 459 440
f 439 460 464
f 439 462 460
f 463 451 459
f 463 459 464
f 308 432 317
f 309 307 430
f 307 327 450
f 327 328 451
f 336 317 440
f 328 336 459
f 309 430 431
f 317 432 440
f 450 430 307
f 451 450 327
f 328 459 451
f 336 440 459
f 465 477 466
f 466 477 478
f 466 478 467
f 467 478 479
f 467 479 468
f 468 479 480
f 468 480 469
f 469 480 481
f 469 481 470
f 470 481 482
f 470 482 471
f 471 482 483
f 471 483 472
f 472 483 484
f 472 484 473
f 473 484 485
f 473 485 474
f 474 485 486
f 474 486 475
f 475 486 487
f 475 487 476
f 476 487 488
f 476 488 465
f 465 488 477
f 477 489 478
f 478 489 490
f 478 490 479
f 479 490 491
f 479 491 480
f 480 491 492
f 480 492 481
f 481 492 493
f 481 493 482
f 482 493 494
f 482 494 483
f 483 494 495
f 483 495 484
f 484 495 496
f 484 496 485
f 485 496 497
f 485 497 486
f 486 497 498
f 486 498 487
f 487 498 499
f 487 499 488
f 488 499 500
f 488 500 477
f 477 500 489
f 489 501 490
f 490 501 502
f 490 502 491
f 491 502 503
f 491 503 492
f 492 503 504
f 492 504 493
f 493 504 505
f 493 505 494
f 494 505 506
f 494 506 495
f 495 506 507
f 495 507 496
f 496 507 508
f 496 508 497
f 497 508 509
f 497 509 498
f 498 509 510
f 498 510 499
f 499 510 511
f 499 511 500
f 500 511 512
f 500 512 489
f 489 512 501
f 501 513 502
f 502 513 514
f 502 514 503
f 503 514 515
f 503 515 504
f 504 515 516
f 504 516 505
f 505 516 517
f 505 517 506
f 506 517 518
f 506 518 507
f 507 518 519
f 507 519 508
f 508 519 520
f 508 520 509
f 509 520 521
f 509 521 510
f 510 521 522
f 510 522 511
f 511 522 523
f 511 523 512
f 512 523 524
f 512 524 501
f 501 524 513
f 513 525 514
f 514 525 526
f 514 526 515
f 515 526 527
f 515 527 516
f 516 527 528
f 516 528 517
f 517 528 529
f 517 529 518
f 518 529 530
f 518 530 519
f 519 530 531
f 519 531 520
f 520 531 532
f 520 532 521
f 521 532 533
f 521 533 522
f 522 533 534
f 522 534 523
f 523 534 535
f 523 535 524
f 524 535 536
f 524 536 513
f 513 536 525
f 525 537 526
f 526 537 538
f 526 538 527
f 527 538 539
f 527 539 528
f 528 539 540
f 528 540 529
f 529 540 541
f 529 541 530
f 530 541 542
f 530 542 531
f 531 542 543
f 531 543 532
f 532 543 544
f 532 544 533
f 533 544 545
f 533 545 534
f 534 545 546
f 534 546 535
f 535 546 547
f 535 547 536
f 536 547 548
f 536 548 525
f 525 548 537
f 537 549 538
f 538 549 550
f 538 550 539
f 539 550 551
f 539 551 540
f 540 551 552
f 540 552 541
f 541 552 553
f 541 553 542
f 542 553 554
f 542 554 543
f 543 554 555
f 543 555 544
f 544 555 556
f 544 556 545
f 545 556 557
f 545 557 546
f 546 557 558
f 546 558 547
f 547 558 559
f 547 559 548
f 548 559 560
f 548 560 537
f 537 560 549
f 549 561 550
f 550 561 562
f 550 562 551
f 551 562 563
f 551 563 552
f 552 563 564
f 552 564 553
f 553 564 565
f 553 565 554
f 554 565 566
f 554 566 555
f 555 566 567
f 555 567 556
f 556 567 568
f 556 568 557
f 557 568 569
f 557 569 558
f 558 569 570
f 558 570 559
f 559 570 571
f 559 571 560
f 560 571 572
f 560 572 549
f 549 572 561
f 561 573 562
f 562 573 574
f 562 574 563
f 563 574 575
f 563 575 564
f 564 575 576
f 564 576 565
f 565 576 577
f 565 577 566
f 566 577 578
f 566 578 567
f 567 578 579
f 567 579 568
f 568 579 580
f 568 580 569
f 569 580 581
f 569 581 570
f 570 581 582
f 570 582 571
f 571 582 583
f 571 583 572
f 572 583 584
f 572 584 561
f 561 584 573
f 573 585 574
f 574 585 586
f 574 586 575
f 575 586 587
f 575 587 576
f 576 587 588
f 576 588 577
f 577 588 589
f 577 589 578
f 578 589 590
f 578 590 579
f 579 590 591
f 579 591 580
f 580 591 592
f 580 592 581
f 581 592 593
f 581 593 582
f 582 593 594
f 582 594 583
f 583 594 595
f 583 595 584
f 584 595 596
f 584 596 573
f 573 596 585
f 585 597 586
f 586 597 598
f 586 598 587
f 587 598 599
f 587 599 588
f 588 599 600
f 588 600 589
f 589 600 601
f 589 601 590
f 590 601 602
f 590 602 591
f 591 602 603
f 591 603 592
f 592 603 604
f 592 604 593
f 593 604 605
f 593 605 594
f 594 605 606
f 594 606 595
f 595 606 607
f 595 607 596
f 596 607 608
f 596 608 585
f 585 608 597
f 597 609 598
f 598 609 610
f 598 610 599
f 599 610 611
f 599 611 600
f 600 611 612
f 600 612 601
f 601 612 613
f 601 613 602
f 602 613 614
f 602 614 603
f 603 614 615
f 603 615 604
f 604 615 616
f 604 616 605
f 605 616 617
f 605 617 606
f 606 617 618
f 606 618 607
f 607 618 619
f 607 619 608
f 608 619 620
f 608 620 597
f 597 620 609
f 609 621 610
f 610 621 622
f 610 622 611
f 611 622 623
f 611 623 612
f 612 623 624
f 612 624 613
f 613 624 625
f 613 625 614
f 614 625 626
f 614 626 615
f 615 626 627
f 615 627 616
f 616 627 628
f 616 628 617
f 617 628 629
f 617 629 618
f 618 629 630
f 618 630 619
f 619 630 631
f 619 631 620
f 620 631 632
f 620 632 609
f 609 632 621
f 621 633 622
f 622 633 634
f 622 634 623
f 623 634 635
f 623 635 624
f 624 635 636
f 624 636 625
f 625 636 637
f 625 637 626
f 626 637 638
f 626 638 627
f 627 638 639
f 627 639 628
f 628 639 640
f 628 640 629
f 629 640 641
f 629 641 630
f 630 641 642
f 630 642 631
f 631 642 643
f 631 643 632
f 632 643 644
f 632 644 621
f 621 644 633
f 633 645 634
f 634 645 646
f 634 646 635
f 635 646 647
f 635 647 636
f 636 647 648
f 636 648 637
f 637 648 649
f 637 649 638
f 638 649 650
f 638 650 639
f 639 650 651
f 639 651 640
f 640 651 652
f 640 652 641
f 641 652 653
f 641 653 642
f 642 653 654
f 642 654 643
f 643 654 655
f 643 655 644
f 644 655 656
f 644 656 633
f 633 656 645
f 645 657 646
f 646 657 658
f 646 658 647
f 647 658 659
f 647 659 648
f 648 659 660
f 648 660 649
f 649 660 661
f 649 661 650
f 650 661 662
f 650 662 651
f 651 662 663
f 651 663 652
f 652 663 664
f 652 664 653
f 653 664 665
f 653 665 654
f 654 665 666
f 654 666 655
f 655 666 667
f 655 667 656
f 656 667 668
f 656 668 645
f 645 668 657
f 657 669 658
f 658 669 670
f 658 670 659
f 659 670 671
f 659 671 660
f 660 671 672
f 660 672 661
f 661 672 673
f 661 673 662
f 662 673 674
f 662 674 663
f 663 674 675
f 663 675 664
f 664 675 676
f 664 676 665
f 665 676 677
f 665 677 666
f 666 677 678
f 666 678 667
f 667 678 679
f 667 679 668
f 668 679 680
f 668 680 657
f 657 680 669
f 669 681 670
f 670 681 682
f 670 682 671
f 671 682 683
f 671 683 672
f 672 683 684
f 672 684 673
f 673 684 685
f 673 685 674
f 674 685 686
f 674 686 675
f 675 686 687
f 675 687 676
f 676 687 688
f 676 688 677
f 677 688 689
f 677 689 678
f 678 689 690
f 678 690 679
f 679 690 691
f 679 691 680
f 680 691 692
f 680 692 669
f 669 692 681
f 681 693 682
f 682 693 694
f 682 694 683
f 683 694 695
f 683 695 684
f 684 695 696
f 684 696 685
f 685 696 697
f 685 697 686
f 686 697 698
f 686 698 687
f 687 698 699
f 687 699 688
f 688 699 700
f 688 700 689
f 689 700 701
f 689 701 690
f 690 701 702
f 690 702 691
f 691 702 703
f 691 703 692
f 692 703 704
f 692 704 681
f 681 704 693
f 693 705 694
f 694 705 706
f 694 706 695
f 695 706 707
f 695 707 696
f 696 707 708
f 696 708 697
f 697 708 709
f 697 709 698
f 698 709 710
f 698 710 699
f 699 710 711
f 699 711 700
f 700 711 712
f 700 712 701
f 701 712 713
f 701 713 702
f 702 713 714
f 702 714 703
f 703 714 715
f 703 715 704
f 704 715 716
f 704 716 693
f 693 716 705
f 705 717 706
f 706 717 718
f 706 718 707
f 707 718 719
f 707 719 708
f 708 719 720
f 708 720 709
f 709 720 721
f 709 721 710
f 710 721 722
f 710 722 711
f 711 722 723
f 711 723 712
f 712 723 724
f 712 724 713
f 713 724 725
f 713 725 714
f 714 725 726
f 714 726 715
f 715 726 727
f 715 727 716
f 716 727 728
f 716 728 705
f 705 728 717
f 717 729 718
f 718 729 730
f 718 730 719
f 719 730 731
f 719 731 720
f 720 731 732
f 720 732 721
f 721 732 733
f 721 733 722
f 722 733 734
f 722 734 723
f 723 734 735
f 723 735 724
f 724 735 736
f 724 736 725
f 725 736 737
f 725 737 726
f 726 737 738
f 726 738 727
f 727 738 739
f 727 739 728
f 728 739 740
f 728 740 717
f 717 740 729
f 729 741 730
f 730 741 742
f 730 742 731
f 731 742 743
f 731 743 732
f 732 743 744
f 732 744 733
f 733 744 745
f 733 745 734
f 734 745 746
f 734 746 735
f 735 746 747
f 735 747 736
f 736 747 748
f 736 748 737
f 737 748 749
f 737 749 738
f 738 749 750
f 738 750 739
f 739 750 751
f 739 751 740
f 740 751 752
f 740 752 729
f 729 752 741
f 741 753 742
f 742 753 754
f 742 754 743
f 743 754 755
f 743 755 744
f 744 755 756
f 744 756 745
f 745 756 757
f 745 757 746
f 746 757 758
f 746 758 747
f 747 758 759
f 747 759 748
f 748 759 760
f 748 760 749
f 749 760 761
f 749 761 750
f 750 761 762
f 750 762 751
f 751 762 763
f 751 763 752
f 752 763 764
f 752 764 741
f 741 764 753
f 753 765 754
f 754 765 766
f 754 766 755
f 755 766 767
f 755 767 756
f 756 767 768
f 756 768 757
f 757 768 769
f 757 769 758
f 758 769 770
f 758 770 759
f 759 770 771
f 759 771 760
f 760 771 772
f 760 772 761
f 761 772 773
f 761 773 762
f 762 773 774
f 762 774 763
f 763 774 775
f 763 775 764
f 764 775 776
f 764 776 753
f 753 776 765
f 765 777 766
f 766 777 778
f 766 778 767
f 767 778 779
f 767 779 768
f 768 779 780
f 768 780 769
f 769 780 781
f 769 781 770
f 770 781 782
f 770 782 771
f 771 782 783
f 771 783 772
f 772 783 784
f 772 784 773
f 773 784 785
f 773 785 774
f 774 785 786
f 774 786 775
f 775 786 787
f 775 787 776
f 776 787 788
f 776 788 765
f 765 788 777
f 777 789 778
f 778 789 790
f 778 790 779
f 779 790 791
f 779 791 780
f 780 791 792
f 780 792 781
f 781 792 793
f 781 793 782
f 782 793 794
f 782 794 783
f 783 794 795
f 783 795 784
f 784 795 796
f 784 796 785
f 785 796 797
f 785 797 786
f 786 797 798
f 786 798 787
f 787 798 799
f 787 799 788
f 788 799 800
f 788 800 777
f 777 800 789
f 789 801 790
f 790 801 802
f 790 802 791
f 791 802 803
f 791 803 792
f 792 803 804
f 792 804 793
f 793 804 805
f 793 805 794
f 794 805 806
f 794 806 795
f 795 806 807
f 795 807 796
f 796 807 808
f 796 808 797
f 797 808 809
f 797 809 798
f 798 809 810
f 798 810 799
f 799 810 811
f 799 811 800
f 800 811 812
f 800 812 789
f 789 812 801
f 801 813 802
f 802 813 814
f 802 814 803
f 803 814 815
f 803 815 804
f 804 815 816
f 804 816 805
f 805 816 817
f 805 817 806
f 806 817 818
f 806 818 807
f 807 818 819
f 807 819 808
f 808 819 820
f 808 820 809
f 809 820 821
f 809 821 810
f 810 821 822
f 810 822 811
f 811 822 823
f 811 823 812
f 812 823 824
f 812 824 801
f 801 824 813
f 813 825 814
f 814 825 826
f 814 826 815
f 815 826 827
f 815 827 816
f 816 827 828
f 816 828 817
f 817 828 829
f 817 829 818
f 818 829 830
f 818 830 819
f 819 830 831
f 819 831 820
f 820 831 832
f 820 832 821
f 821 832 833
f 821 833 822
f 822 833 834
f 822 834 823
f 823 834 835
f 823 835 824
f 824 835 836
f 824 836 813
f 813 836 825
f 825 837 826
f 826 837 838
f 826 838 827
f 827 838 839
f 827 839 828
f 828 839 840
f 828 840 829
f 829 840 841
f 829 841 830
f 830 841 842
f 830 842 831
f 831 842 843
f 831 843 832
f 832 843 844
f 832 844 833
f 833 844 845
f 833 845 834
f 834 845 846
f 834 846 835
f 835 846 847
f 835 847 836
f 836 847 848
f 836 848 825
f 825 848 837
f 837 849 838
f 838 849 850
f 838 850 839
f 839 850 851
f 839 851 840
f 840 851 852
f 840 852 841
f 841 852 853
f 841 853 842
f 842 853 854
f 842 854 843
f 843 854 855
f 843 855 844
f 844 855 856
f 844 856 845
f 845 856 857
f 845 857 846
f 846 857 858
f 846 858 847
f 847 858 859
f 847 859 848
f 848 859 860
f 848 860 837
f 837 860 849
f 849 861 850
f 850 861 862
f 850 862 851
f 851 862 863
f 851 863 852
f 852 863 864
f 852 864 853
f 853 864 865
f 853 865 854
f 854 865 866
f 854 866 855
f 855 866 867
f 855 867 856
f 856 867 868
f 856 868 857
f 857 868 869
f 857 869 858
f 858 869 870
f 858 870 859
f 859 870 871
f 859 871 860
f 860 871 872
f 860 872 849
f 849 872 861
f 861 873 862
f 862 873 874
f 862 874 863
f 863 874 875
f 863 875 864
f 864 875 876
f 864 876 865
f 865 876 877
f 865 877 866
f 866 877 878
f 866 878 867
f 867 878 879
f 867 879 868
f 868 879 880
f 868 880 869
f 869 880 881
f 869 881 870
f 870 881 882
f 870 882 871
f 871 882 883
f 871 883 872
f 872 883 884
f 872 884 861
f 861 884 873
f 873 885 874
f 874 885 886
f 874 886 875
f 875 886 887
f 875 887 876
f 876 887 888
f 876 888 877
f 877 888 889
f 877 889 878
f 878 889 890
f 878 890 879
f 879 890 891
f 879 891 880
f 880 891 892
f 880 892 881
f 881 892 893
f 881 893 882
f 882 893 894
f 882 894 883
f 883 894 895
f 883 895 884
f 884 895 896
f 884 896 873
f 873 896 885
f 885 897 886
f 886 897 898
f 886 898 887
f 887 898 899
f 887 899 888
f 888 899 900
f 888 900 889
f 889 900 901
f 889 901 890
f 890 901 902
f 890 902 891
f 891 902 903
f 891 903 892
f 892 903 904
f 892 904 893
f 893 904 905
f 893 905 894
f 894 905 906
f 894 906 895
f 895 906 907
f 895 907 896
f 896 907 908
f 896 908 885
f 885 908 897
f 897 909 898
f 898 909 910
f 898 910 899
f 899 910 911
f 899 911 900
f 900 911 912
f 900 912 901
f 901 912 913
f 901 913 902
f 902 913 914
f 902 914 903
f 903 914 915
f 903 915 904
f 904 915 916
f 904 916 905
f 905 916 917
f 905 917 906
f 906 917 918
f 906 918 907
f 907 918 919
f 907 919 908
f 908 919 920
f 908 920 897
f 897 920 909
f 909 921 910
f 910 921 922
f 910 922 911
f 911 922 923
f 911 923 912
f 912 923 924
f 912 924 913
f 913 924 925
f 913 925 914
f 914 925 926
f 914 926 915
f 915 926 927
f 915 927 916
f 916 927 928
f 916 928 917
f 917 928 929
f 917 929 918
f 918 929 930
f 918 930 919
f 919 930 931
f 919 931 920
f 920 931 932
f 920 932 909
f 909 932 921
f 921 933 922
f 922 933 934
f 922 934 923
f 923 934 935
f 923 935 924
f 924 935 936
f 924 936 925
f 925 936 937
f 925 937 926
f 926 937 938
f 926 938 927
f 927 938 939
f 927 939 928
f 928 939 940
f 928 940 929
f 929 940 941
f 929 941 930
f 930 941 942
f 930 942 931
f 931 942 943
f 931 943 932
f 932 943 944
f 932 944 921
f 921 944 933
f 933 945 934
f 934 945 946
f 934 946 935
f 935 946 947
f 935 947 936
f 936 947 948
f 936 948 937
f 937 948 949
f 937 949 938
f 938 949 950
f 938 950 939
f 939 950 951
f 939 951 940
f 940 951 952
f 940 952 941
f 941 952 953
f 941 953 942
f 942 953 954
f 942 954 943
f 943 954 955
f 943 955 944
f 944 955 956
f 944 956 933
f 933 956 945
f 945 957 946
f 946 957 958
f 946 958 947
f 947 958 959
f 947 959 948
f 948 959 960
f 948 960 949
f 949 960 961
f 949 961 950
f 950 961 962
f 950 962 951
f 951 962 963
f 951 963 952
f 952 963 964
f 952 964 953
f 953 964 965
f 953 965 954
f 954 965 966
f 954 966 955
f 955 966 967
f 955 967 956
f 956 967 968
f 956 968 945
f 945 968 957
f 957 969 958
f 958 969 970
f 958 970 959
f 959 970 971
f 959 971 960
f 960 971 972
f 960 972 961
f 961 972 973
f 961 973 962
f 962 973 974
f 962 974 963
f 963 974 975
f 963 975 964
f 964 975 976
f 964 976 965
f 965 976 977
f 965 977 966
f 966 977 978
f 966 978 967
f 967 978 979
f 967 979 968
f 968 979 980
f 968 980 957
f 957 980 969
f 969 981 970
f 970 981 982
f 970 982 971
f 971 982 983
f 971 983 972
f 972 983 984
f 972 984 973
f 973 984 985
f 973 985 974
f 974 985 986
f 974 986 975
f 975 986 987
f 975 987 976
f 976 987 988
f 976 988 977
f 977 988 989
f 977 989 978
f 978 989 990
f 978 990 979
f 979 990 991
f 979 991 980
f 980 991 992
f 980 992 969
f 969 992 981
f 981 993 982
f 982 993 994
f 982 994 983
f 983 994 995
f 983 995 984
f 984 995 996
f 984 996 985
f 985 996 997
f 985 997 986
f 986 997 998
f 986 998 987
f 987 998 999
f 987 999 988
f 988 999 1000
f 988 1000 989
f 989 1000 1001
f 989 1001 990
f 990 1001 1002
f 990 1002 991
f 991 1002 1003
f 991 1003 992
f 992 1003 1004
f 992 1004 981
f 981 1004 993
f 993 1005 994
f 994 1005 1006
f 994 1006 995
f 995 1006 1007
f 995 1007 996
f 996 1007 1008
f 996 1008 997
f 997 1008 1009
f 997 1009 998
f 998 1009 1010
f 998 1010 999
f 999 1010 1011
f 999 1011 1000
f 1000 1011 1012
f 1000 1012 1001
f 1001 1012 1013
f 1001 1013 1002
f 1002 1013 1014
f 1002 1014 1003
f 1003 1014 1015
f 1003 1015 1004
f 1004 1015 1016
f 1004 1016 993
f 993 1016 1005
f 1005 1017 1006
f 1006 1017 1018
f 1006 1018 1007
f 1007 1018 1019
f 1007 1019 1008
f 1008 1019 1020
f 1008 1020 1009
f 1009 1020 1021
f 1009 1021 1010
f 1010 1021 1022
f 1010 1022 1011
f 1011 1022 1023
f 1011 1023 1012
f 1012 1023 1024
f 1012 1024 1013
f 1013 1024 1025
f 1013 1025 1014
f 1014 1025 1026
f 1014 1026 1015
f 1015 1026 1027
f 1015 1027 1016
f 1016 1027 1028
f 1016 1028 1005
f 1005 1028 1017
f 1017 1029 1018
f 1018 1029 1030
f 1018 1030 1019
f 1019 1030 1031
f 1019 1031 1020
f 1020 1031 1032
f 1020 1032 1021
f 1021 1032 1033
f 1021 1033 1022
f 1022 1033 1034
f 1022 1034 1023
f 1023 1034 1035
f 1023 1035 1024
f 1024 1035 1036
f 1024 1036 1025
f 1025 1036 1037
f 1025 1037 1026
f 1026 1037 1038
f 1026 1038 1027
f 1027 1038 1039
f 1027 1039 1028
f 1028 1039 1040
f 1028 1040 1017
f 1017 1040 1029
f 1029 1041 1030
f 1030 1041 1042
f 1030 1042 1031
f 1031 1042 1043
f 1031 1043 1032
f 1032 1043 1044
f 1032 1044 1033
f 1033 1044 1045
f 1033 1045 1034
f 1034 1045 1046
f 1034 1046 1035
f 1035 1046 1047
f 1035 1047 1036
f 1036 1047 1048
f 1036 1048 1037
f 1037 1048 1049
f 1037 1049 1038
f 1038 1049 1050
f 1038 1050 1039
f 1039 1050 1051
f 1039 1051 1040
f 1040 1051 1052
f 1040 1052 1029
f 1029 1052 1041
f 1041 1053 1042
f 1042 1053 1054
f 1042 1054 1043
f 1043 1054 1055
f 1043 1055 1044
f 1044 1055 1056
f 1044 1056 1045
f 1045 1056 1057
f 1045 1057 1046
f 1046 1057 1058
f 1046 1058 1047
f 1047 1058 1059
f 1047 1059 1048
f 1048 1059 1060
f 1048 1060 1049
f 1049 1060 1061
f 1049 1061 1050
f 1050 1061 1062
f 1050 1062 1051
f 1051 1062 1063
f 1051 1063 1052
f 1052 1063 1064
f 1052 1064 1041
f 1041 1064 1053
f 1053 1065 1054
f 1054 1065 1066
f 1054 1066 1055
f 1055 1066 1067
f 1055 1067 1056
f 1056 1067 1068
f 1056 1068 1057
f 1057 1068 1069
f 1057 1069 1058
f 1058 1069 1070
f 1058 1070 1059
f 1059 1070 1071
f 1059 1071 1060
f 1060 1071 1072
f 1060 1072 1061
f 1061 1072 1073
f 1061 1073 1062
f 1062 1073 1074
f 1062 1074 1063
f 1063 1074 1075
f 1063 1075 1064
f 1064 1075 1076
f 1064 1076 1053
f 1053 1076 1065
f 1065 1077 1066
f 1066 1077 1078
f 1066 1078 1067
f 1067 1078 1079
f 1067 1079 1068
f 1068 1079 1080
f 1068 1080 1069
f 1069 1080 1081
f 1069 1081 1070
f 1070 1081 1082
f 1070 1082 1071
f 1071 1082 1083
f 1071 1083 1072
f 1072 1083 1084
f 1072 1084 1073
f 1073 1084 1085
f 1073 1085 1074
f 1074 1085 1086
f 1074 1086 1075
f 1075 1086 1087
f 1075 1087 1076
f 1076 1087 1088
f 1076 1088 1065
f 1065 1088 1077
f 1077 1089 1078
f 1078 1089 1090
f 1078 1090 1079
f 1079 1090 1091
f 1079 1091 1080
f 1080 1091 1092
f 1080 1092 1081
f 1081 1092 1093
f 1081 1093 1082
f 1082 1093 1094
f 1082 1094 1083
f 1083 1094 1095
f 1083 1095 1084
f 1084 1095 1096
f 1084 1096 1085
f 1085 1096 1097
f 1085 1097 1086
f 1086 1097 1098
f 1086 1098 1087
f 1087 1098 1099
f 1087 1099 1088
f 1088 1099 1100
f 1088 1100 1077
f 1077 1100 1089
f 1089 1101 1090
f 1090 1101 1102
f 1090 1102 1091
f 1091 1102 1103
f 1091 1103 1092
f 1092 1103 1104
f 1092 1104 1093
f 1093 1104 1105
f 1093 1105 1094
f 1094 1105 1106
f 1094 1106 1095
f 1095 1106 1107
f 1095 1107 1096
f 1096 1107 1108
f 1096 1108 1097
f 1097 1108 1109
f 1097 1109 1098
f 1098 1109 1110
f 1098 1110 1099
f 1099 1110 1111
f 1099 1111 1100
f 1100 1111 1112
f 1100 1112 1089
f 1089 1112 1101
f 1101 1113 1102
f 1102 1113 1114
f 1102 1114 1103
f 1103 1114 1115
f 1103 1115 1104
f 1104 1115 1116
f 1104 1116 1105
f 1105 1116 1117
f 1105 1117 1106
f 1106 1117 1118
f 1106 1118 1107
f 1107 1118 1119
f 1107 1119 1108
f 1108 1119 1120
f 1108 1120 1109
f 1109 1120 1121
f 1109 1121 1110
f 1110 1121 1122
f 1110 1122 1111
f 1111 1122 1123
f 1111 1123 1112
f 1112 1123 1124
f 1112 1124 1101
f 1101 1124 1113
f 1113 1125 1114
f 1114 1125 1126
f 1114 1126 1115
f 1115 1126 1127
f 1115 1127 1116
f 1116 1127 1128
f 1116 1128 1117
f 1117 1128 1129
f 1117 1129 1118
f 1118 1129 1130
f 1118 1130 1119
f 1119 1130 1131
f 1119 1131 1120
f 1120 1131 1132
f 1120 1132 1121
f 1121 1132 1133
f 1121 1133 1122
f 1122 1133 1134
f 1122 1134 1123
f 1123 1134 1135
f 1123 1135 1124
f 1124 1135 1136
f 1124 1136 1113
f 1113 1136 1125
f 1125 1137 1126
f 1126 1137 1138
f 1126 1138 1127
f 1127 1138 1139
f 1127 1139 1128
f 1128 1139 1140
f 1128 1140 1129
f 1129 1140 1141
f 1129 1141 1130
f 1130 1141 1142
f 1130 1142 1131
f 1131 1142 1143
f 1131 1143 1132
f 1132 1143 1144
f 1132 1144 1133
f 1133 1144 1145
f 1133 1145 1134
f 1134 1145 1146
f 1134 1146 1135
f 1135 1146 1147
f 1135 1147 1136
f 1136 1147 1148
f 1136 1148 1125
f 1125 1148 1137
f 1137 1149 1138
f 1138 1149 1150
f 1138 1150 1139
f 1139 1150 1151
f 1139 1151 1140
f 1140 1151 1152
f 1140 1152 1141
f 1141 1152 1153
f 1141 1153 1142
f 1142 1153 1154
f 1142 1154 1143
f 1143 1154 1155
f 1143 1155 1144
f 1144 1155 1156
f 1144 1156 1145
f 1145 1156 1157
f 1145 1157 1146
f 1146 1157 1158
f 1146 1158 1147
f 1147 1158 1159
f 1147 1159 1148
f 1148 1159 1160
f 1148 1160 1137
f 1137 1160 1149
f 1149 1161 1150
f 1150 1161 1162
f 1150 1162 1151
f 1151 1162 1163
f 1151 1163 1152
f 1152 1163 1164
f 1152 1164 1153
f 1153 1164 1165
f 1153 1165 1154
f 1154 1165 1166
f 1154 1166 1155
f 1155 1166 1167
f 1155 1167 1156
f 1156 1167 1168
f 1156 1168 1157
f 1157 1168 1169
f 1157 1169 1158
f 1158 1169 1170
f 1158 1170 1159
f 1159 1170 1171
f 1159 1171 1160
f 1160 1171 1172
f 1160 1172 1149
f 1149 1172 1161
f 1161 1173 1162
f 1162 1173 1174
f 1162 1174 1163
f 1163 1174 1175
f 1163 1175 1164
f 1164 1175 1176
f 1164 1176 1165
f 1165 1176 1177
f 1165 1177 1166
f 1166 1177 1178
f 1166 1178 1167
f 1167 1178 1179
f 1167 1179 1168
f 1168 1179 1180
f 1168 1180 1169
f 1169 1180 1181
f 1169 1181 1170
f 1170 1181 1182
f 1170 1182 1171
f 1171 1182 1183
f 1171 1183 1172
f 1172 1183 1184
f 1172 1184 1161
f 1161 1184 1173
f 1173 1185 1174
f 1174 1185 1186
f 1174 1186 1175
f 1175 1186 1187
f 1175 1187 1176
f 1176 1187 1188
f 1176 1188 1177
f 1177 1188 1189
f 1177 1189 1178
f 1178 1189 1190
f 1178 1190 1179
f 1179 1190 1191
f 1179 1191 1180
f 1180 1191 1192
f 1180 1192 1181
f 1181 1192 1193
f 1181 1193 1182
f 1182 1193 1194
f 1182 1194 1183
f 1183 1194 1195
f 1183 1195 1184
f 1184 1195 1196
f 1184 1196 1173
f 1173 1196 1185
f 1185 1197 1186
f 1186 1197 1198
f 1186 1198 1187
f 1187 1198 1199
f 1187 1199 1188
f 1188 1199 1200
f 1188 1200 1189
f 1189 1200 1201
f 1189 1201 1190
f 1190 1201 1202
f 1190 1202 1191
f 1191 1202 1203
f 1191 1203 1192
f 1192 1203 1204
f 1192 1204 1193
f 1193 1204 1205
f 1193 1205 1194
f 1194 1205 1206
f 1194 1206 1195
f 1195 1206 1207
f 1195 1207 1196
f 1196 1207 1208
f 1196 1208 1185
f 1185 1208 1197
f 1197 1209 1198
f 1198 1209 1210
f 1198 1210 1199
f 1199 1210 1211
f 1199 1211 1200
f 1200 1211 1212
f 1200 1212 1201
f 1201 1212 1213
f 1201 1213 1202
f 1202 1213 1214
f 1202 1214 1203
f 1203 1214 1215
f 1203 1215 1204
f 1204 1215 1216
f 1204 1216 1205
f 1205 1216 1217
f 1205 1217 1206
f 1206 1217 1218
f 1206 1218 1207
f 1207 1218 1219
f 1207 1219 1208
f 1208 1219 1220
f 1208 1220 1197
f 1197 1220 1209
f 1209 1221 1210
f 1210 1221 1222
f 1210 1222 1211
f 1211 1222 1223
f 1211 1223 1212
f 1212 1223 1224
f 1212 1224 1213
f 1213 1224 1225
f 1213 1225 1214
f 1214 1225 1226
f 1214 1226 1215
f 1215 1226 1227
f 1215 1227 1216
f 1216 1227 1228
f 1216 1228 1217
f 1217 1228 1229
f 1217 1229 1218
f 1218 1229 1230
f 1218 1230 1219
f 1219 1230 1231
f 1219 1231 1220
f 1220 1231 1232
f 1220 1232 1209
f 1209 1232 1221
f 1221 465 1222
f 1222 465 466
f 1222 466 1223
f 1223 466 467
f 1223 467 1224
f 1224 467 468
f 1224 468 1225
f 1225 468 469
f 1225 469 1226
f 1226 469 470
f 1226 470 1227
f 1227 470 471
f 1227 471 1228
f 1228 471 472
f 1228 472 1229
f 1229 472 473
f 1229 473 1230
f 1230 473 474
f 1230 474 1231
f 1231 474 475
f 1231 475 1232
f 1232 475 476
f 1232 476 1221
f 1221 476 465
f 1234 1236 1233
f 1237 1234 1233
f 1233 1236 1235
f 1235 1237 1233
f 1234 1240 1236
f 1238 1234 1237
f 1238 1240 1234
f 1236 1240 1235
f 1239 1237 1235
f 1235 1240 1239
f 1239 1238 1237
f 1240 1238 1239
f 1242 1244 1241
f 1245 1242 1241
f 1241 1244 1243
f 1243 1245 1241
f 1242 1248 1244
f 1246 1242 1245
f 1246 1248 1242
f 1244 1248 1243
f 1247 1245 1243
f 1243 1248 1247
f 1247 1246 1245
f 1248 1246 1247
f 1250 1252 1249
f 1253 1250 1249
f 1249 1252 1251
f 1251 1253 1249
f 1250 1256 1252
f 1254 1250 1253
f 1254 1256 1250
f 1252 1256 1251
f 1255 1253 1251
f 1251 1256 1255
f 1255 1254 1253
f 1256 1254 1255
f 1258 1260 1257
f 1261 1258 1257
f 1257 1260 1259
f 1259 1261 1257
f 1258 1264 1260
f 1262 1258 1261
f 1262 1264 1258
f 1260 1264 1259
f 1263 1261 1259
f 1259 1264 1263
f 1263 1262 1261
f 1264 1262 1263
f 1266 1268 1265
f 1269 1266 1265
f 1265 1268 1267
f 1267 1269 1265
f 1266 1272 1268
f 1270 1266 1269
f 1270 1272 1266
f 1268 1272 1267
f 1271 1269 1267
f 1267 1272 1271
f 1271 1270 1269
f 1272 1270 1271
f 1274 1276 1273
f 1277 1274 1273
f 1273 1276 1275
f 1275 1277 1273
f 1274 1280 1276
f 1278 1274 1277
f 1278 1280 1274
f 1276 1280 1275
f 1279 1277 1275
f 1275 1280 1279
f 1279 1278 1277
f 1280 1278 1279
f 1282 1284 1281
f 1285 1282 1281
f 1281 1284 1283
f 1283 1285 1281
f 1282 1288 1284
f 1286 1282 1285
f 1286 1288 1282
f 1284 1288 1283
f 1287 1285 1283
f 1283 1288 1287
f 1287 1286 1285
f 1288 1286 1287
f 1290 1292 1289
f 1293 1290 1289
f 1289 1292 1291
f 1291 1293 1289
f 1290 1296 1292
f 1294 1290 1293
f 1294 1296 1290
f 1292 1296 1291
f 1295 1293 1291
f 1291 1296 1295
f 1295 1294 1293
f 1296 1294 1295
f 1298 1300 1297
f 1301 1298 1297
f 1297 1300 1299
f 1299 1301 1297
f 1298 1304 1300
f 1302 1298 1301
f 1302 1304 1298
f 1300 1304 1299
f 1303 1301 1299
f 1299 1304 1303
f 1303 1302 1301
f 1304 1302 1303
f 1306 1308 1305
f 1309 1306 1305
f 1305 1308 1307
f 1307 1309 1305
f 1306 1312 1308
f 1310 1306 1309
f 1310 1312 1306
f 1308 1312 1307
f 1311 1309 1307
f 1307 1312 1311
f 1311 1310 1309
f 1312 1310 1311
f 1314 1316 1313
f 1317 1314 1313
f 1313 1316 1315
f 1315 1317 1313
f 1314 1320 1316
f 1318 1314 1317
f 1318 1320 1314
f 1316 1320 1315
f 1319 1317 1315
f 1315 1320 1319
f 1319 1318 1317
f 1320 1318 1319
f 1322 1324 1321
f 1325 1322 1321
f 1321 1324 1323
f 1323 1325 1321
f 1322 1328 1324
f 1326 1322 1325
f 1326 1328 1322
f 1324 1328 1323
f 1327 1325 1323
f 1323 1328 1327
f 1327 1326 1325
f 1328 1326 1327
f 1330 1332 1329
f 1333 1330 1329
f 1329 1332 1331
f 1331 1333 1329
f 1330 1336 1332
f 1334 1330 1333
f 1334 1336 1330
f 1332 1336 1331
f 1335 1333 1331
f 1331 1336 1335
f 1335 1334 1333
f 1336 1334 1335
f 1338 1340 1337
f 1341 1338 1337
f 1337 1340 1339
f 1339 1341 1337
f 1338 1344 1340
f 1342 1338 1341
f 1342 1344 1338
f 1340 1344 1339
f 1343 1341 1339
f 1339 1344 1343
f 1343 1342 1341
f 1344 1342 1343
f 1346 1348 1345
f 1349 1346 1345
f 1345 1348 1347
f 1347 1349 1345
f 1346 1352 1348
f 1350 1346 1349
f 1350 1352 1346
f 1348 1352 1347
f 1351 1349 1347
f 1347 1352 1351
f 1351 1350 1349
f 1352 1350 1351
f 1354 1356 1353
f 1357 1354 1353
f 1353 1356 1355
f 1355 1357 1353
f 1354 1360 1356
f 1358 1354 1357
f 1358 1360 1354
f 1356 1360 1355
f 1359 1357 1355
f 1355 1360 1359
f 1359 1358 1357
f 1360 1358 1359

